<svg width="50" height="50" viewBox="0 0 50 50" fill="none" xmlns="http://www.w3.org/2000/svg">
<g clip-path="url(#clip0)">
<path d="M46.6667 28.75C46.6655 27.6001 45.7333 26.6679 44.5834 26.6667H42.5V23.3334H40.8334V26.6667H39.1667V23.3334H37.5V26.6667H35.8334V23.3334H34.1667V26.6667H32.5V23.3334H30.8334V26.6667H28.75C27.6001 26.6679 26.6679 27.6001 26.6667 28.75V30.8334H23.3334V32.5H26.6667V34.1667H23.3334V35.8334H26.6667V37.5H23.3334V39.1667H26.6667V40.8334H23.3334V42.5H26.6667V44.5834C26.6679 45.7333 27.6001 46.6655 28.75 46.6667H30.8334V50H32.5V46.6667H34.1667V50H35.8334V46.6667H37.5V50H39.1667V46.6667H40.8334V50H42.5V46.6667H44.5834C45.7333 46.6655 46.6655 45.7333 46.6667 44.5834V42.5H50V40.8334H46.6667V39.1667H50V37.5H46.6667V35.8334H50V34.1667H46.6667V32.5H50V30.8334H46.6667V28.75ZM45 44.5834C45 44.8133 44.8133 45 44.5834 45H28.75C28.5201 45 28.3334 44.8133 28.3334 44.5834V28.75C28.3334 28.5201 28.5201 28.3334 28.75 28.3334H44.5834C44.8133 28.3334 45 28.5201 45 28.75V44.5834Z" fill="#FF0000"/>
<path d="M1.66663 48.3334H3.33329V50H1.66663V48.3334Z" fill="#FF0000"/>
<path d="M7.91671 11.6667C8.14661 11.6667 8.33337 11.8535 8.33337 12.0834V15C7.41337 15.0009 6.66752 15.7467 6.66671 16.6667V18.3334C6.66752 19.2534 7.41337 19.9992 8.33337 20H10C10.92 19.9992 11.6659 19.2534 11.6667 18.3334V16.6667C11.6659 15.7467 10.92 15.0009 10 15V12.0834C9.99882 10.9335 9.06661 10.0013 7.91671 10C7.68681 10 7.50004 9.81327 7.50004 9.58337V3.33337H5.83337V9.58337C5.83459 10.7333 6.76681 11.6655 7.91671 11.6667ZM10 16.6667V18.3334H8.33337V16.6667H10Z" fill="#FF0000"/>
<path d="M5.83337 0H7.50004V1.66667H5.83337V0Z" fill="#FF0000"/>
<path d="M1.66663 0H3.33329V1.66667H1.66663V0Z" fill="#FF0000"/>
<path d="M1.66667 30.8334V46.6667H3.33333V30.8334C4.25334 30.8326 4.99919 30.0867 5 29.1667V27.5C4.99919 26.58 4.25334 25.8342 3.33333 25.8334H1.66667C0.746663 25.8342 0.000813802 26.58 0 27.5V29.1667C0.000813802 30.0867 0.746663 30.8326 1.66667 30.8334ZM1.66667 27.5H3.33333V29.1667H1.66667V27.5Z" fill="#FF0000"/>
<path d="M1.66667 24.1667H3.33333C4.25334 24.1659 4.99919 23.42 5 22.5V20.8334C4.99919 19.9134 4.25334 19.1675 3.33333 19.1667V3.33337H1.66667V19.1667C0.746663 19.1675 0.000813802 19.9134 0 20.8334V22.5C0.000813802 23.42 0.746663 24.1659 1.66667 24.1667ZM1.66667 20.8334H3.33333V22.5H1.66667V20.8334Z" fill="#FF0000"/>
<path d="M6.66663 46.25C6.66785 47.3999 7.60006 48.3321 8.74996 48.3333H15C15.0008 49.2533 15.7466 49.9992 16.6666 50H18.3333C19.2533 49.9992 19.9991 49.2533 20 48.3333V46.6666C19.9991 45.7466 19.2533 45.0008 18.3333 45H16.6666C15.7466 45.0008 15.0008 45.7466 15 46.6666H8.74996C8.52006 46.6666 8.33329 46.4799 8.33329 46.25V43.75C8.33329 43.5201 8.52006 43.3333 8.74996 43.3333H16.6666V41.6666H8.74996C7.60006 41.6678 6.66785 42.6001 6.66663 43.75V46.25ZM16.6666 46.6666H18.3333V48.3333H16.6666V46.6666Z" fill="#FF0000"/>
<path d="M18.3334 41.6666H20V43.3333H18.3334V41.6666Z" fill="#FF0000"/>
<path d="M6.66663 38.3333C6.66744 39.2533 7.41329 39.9991 8.33329 40H9.99996C10.92 39.9991 11.6658 39.2533 11.6666 38.3333H17.9166C19.0665 38.3321 19.9987 37.3999 20 36.25V33.75C19.9987 32.6001 19.0665 31.6678 17.9166 31.6666H9.99996V33.3333H17.9166C18.1465 33.3333 18.3333 33.5201 18.3333 33.75V36.25C18.3333 36.4799 18.1465 36.6666 17.9166 36.6666H11.6666C11.6658 35.7466 10.92 35.0008 9.99996 35H8.33329C7.41329 35.0008 6.66744 35.7466 6.66663 36.6666V38.3333ZM8.33329 36.6666H9.99996V38.3333H8.33329V36.6666Z" fill="#FF0000"/>
<path d="M6.66663 31.6666H8.33329V33.3333H6.66663V31.6666Z" fill="#FF0000"/>
<path d="M7.5 23.75V26.25C7.50122 27.3999 8.43343 28.3321 9.58333 28.3333H15C15.0008 29.2533 15.7467 29.9991 16.6667 30H18.3333C19.2533 29.9991 19.9992 29.2533 20 28.3333V26.6666C19.9992 25.7466 19.2533 25.0008 18.3333 25H16.6667C15.7467 25.0008 15.0008 25.7466 15 26.6666H9.58333C9.35343 26.6666 9.16667 26.4799 9.16667 26.25V23.75C9.16667 23.5201 9.35343 23.3333 9.58333 23.3333H16.6667V21.6666H9.58333C8.43343 21.6678 7.50122 22.6001 7.5 23.75ZM16.6667 26.6666H18.3333V28.3333H16.6667L16.6654 26.6666H16.6667Z" fill="#FF0000"/>
<path d="M18.3334 21.6666H20V23.3333H18.3334V21.6666Z" fill="#FF0000"/>
<path d="M13.3334 18.3334H15V20H13.3334V18.3334Z" fill="#FF0000"/>
<path d="M11.25 8.33333H12.9166C13.1465 8.33333 13.3333 8.5201 13.3333 8.75V16.6667H15V8.75C14.9987 7.6001 14.0665 6.66789 12.9166 6.66667H11.25C11.0201 6.66667 10.8333 6.4799 10.8333 6.25V3.75C10.8333 3.5201 11.0201 3.33333 11.25 3.33333H14.1666C14.1674 4.25334 14.9133 4.99919 15.8333 5H17.5C18.42 4.99919 19.1658 4.25334 19.1666 3.33333V1.66667C19.1658 0.746663 18.42 0.000813802 17.5 0H15.8333C14.9133 0.000813802 14.1674 0.746663 14.1666 1.66667H11.25C10.1001 1.66789 9.16785 2.6001 9.16663 3.75V6.25C9.16785 7.3999 10.1001 8.33211 11.25 8.33333ZM15.8333 1.66667H17.5L17.5012 3.33333H15.8333V1.66667Z" fill="#FF0000"/>
<path d="M25 12.9167C25 12.6868 25.1868 12.5 25.4167 12.5C26.5666 12.4988 27.4988 11.5666 27.5 10.4167V5C28.42 4.99919 29.1659 4.25334 29.1667 3.33333V1.66667C29.1659 0.746663 28.42 0.000813802 27.5 0H25.8334C24.9134 0.000813802 24.1675 0.746663 24.1667 1.66667V3.33333C24.1675 4.25334 24.9134 4.99919 25.8334 5V10.4167C25.8334 10.6466 25.6466 10.8333 25.4167 10.8333C24.2668 10.8346 23.3346 11.7668 23.3334 12.9167V16.6667H25V12.9167ZM25.8334 1.66667H27.5V3.33333H25.8334V1.66667Z" fill="#FF0000"/>
<path d="M23.3334 18.3334H25V20H23.3334V18.3334Z" fill="#FF0000"/>
<path d="M18.3333 8.75004V15C17.4133 15.0009 16.6674 15.7467 16.6666 16.6667V18.3334C16.6674 19.2534 17.4133 19.9992 18.3333 20H20C20.92 19.9992 21.6658 19.2534 21.6666 18.3334V16.6667C21.6658 15.7467 20.92 15.0009 20 15V8.75004C20 8.52014 20.1867 8.33337 20.4166 8.33337C21.5665 8.33215 22.4987 7.39994 22.5 6.25004V3.33337H20.8333V6.25004C20.8333 6.47994 20.6465 6.66671 20.4166 6.66671C19.2667 6.66793 18.3345 7.60014 18.3333 8.75004ZM20 18.3334H18.3333V16.6667H20V18.3334Z" fill="#FF0000"/>
<path d="M20.8334 0H22.5V1.66667H20.8334V0Z" fill="#FF0000"/>
<path d="M48.3333 15V9.16663H46.6667V15C45.7467 15.0008 45.0008 15.7466 45 16.6666V18.3333C45.0008 19.2533 45.7467 19.9991 46.6667 20H48.3333C49.2533 19.9991 49.9992 19.2533 50 18.3333V16.6666C49.9992 15.7466 49.2533 15.0008 48.3333 15ZM48.3333 18.3333H46.6667L46.6654 16.6666H48.3333V18.3333Z" fill="#FF0000"/>
<path d="M46.6666 5.83337H48.3333V7.50004H46.6666V5.83337Z" fill="#FF0000"/>
<path d="M41.6666 16.25C41.6666 16.4799 41.4799 16.6666 41.25 16.6666H31.6666C31.6658 15.7466 30.92 15.0008 30 15H28.3333C27.4133 15.0008 26.6674 15.7466 26.6666 16.6666V18.3333C26.6674 19.2533 27.4133 19.9991 28.3333 20H30C30.92 19.9991 31.6658 19.2533 31.6666 18.3333H41.25C42.3999 18.3321 43.3321 17.3999 43.3333 16.25V9.16663H41.6666V16.25ZM28.3333 18.3333V16.6666H30L30.0012 18.3333H28.3333Z" fill="#FF0000"/>
<path d="M41.6666 5.83337H43.3333V7.50004H41.6666V5.83337Z" fill="#FF0000"/>
<path d="M29.1666 11.25C29.1678 12.3999 30.1001 13.3322 31.25 13.3334H35C35.0008 14.2534 35.7466 14.9992 36.6666 15H38.3333C39.2533 14.9992 39.9992 14.2534 40 13.3334V11.6667C39.9992 10.7467 39.2533 10.0009 38.3333 10H36.6666C35.7466 10.0009 35.0008 10.7467 35 11.6667H31.25C31.0201 11.6667 30.8333 11.4799 30.8333 11.25V8.75004C30.8333 8.52014 31.0201 8.33337 31.25 8.33337C32.3999 8.33215 33.3321 7.39994 33.3333 6.25004V3.33337H31.6666V6.25004C31.6666 6.47994 31.4799 6.66671 31.25 6.66671C30.1001 6.66793 29.1678 7.60014 29.1666 8.75004V11.25ZM36.6666 11.6667H38.3333V13.3334H36.6666L36.6654 11.6667H36.6666Z" fill="#FF0000"/>
<path d="M31.6666 0H33.3333V1.66667H31.6666V0Z" fill="#FF0000"/>
<path d="M48.3333 0H46.6666C45.7466 0.000813802 45.0008 0.746663 45 1.66667H38.75C37.6001 1.66789 36.6678 2.6001 36.6666 3.75V5H38.3333V3.75C38.3333 3.5201 38.5201 3.33333 38.75 3.33333H45C45.0008 4.25334 45.7466 4.99919 46.6666 5H48.3333C49.2533 4.99919 49.9991 4.25334 50 3.33333V1.66667C49.9991 0.746663 49.2533 0.000813802 48.3333 0ZM46.6666 3.33333V1.66667H48.3333L48.3345 3.33333H46.6666Z" fill="#FF0000"/>
<path d="M36.6666 6.66663H38.3333V8.33329H36.6666V6.66663Z" fill="#FF0000"/>
</g>
<defs>
<clipPath id="clip0">
<rect width="50" height="50" fill="white"/>
</clipPath>
</defs>
</svg>
