<svg width="50" height="50" viewBox="0 0 50 50" fill="none" xmlns="http://www.w3.org/2000/svg">
<g clip-path="url(#clip0)">
<path d="M37.9032 22.5806H45.3097C45.6437 23.517 46.5308 24.1935 47.5806 24.1935C48.9144 24.1935 50 23.1079 50 21.7742C50 20.4405 48.9144 19.3548 47.5806 19.3548C46.5308 19.3548 45.6437 20.0313 45.3097 20.9677H37.9032V19.3548H40.3226C40.5372 19.3548 40.742 19.2702 40.8928 19.1186L43.8823 16.129H45.3097C45.6437 17.0654 46.5308 17.7419 47.5806 17.7419C48.9144 17.7419 50 16.6563 50 15.3226C50 13.9889 48.9144 12.9032 47.5806 12.9032C46.5308 12.9032 45.6437 13.5797 45.3097 14.5161H43.5484C43.3338 14.5161 43.129 14.6008 42.9782 14.7524L39.9887 17.7419H37.9032V16.9355C37.9032 16.7217 37.8186 16.5161 37.667 16.3653L33.6347 12.333C33.4839 12.1814 33.2791 12.0968 33.0645 12.0968H29.0323V11.0426L34.9613 8.81938C35.2752 8.70164 35.4839 8.4008 35.4839 8.06452V4.69026C36.4203 4.35634 37.0968 3.46916 37.0968 2.41935C37.0968 1.08564 36.0111 0 34.6774 0C33.3437 0 32.2581 1.08564 32.2581 2.41935C32.2581 3.46916 32.9346 4.35634 33.871 4.69026V7.50575L29.0323 9.32027V7.91606C29.9687 7.58214 30.6452 6.69497 30.6452 5.64516C30.6452 4.31144 29.5595 3.22581 28.2258 3.22581C26.8921 3.22581 25.8065 4.31144 25.8065 5.64516C25.8065 6.69497 26.483 7.58214 27.4194 7.91606V12.0968H22.5806V4.69026C23.517 4.35634 24.1935 3.46916 24.1935 2.41935C24.1935 1.08564 23.1079 0 21.7742 0C20.4405 0 19.3548 1.08564 19.3548 2.41935C19.3548 3.46916 20.0313 4.35634 20.9677 4.69026V12.0968H19.3548V9.67742C19.3548 9.4636 19.2702 9.25805 19.1186 9.10723L16.129 6.11769V4.69026C17.0654 4.35634 17.7419 3.46916 17.7419 2.41935C17.7419 1.08564 16.6563 0 15.3226 0C13.9889 0 12.9032 1.08564 12.9032 2.41935C12.9032 3.46916 13.5797 4.35634 14.5161 4.69026V6.45161C14.5161 6.66543 14.6008 6.87098 14.7524 7.0218L17.7419 10.0113V12.0968H16.9355C16.7209 12.0968 16.5161 12.1814 16.3653 12.333L12.333 16.3653C12.1814 16.5161 12.0968 16.7217 12.0968 16.9355V20.9677H11.0426L8.81938 15.0395C8.70164 14.7248 8.4008 14.5161 8.06452 14.5161H4.69026C4.35634 13.5797 3.46916 12.9032 2.41935 12.9032C1.08564 12.9032 0 13.9889 0 15.3226C0 16.6563 1.08564 17.7419 2.41935 17.7419C3.46916 17.7419 4.35634 17.0654 4.69026 16.129H7.50575L9.32027 20.9677H7.91606C7.58214 20.0313 6.69497 19.3548 5.64516 19.3548C4.31144 19.3548 3.22581 20.4405 3.22581 21.7742C3.22581 23.1079 4.31144 24.1935 5.64516 24.1935C6.69497 24.1935 7.58214 23.517 7.91606 22.5806H12.0968V27.4194H4.69026C4.35634 26.483 3.46916 25.8065 2.41935 25.8065C1.08564 25.8065 0 26.8921 0 28.2258C0 29.5595 1.08564 30.6452 2.41935 30.6452C3.46916 30.6452 4.35634 29.9687 4.69026 29.0323H12.0968V30.6452H9.67742C9.46281 30.6452 9.25805 30.7298 9.10723 30.8814L6.11769 33.871H4.69026C4.35634 32.9346 3.46916 32.2581 2.41935 32.2581C1.08564 32.2581 0 33.3437 0 34.6774C0 36.0111 1.08564 37.0968 2.41935 37.0968C3.46916 37.0968 4.35634 36.4203 4.69026 35.4839H6.45161C6.66622 35.4839 6.87098 35.3992 7.0218 35.2476L10.0113 32.2581H12.0968V33.0645C12.0968 33.2791 12.1814 33.4839 12.333 33.6347L16.3653 37.667C16.5161 37.8186 16.7209 37.9032 16.9355 37.9032H20.9677V38.9574L15.0387 41.1806C14.7248 41.2984 14.5161 41.5992 14.5161 41.9355V45.3097C13.5797 45.6437 12.9032 46.5308 12.9032 47.5806C12.9032 48.9144 13.9889 50 15.3226 50C16.6563 50 17.7419 48.9144 17.7419 47.5806C17.7419 46.5308 17.0654 45.6437 16.129 45.3097V42.4943L20.9677 40.6797V42.0839C20.0313 42.4179 19.3548 43.305 19.3548 44.3548C19.3548 45.6886 20.4405 46.7742 21.7742 46.7742C23.1079 46.7742 24.1935 45.6886 24.1935 44.3548C24.1935 43.305 23.517 42.4179 22.5806 42.0839V37.9032H27.4194V45.3097C26.483 45.6437 25.8065 46.5308 25.8065 47.5806C25.8065 48.9144 26.8921 50 28.2258 50C29.5595 50 30.6452 48.9144 30.6452 47.5806C30.6452 46.5308 29.9687 45.6437 29.0323 45.3097V37.9032H30.6452V40.3226C30.6452 40.5372 30.7298 40.742 30.8814 40.8928L33.871 43.8823V45.3097C32.9346 45.6437 32.2581 46.5308 32.2581 47.5806C32.2581 48.9144 33.3437 50 34.6774 50C36.0111 50 37.0968 48.9144 37.0968 47.5806C37.0968 46.5308 36.4203 45.6437 35.4839 45.3097V43.5484C35.4839 43.3338 35.3992 43.129 35.2476 42.9782L32.2581 39.9887V37.9032H33.0645C33.2791 37.9032 33.4839 37.8186 33.6347 37.667L37.667 33.6347C37.8186 33.4839 37.9032 33.2791 37.9032 33.0645V29.0323H38.9574L41.1806 34.9613C41.2984 35.2752 41.5992 35.4839 41.9355 35.4839H45.3097C45.6437 36.4203 46.5308 37.0968 47.5806 37.0968C48.9144 37.0968 50 36.0111 50 34.6774C50 33.3437 48.9144 32.2581 47.5806 32.2581C46.5308 32.2581 45.6437 32.9346 45.3097 33.871H42.4943L40.6797 29.0323H42.0839C42.4179 29.9687 43.305 30.6452 44.3548 30.6452C45.6886 30.6452 46.7742 29.5595 46.7742 28.2258C46.7742 26.8921 45.6886 25.8065 44.3548 25.8065C43.305 25.8065 42.4179 26.483 42.0839 27.4194H37.9032V22.5806ZM47.5806 20.9677C48.0256 20.9677 48.3871 21.33 48.3871 21.7742C48.3871 22.2184 48.0256 22.5806 47.5806 22.5806C47.1357 22.5806 46.7742 22.2184 46.7742 21.7742C46.7742 21.33 47.1357 20.9677 47.5806 20.9677ZM47.5806 14.5161C48.0256 14.5161 48.3871 14.8784 48.3871 15.3226C48.3871 15.7668 48.0256 16.129 47.5806 16.129C47.1357 16.129 46.7742 15.7668 46.7742 15.3226C46.7742 14.8784 47.1357 14.5161 47.5806 14.5161ZM34.6774 1.6129C35.1224 1.6129 35.4839 1.97518 35.4839 2.41935C35.4839 2.86353 35.1224 3.22581 34.6774 3.22581C34.2325 3.22581 33.871 2.86353 33.871 2.41935C33.871 1.97518 34.2325 1.6129 34.6774 1.6129ZM28.2258 4.83871C28.6708 4.83871 29.0323 5.20098 29.0323 5.64516C29.0323 6.08934 28.6708 6.45161 28.2258 6.45161C27.7808 6.45161 27.4194 6.08934 27.4194 5.64516C27.4194 5.20098 27.7808 4.83871 28.2258 4.83871ZM21.7742 1.6129C22.2192 1.6129 22.5806 1.97518 22.5806 2.41935C22.5806 2.86353 22.2192 3.22581 21.7742 3.22581C21.3292 3.22581 20.9677 2.86353 20.9677 2.41935C20.9677 1.97518 21.3292 1.6129 21.7742 1.6129ZM15.3226 1.6129C15.7675 1.6129 16.129 1.97518 16.129 2.41935C16.129 2.86353 15.7675 3.22581 15.3226 3.22581C14.8776 3.22581 14.5161 2.86353 14.5161 2.41935C14.5161 1.97518 14.8776 1.6129 15.3226 1.6129ZM2.41935 16.129C1.97439 16.129 1.6129 15.7668 1.6129 15.3226C1.6129 14.8784 1.97439 14.5161 2.41935 14.5161C2.86432 14.5161 3.22581 14.8784 3.22581 15.3226C3.22581 15.7668 2.86432 16.129 2.41935 16.129ZM5.64516 22.5806C5.2002 22.5806 4.83871 22.2184 4.83871 21.7742C4.83871 21.33 5.2002 20.9677 5.64516 20.9677C6.09013 20.9677 6.45161 21.33 6.45161 21.7742C6.45161 22.2184 6.09013 22.5806 5.64516 22.5806ZM2.41935 29.0323C1.97439 29.0323 1.6129 28.6708 1.6129 28.2258C1.6129 27.7808 1.97439 27.4194 2.41935 27.4194C2.86432 27.4194 3.22581 27.7808 3.22581 28.2258C3.22581 28.6708 2.86432 29.0323 2.41935 29.0323ZM2.41935 35.4839C1.97439 35.4839 1.6129 35.1224 1.6129 34.6774C1.6129 34.2325 1.97439 33.871 2.41935 33.871C2.86432 33.871 3.22581 34.2325 3.22581 34.6774C3.22581 35.1224 2.86432 35.4839 2.41935 35.4839ZM15.3226 48.3871C14.8776 48.3871 14.5161 48.0256 14.5161 47.5806C14.5161 47.1357 14.8776 46.7742 15.3226 46.7742C15.7675 46.7742 16.129 47.1357 16.129 47.5806C16.129 48.0256 15.7675 48.3871 15.3226 48.3871ZM21.7742 45.1613C21.3292 45.1613 20.9677 44.7998 20.9677 44.3548C20.9677 43.9099 21.3292 43.5484 21.7742 43.5484C22.2192 43.5484 22.5806 43.9099 22.5806 44.3548C22.5806 44.7998 22.2192 45.1613 21.7742 45.1613ZM28.2258 48.3871C27.7808 48.3871 27.4194 48.0256 27.4194 47.5806C27.4194 47.1357 27.7808 46.7742 28.2258 46.7742C28.6708 46.7742 29.0323 47.1357 29.0323 47.5806C29.0323 48.0256 28.6708 48.3871 28.2258 48.3871ZM34.6774 48.3871C34.2325 48.3871 33.871 48.0256 33.871 47.5806C33.871 47.1357 34.2325 46.7742 34.6774 46.7742C35.1224 46.7742 35.4839 47.1357 35.4839 47.5806C35.4839 48.0256 35.1224 48.3871 34.6774 48.3871ZM47.5806 33.871C48.0256 33.871 48.3871 34.2325 48.3871 34.6774C48.3871 35.1224 48.0256 35.4839 47.5806 35.4839C47.1357 35.4839 46.7742 35.1224 46.7742 34.6774C46.7742 34.2325 47.1357 33.871 47.5806 33.871ZM44.3548 27.4194C44.7998 27.4194 45.1613 27.7808 45.1613 28.2258C45.1613 28.6708 44.7998 29.0323 44.3548 29.0323C43.9099 29.0323 43.5484 28.6708 43.5484 28.2258C43.5484 27.7808 43.9099 27.4194 44.3548 27.4194ZM36.2903 32.7306L32.7306 36.2903H17.2694L13.7097 32.7306V17.2694L17.2694 13.7097H32.7306L36.2903 17.2694V32.7306Z" fill="#FFF200"/>
<path d="M31.4516 15.3226H18.5484C18.3338 15.3226 18.129 15.4073 17.9782 15.5589L15.5588 17.9783C15.4072 18.1291 15.3226 18.3346 15.3226 18.5484V31.4517C15.3226 31.6663 15.4072 31.871 15.5588 32.0219L17.9782 34.4412C18.129 34.5928 18.3338 34.6775 18.5484 34.6775H31.4516C31.6662 34.6775 31.871 34.5928 32.0218 34.4412L34.4411 32.0219C34.5927 31.871 34.6774 31.6663 34.6774 31.4517V18.5484C34.6774 18.3346 34.5927 18.1291 34.4411 17.9783L32.0218 15.5589C31.871 15.4073 31.6662 15.3226 31.4516 15.3226ZM33.0645 20.1613H28.5597L27.1831 18.7847C27.0323 18.6331 26.8275 18.5484 26.6129 18.5484H20.1613V20.1613H26.279L27.6556 21.538C27.8064 21.6896 28.0112 21.7742 28.2258 21.7742H33.0645V31.1177L31.1177 33.0646H18.8823L16.9355 31.1177V29.8388H21.4403L22.8169 31.2154C22.9677 31.367 23.1725 31.4517 23.3871 31.4517H29.8387V29.8388H23.721L22.3444 28.4621C22.1936 28.3105 21.9888 28.2259 21.7742 28.2259H16.9355V18.8824L18.8823 16.9355H31.1177L33.0645 18.8824V20.1613Z" fill="#FFF200"/>
</g>
<defs>
<clipPath id="clip0">
<rect width="50" height="50" fill="white"/>
</clipPath>
</defs>
</svg>
