<svg width="768" height="1071" viewBox="0 0 768 1071" fill="none" xmlns="http://www.w3.org/2000/svg">
<path d="M771.949 521.582C865.814 568.677 855.688 689.024 838.724 722.835C838.724 722.835 805.715 793.226 731.221 835.877C677.562 866.599 605.332 881.984 542.344 850.381C453.524 805.817 528.52 696.553 499.387 700.724C451.735 707.545 419.691 842.445 341.72 862.409C275.215 879.438 147.25 813.155 122.918 639.943C114.429 579.51 135.6 325.827 360.109 167.196C437.078 112.813 646.892 79.9001 717.484 152.79C766.075 202.963 772.496 265.9 724.495 361.573C706.914 396.614 634.17 452.454 771.949 521.582Z" fill="#CCF5FF"/>
</svg>
