<svg width="761" height="753" viewBox="0 0 761 753" fill="none" xmlns="http://www.w3.org/2000/svg">
<path d="M577.064 366.809C643.076 399.929 635.955 484.565 624.024 508.343C624.024 508.343 600.811 557.846 548.422 587.841C510.685 609.447 459.888 620.266 415.591 598.041C353.128 566.701 405.87 489.86 385.381 492.793C351.87 497.59 329.334 592.46 274.5 606.5C227.73 618.476 137.737 571.861 120.625 450.048C114.655 407.547 129.543 229.142 287.432 117.583C341.562 79.337 489.116 56.1908 538.761 107.452C572.933 142.736 577.449 186.998 543.691 254.28C531.327 278.923 480.169 318.194 577.064 366.809Z" fill="#CCF5FF"/>
</svg>
