<svg width="115" height="115" viewBox="0 0 115 115" fill="none" xmlns="http://www.w3.org/2000/svg">
<path d="M0 57.5C0 89.2564 25.7436 115 57.5 115C89.2564 115 115 89.2564 115 57.5C115 25.7436 89.2564 0 57.5 0C25.7436 0 0 25.7436 0 57.5Z" fill="#13100D"/>
<path d="M31.15 72.26V68.63H29.54V68H33.54V68.59H31.91V72.22L31.15 72.26Z" fill="white"/>
<path d="M37.7499 72C37.257 72.2519 36.7133 72.3886 36.1599 72.4C35.8789 72.4086 35.5998 72.3516 35.3446 72.2336C35.0895 72.1156 34.8653 71.9397 34.6899 71.72C34.3277 71.2899 34.1356 70.7421 34.1499 70.18C34.1371 69.6121 34.3288 69.0585 34.6899 68.62C34.8653 68.4028 35.088 68.2286 35.3411 68.1108C35.5941 67.9929 35.8708 67.9345 36.1499 67.94C36.4104 67.9245 36.6702 67.9806 36.9012 68.1023C37.1321 68.2239 37.3253 68.4064 37.4599 68.63C37.7179 69.0898 37.8393 69.6136 37.8099 70.14V70.29H34.8999C34.89 70.6763 35.0137 71.0542 35.2499 71.36C35.3719 71.5055 35.5252 71.6216 35.6984 71.6995C35.8716 71.7774 36.0601 71.8152 36.2499 71.81C36.7795 71.787 37.2951 71.6323 37.7499 71.36V72ZM34.9299 69.76H37.0499V69.66C37.0608 69.3818 36.98 69.1078 36.8199 68.88C36.7401 68.7672 36.6333 68.676 36.5093 68.6149C36.3853 68.5538 36.248 68.5246 36.1099 68.53C35.9522 68.5257 35.7956 68.5588 35.6531 68.6266C35.5106 68.6944 35.3861 68.7949 35.2899 68.92C35.1024 69.1584 34.9785 69.4406 34.9299 69.74V69.76Z" fill="white"/>
<path d="M42.5101 69.7699C42.5455 70.3975 42.3656 71.0184 42.0001 71.5299C41.8088 71.7819 41.5603 71.9849 41.2752 72.1223C40.9901 72.2596 40.6765 72.3273 40.3601 72.3199L39.5801 72.2599V73.8999H38.8701V67.9999H39.5801V68.9999C39.7519 68.7138 39.9798 68.4654 40.2501 68.2699C40.517 68.0623 40.8422 67.9434 41.1801 67.9299C41.3955 67.9261 41.6078 67.9809 41.7945 68.0883C41.9812 68.1957 42.1352 68.3518 42.2401 68.5399C42.4413 68.9173 42.5347 69.3429 42.5101 69.7699ZM41.7501 69.8599C41.7562 69.5815 41.7016 69.3051 41.5901 69.0499C41.547 68.9251 41.4681 68.8158 41.3631 68.7357C41.2581 68.6557 41.1319 68.6084 41.0001 68.5999C40.6729 68.6295 40.3708 68.7877 40.1601 69.0399C39.9267 69.2737 39.7281 69.5397 39.5701 69.8299V71.6399C39.7992 71.6969 40.0341 71.7271 40.2701 71.7299C40.4951 71.7396 40.7187 71.6902 40.9187 71.5867C41.1187 71.4832 41.2881 71.3292 41.4101 71.1399C41.6579 70.7607 41.7771 70.312 41.7501 69.8599Z" fill="white"/>
<path d="M47.16 69.7699C47.1802 70.4034 46.9825 71.0246 46.6 71.5299C46.4131 71.7843 46.1669 71.9892 45.8828 72.1269C45.5988 72.2645 45.2854 72.3308 44.97 72.3199L44.18 72.2599V73.8999H43.48V67.9999H44.18V68.9999C44.3553 68.7134 44.5866 68.4651 44.86 68.2699C45.1232 68.0625 45.4451 67.9435 45.78 67.9299C45.9968 67.9254 46.2108 67.9798 46.3992 68.0872C46.5876 68.1946 46.7434 68.3511 46.85 68.5399C47.0651 68.9134 47.1724 69.3392 47.16 69.7699ZM46.4 69.8599C46.401 69.582 46.3466 69.3066 46.24 69.0499C46.195 68.9206 46.1115 68.8081 46.0006 68.7276C45.8898 68.6471 45.7569 68.6026 45.62 68.5999C45.4574 68.6124 45.2991 68.6578 45.1547 68.7335C45.0103 68.8091 44.8828 68.9134 44.78 69.0399C44.5405 69.2708 44.3381 69.5373 44.18 69.8299V71.6399C44.4092 71.6963 44.644 71.7265 44.88 71.7299C45.1012 71.7333 45.3196 71.6811 45.5153 71.578C45.711 71.4749 45.8777 71.3243 46 71.1399C46.2645 70.7659 46.4045 70.318 46.4 69.8599Z" fill="white"/>
<path d="M51 69L48.91 72.22H48.21V68H48.91V70.59V71.18L51 68H51.7V72.22H51V69Z" fill="white"/>
<path d="M54.1801 72.26V68.63H52.5701V68H56.5701V68.59H54.9401V72.22L54.1801 72.26Z" fill="white"/>
<path d="M59.2099 72.3802C58.9276 72.3913 58.6466 72.3375 58.3883 72.2231C58.13 72.1087 57.9014 71.9367 57.7199 71.7202C57.3688 71.2741 57.188 70.7175 57.2099 70.1502C57.187 69.5842 57.3719 69.0293 57.7299 68.5902C57.9176 68.3774 58.1484 68.207 58.407 68.0902C58.6657 67.9735 58.9462 67.9131 59.2299 67.9131C59.5137 67.9131 59.7942 67.9735 60.0528 68.0902C60.3114 68.207 60.5422 68.3774 60.7299 68.5902C61.0879 69.0293 61.2729 69.5842 61.2499 70.1502C61.2716 70.7191 61.087 71.2767 60.7299 71.7202C60.5474 71.9433 60.3143 72.1196 60.0499 72.2344C59.7855 72.3492 59.4975 72.3992 59.2099 72.3802ZM59.2099 71.7902C59.4086 71.8064 59.6079 71.7661 59.7848 71.6741C59.9616 71.5822 60.109 71.4422 60.2099 71.2702C60.4006 70.9286 60.494 70.5412 60.4799 70.1502C60.4885 69.7438 60.3772 69.3438 60.1599 69.0002C60.058 68.8391 59.917 68.7064 59.75 68.6144C59.5831 68.5225 59.3955 68.4743 59.2049 68.4743C59.0143 68.4743 58.8268 68.5225 58.6598 68.6144C58.4928 68.7064 58.3518 68.8391 58.2499 69.0002C58.0571 69.3513 57.9702 69.7508 57.9999 70.1502C57.9889 70.5421 58.0857 70.9296 58.2799 71.2702C58.3701 71.4357 58.5053 71.5724 58.6699 71.6644C58.8344 71.7564 59.0216 71.8 59.2099 71.7902Z" fill="white"/>
<path d="M65.7401 69.7699C65.7639 70.4022 65.5697 71.0236 65.1901 71.5299C64.9987 71.7819 64.7502 71.9849 64.4651 72.1223C64.18 72.2596 63.8664 72.3273 63.5501 72.3199L62.7601 72.2599V73.8999H62.0601V67.9999H62.7601V68.9999C62.9383 68.7155 63.1691 68.4678 63.4401 68.2699C63.707 68.0623 64.0322 67.9434 64.3701 67.9299C64.5854 67.9261 64.7977 67.9809 64.9844 68.0883C65.1711 68.1957 65.3251 68.3518 65.4301 68.5399C65.6452 68.9133 65.7525 69.3391 65.7401 69.7699ZM64.9801 69.8599C64.9861 69.5815 64.9315 69.3051 64.8201 69.0499C64.7751 68.9205 64.6916 68.808 64.5807 68.7275C64.4699 68.6471 64.337 68.6025 64.2001 68.5999C64.0378 68.6134 63.8798 68.6594 63.7356 68.7349C63.5913 68.8105 63.4636 68.9142 63.3601 69.0399C63.1206 69.2707 62.9182 69.5372 62.7601 69.8299V71.6399C62.9925 71.6968 63.2307 71.727 63.4701 71.7299C63.6949 71.7386 63.9181 71.6888 64.118 71.5854C64.3178 71.482 64.4873 71.3285 64.6101 71.1399C64.8755 70.7668 65.0124 70.3175 65.0001 69.8599H64.9801Z" fill="white"/>
<path d="M69.55 69L67.46 72.22H66.76V68H67.46V70.59V71.18L69.53 68H70.23V72.22H69.53L69.55 69Z" fill="white"/>
<path d="M73.3299 70.59L72.0699 72.26H71.1399L72.5599 70.47C72.2699 70.3585 72.0146 70.1722 71.8199 69.93C71.6309 69.6756 71.5292 69.3669 71.5299 69.05C71.5197 68.8946 71.5515 68.7393 71.6219 68.6003C71.6922 68.4613 71.7986 68.3438 71.9299 68.26C72.1942 68.0994 72.5011 68.0227 72.8099 68.04H74.8799V72.26H74.1699V70.59H73.3299ZM74.1699 70.01V68.62H73.1699C72.5999 68.62 72.3099 68.81 72.3099 69.17C72.3213 69.3481 72.3801 69.52 72.4804 69.6677C72.5806 69.8154 72.7186 69.9336 72.8799 70.01H74.1699Z" fill="white"/>
<path d="M32.56 77.9201H30.5V81.5501H29.79V77.3301H33.27V81.5501H32.56V77.9201Z" fill="white"/>
<path d="M38.0699 79.0599C38.0901 79.6934 37.8924 80.3146 37.5099 80.8199C37.323 81.0743 37.0768 81.2792 36.7928 81.4169C36.5087 81.5545 36.1954 81.6208 35.8799 81.6099L35.0899 81.5499V83.1899H34.3899V77.3299H35.0899V78.3299C35.2652 78.0434 35.4965 77.7951 35.7699 77.5999C36.032 77.3906 36.3546 77.2714 36.6899 77.2599C36.9052 77.2562 37.1176 77.3109 37.3043 77.4184C37.4909 77.5258 37.645 77.6819 37.7499 77.8699C37.9614 78.2307 38.072 78.6417 38.0699 79.0599ZM37.2999 79.1499C37.3041 78.8727 37.2531 78.5973 37.1499 78.3399C37.1037 78.2113 37.0199 78.0996 36.9093 78.0193C36.7987 77.9391 36.6665 77.894 36.5299 77.8899C36.3661 77.9033 36.2067 77.9491 36.0607 78.0246C35.9148 78.1002 35.7854 78.2039 35.6799 78.3299C35.4465 78.5638 35.2478 78.8298 35.0899 79.1199V80.9299C35.319 80.9869 35.5539 81.0171 35.7899 81.0199C36.0161 81.0284 36.2407 80.9786 36.442 80.8753C36.6434 80.772 36.8149 80.6186 36.9399 80.4299C37.1909 80.0515 37.3168 79.6038 37.2999 79.1499Z" fill="white"/>
<path d="M40.82 81.6699C40.5384 81.6797 40.2583 81.6244 40.0016 81.5082C39.7449 81.3919 39.5185 81.218 39.34 80.9999C38.989 80.5538 38.8082 79.9972 38.83 79.4299C38.8071 78.8639 38.992 78.309 39.35 77.8699C39.5248 77.6502 39.7492 77.475 40.0046 77.3585C40.2601 77.2421 40.5395 77.1877 40.82 77.1999C41.1019 77.1886 41.3825 77.2432 41.6394 77.3595C41.8964 77.4759 42.1226 77.6506 42.3 77.8699C42.654 78.3112 42.8384 78.8645 42.82 79.4299C42.8373 79.9982 42.6531 80.5543 42.3 80.9999C42.1216 81.218 41.8952 81.3919 41.6385 81.5082C41.3817 81.6244 41.1017 81.6797 40.82 81.6699ZM40.82 81.0799C41.0197 81.1038 41.2219 81.067 41.4003 80.9742C41.5787 80.8815 41.7249 80.7371 41.82 80.5599C42.0107 80.2183 42.1041 79.8309 42.09 79.4399C42.1059 79.0519 42.0124 78.6673 41.82 78.3299C41.7186 78.1666 41.5773 78.0319 41.4093 77.9384C41.2413 77.845 41.0522 77.796 40.86 77.796C40.6678 77.796 40.4788 77.845 40.3108 77.9384C40.1428 78.0319 40.0014 78.1666 39.9 78.3299C39.7077 78.6673 39.6141 79.0519 39.63 79.4399C39.616 79.8309 39.7093 80.2183 39.9 80.5599C39.9945 80.7195 40.1292 80.8515 40.2906 80.9427C40.452 81.034 40.6346 81.0813 40.82 81.0799Z" fill="white"/>
<path d="M44.5701 81.5501H43.8101V77.3301H46.9201V77.9201H44.5701V81.5501Z" fill="white"/>
<path d="M51.46 79.0599C51.4802 79.6934 51.2825 80.3146 50.9 80.8199C50.7131 81.0743 50.4669 81.2792 50.1829 81.4169C49.8988 81.5545 49.5855 81.6208 49.27 81.6099L48.48 81.5499V83.1899H47.78V77.3299H48.48V78.3299C48.6553 78.0434 48.8866 77.7951 49.16 77.5999C49.4222 77.3906 49.7448 77.2714 50.08 77.2599C50.2954 77.2562 50.5077 77.3109 50.6944 77.4184C50.8811 77.5258 51.0351 77.6819 51.14 77.8699C51.3516 78.2307 51.4621 78.6417 51.46 79.0599ZM50.69 79.1499C50.6943 78.8727 50.6433 78.5973 50.54 78.3399C50.4939 78.2113 50.41 78.0996 50.2994 78.0193C50.1888 77.9391 50.0566 77.894 49.92 77.8899C49.7563 77.9033 49.5968 77.9491 49.4509 78.0246C49.3049 78.1002 49.1755 78.2039 49.07 78.3299C48.8367 78.5638 48.638 78.8298 48.48 79.1199V80.9299C48.7091 80.9869 48.944 81.0171 49.18 81.0199C49.4062 81.0284 49.6308 80.9786 49.8322 80.8753C50.0336 80.772 50.205 80.6186 50.33 80.4299C50.581 80.0515 50.7069 79.6038 50.69 79.1499Z" fill="white"/>
<path d="M55.2499 80.6C55.0748 80.8895 54.8436 81.1411 54.5699 81.34C54.3024 81.5453 53.9769 81.6608 53.6399 81.67C53.4241 81.676 53.2109 81.6222 53.0239 81.5146C52.8368 81.4069 52.6831 81.2496 52.5799 81.06C52.3628 80.6874 52.2554 80.261 52.2699 79.83C52.2484 79.1902 52.4459 78.5623 52.8299 78.05C53.0213 77.8012 53.2686 77.601 53.5518 77.4655C53.835 77.3299 54.1461 77.263 54.4599 77.27L55.2399 77.33H55.9999V80.33C55.9853 80.7493 56.0394 81.1682 56.1599 81.57H55.4199C55.3386 81.2515 55.2818 80.9272 55.2499 80.6ZM55.2499 79.77V78C55.0222 77.9352 54.7867 77.9016 54.5499 77.9C54.3239 77.8925 54.0996 77.9427 53.8984 78.0459C53.6972 78.1492 53.5256 78.302 53.3999 78.49C53.1391 78.8508 52.9991 79.2849 52.9999 79.73C52.9919 80.0086 53.0466 80.2854 53.1599 80.54C53.2019 80.6721 53.2844 80.7876 53.3956 80.8701C53.5069 80.9527 53.6414 80.9981 53.7799 81C54.1059 80.9663 54.4066 80.8088 54.6199 80.56C54.8654 80.3271 55.0774 80.0612 55.2499 79.77Z" fill="white"/>
<path d="M57.7999 81.5501H57.1899V77.3301H57.9999L59.3599 80.3301L60.7099 77.3301H61.4599V81.5501H60.7599V78.4601L60.5899 78.9701L59.6799 80.9701H58.8999L57.9999 79.0001L57.8199 78.4901V79.0001L57.7999 81.5501Z" fill="white"/>
<path d="M63.13 81.5501H62.52V77.3301H63.28L64.64 80.3301L65.99 77.3301H66.74V81.5501H66V78.4601L65.83 78.9701L65 81.0001H64.27L63.35 79.0001L63.17 78.4901V79.0001L63.13 81.5501Z" fill="white"/>
<path d="M70.6401 78.3301L68.5501 81.5501H67.8501V77.3301H68.5501V79.9201V80.5101L70.6401 77.3301H71.3401V81.5501H70.6401V78.3301Z" fill="white"/>
<path d="M75.68 81.4302C75.2461 81.5831 74.7901 81.6641 74.33 81.6702C74.0342 81.6767 73.7404 81.6203 73.4681 81.5048C73.1957 81.3893 72.951 81.2173 72.75 81.0002C72.3535 80.5674 72.1418 79.9969 72.16 79.4102C72.1465 78.8284 72.362 78.2647 72.76 77.8402C72.9526 77.6267 73.189 77.4572 73.453 77.3433C73.7171 77.2294 74.0025 77.1737 74.29 77.1802C74.7636 77.1897 75.2328 77.2741 75.68 77.4302V78.1102C75.2693 77.904 74.8192 77.788 74.36 77.7702C74.1557 77.762 73.9523 77.802 73.7664 77.8872C73.5805 77.9723 73.4173 78.1001 73.29 78.2602C73.0355 78.5805 72.9042 78.9814 72.92 79.3902C72.9042 79.8024 73.0433 80.2055 73.31 80.5202C73.4439 80.6771 73.6114 80.8017 73.8001 80.8848C73.9889 80.9679 74.1939 81.0074 74.4 81.0002C74.8377 80.9813 75.2697 80.8936 75.68 80.7402V81.4302Z" fill="white"/>
<path d="M77.9201 81.5501V77.9201H76.3101V77.3301H80.3101V77.9201H78.6801V81.5501H77.9201Z" fill="white"/>
<path d="M82.7601 81.6699C82.4783 81.6805 82.198 81.6255 81.9412 81.5092C81.6843 81.3929 81.458 81.2186 81.2801 80.9999C80.9214 80.5573 80.7365 79.9991 80.7601 79.4299C80.7371 78.8639 80.9221 78.309 81.2801 77.8699C81.457 77.65 81.6831 77.4748 81.9402 77.3585C82.1973 77.2421 82.4781 77.1878 82.7601 77.1999C83.0418 77.1893 83.3221 77.2443 83.579 77.3606C83.8358 77.4769 84.0621 77.6512 84.2401 77.8699C84.5912 78.3122 84.7722 78.8656 84.7501 79.4299C84.7702 79.997 84.5896 80.5529 84.2401 80.9999C84.0606 81.2168 83.834 81.39 83.5775 81.5061C83.3211 81.6222 83.0415 81.6782 82.7601 81.6699ZM82.7601 81.0799C82.9588 81.0961 83.158 81.0558 83.3349 80.9638C83.5118 80.8719 83.6591 80.7319 83.7601 80.5599C83.9403 80.2153 84.0233 79.8281 84.0001 79.4399C84.0169 79.0505 83.9196 78.6647 83.7201 78.3299C83.6182 78.1688 83.4772 78.0361 83.3102 77.9441C83.1432 77.8522 82.9557 77.804 82.7651 77.804C82.5744 77.804 82.3869 77.8522 82.2199 77.9441C82.053 78.0361 81.912 78.1688 81.8101 78.3299C81.6177 78.6673 81.5242 79.0519 81.5401 79.4399C81.526 79.8309 81.6194 80.2183 81.8101 80.5599C81.9018 80.7287 82.0401 80.8674 82.2086 80.9597C82.377 81.0519 82.5685 81.0936 82.7601 81.0799Z" fill="white"/>
<path d="M85.74 81.5499V77.3299H87.48C87.8179 77.3071 88.1571 77.3478 88.48 77.4499C88.6407 77.5172 88.7758 77.6339 88.8657 77.7831C88.9556 77.9324 88.9956 78.1064 88.98 78.2799C88.9669 78.4963 88.8934 78.7046 88.768 78.8814C88.6425 79.0581 88.4699 79.1962 88.27 79.2799C88.5166 79.3547 88.7335 79.5051 88.89 79.7099C89.0499 79.9116 89.1347 80.1626 89.13 80.4199C89.1392 80.6214 89.0943 80.8216 89 80.9999C88.901 81.1681 88.755 81.3037 88.58 81.3899C88.3049 81.5037 88.0069 81.5517 87.71 81.5299L85.74 81.5499ZM88.23 78.3599C88.2322 78.2838 88.2114 78.2087 88.1704 78.1445C88.1294 78.0803 88.07 78.0299 88 77.9999C87.8229 77.9414 87.6361 77.9176 87.45 77.9299H86.45V79.1199H87.66C87.8263 79.0752 87.9728 78.976 88.0762 78.8383C88.1795 78.7005 88.2337 78.5321 88.23 78.3599ZM88.36 80.3599C88.36 79.8899 88.02 79.6499 87.36 79.6499H86.45V80.9999H87.61C87.8029 81.0095 87.9934 80.953 88.15 80.8399C88.2239 80.7784 88.2817 80.6998 88.3183 80.6109C88.3549 80.5221 88.3692 80.4256 88.36 80.3299V80.3599Z" fill="white"/>
<path d="M33.86 90.8401H33L31.93 88.6501V90.8401H31.17V88.6501L30.1 90.8401H29.2L30.34 88.5601L29.27 86.6201H30L31.11 88.6201V86.6201H31.87V88.6201L32.9799 86.6201H33.75L32.68 88.5601L33.86 90.8401Z" fill="white"/>
<path d="M38 90.5602C37.5071 90.8121 36.9634 90.9489 36.41 90.9602C36.129 90.9688 35.8498 90.9119 35.5947 90.7938C35.3395 90.6758 35.1154 90.5 34.94 90.2802C34.5709 89.8536 34.3747 89.3042 34.39 88.7402C34.3791 88.1709 34.5745 87.6169 34.94 87.1802C35.1154 86.963 35.3381 86.7888 35.5912 86.671C35.8442 86.5531 36.1209 86.4947 36.4 86.5002C36.6604 86.4859 36.9198 86.5424 37.1505 86.664C37.3812 86.7855 37.5746 86.9674 37.71 87.1902C37.9427 87.6577 38.043 88.1799 38 88.7002V88.8502H35.1C35.0901 89.2365 35.2137 89.6144 35.45 89.9202C35.571 90.0669 35.7241 90.1838 35.8975 90.2618C36.0709 90.3398 36.26 90.3769 36.45 90.3702C36.9796 90.3472 37.4952 90.1925 37.95 89.9202L38 90.5602ZM35.18 88.3202H37.3V88.2202C37.3109 87.9421 37.2301 87.668 37.07 87.4402C36.9908 87.3267 36.8842 87.2351 36.76 87.1739C36.6359 87.1127 36.4983 87.0839 36.36 87.0902C36.2031 87.0848 36.0471 87.1163 35.9046 87.1823C35.7622 87.2483 35.6372 87.347 35.54 87.4702C35.3314 87.7129 35.19 88.0059 35.13 88.3202H35.18Z" fill="white"/>
<path d="M42.46 90.8401H41.76V87.2102H40.49V87.6602C40.5046 88.4251 40.4376 89.1894 40.29 89.9402C40.2435 90.2448 40.086 90.5215 39.848 90.7171C39.6099 90.9128 39.3079 91.0135 39 91.0002C38.8416 90.998 38.6839 90.9779 38.53 90.9402V90.3002C38.677 90.3552 38.8331 90.3824 38.99 90.3801C39.32 90.3801 39.55 90.1402 39.66 89.6702C39.7416 89.1609 39.7817 88.6459 39.78 88.1301V86.6602H42.43L42.46 90.8401Z" fill="white"/>
<path d="M47 90.5602C46.5071 90.8121 45.9634 90.9489 45.41 90.9602C45.129 90.9688 44.8498 90.9119 44.5947 90.7938C44.3395 90.6758 44.1154 90.5 43.94 90.2802C43.5709 89.8536 43.3747 89.3042 43.39 88.7402C43.3791 88.1709 43.5745 87.6169 43.94 87.1802C44.1154 86.963 44.3381 86.7888 44.5912 86.671C44.8442 86.5531 45.1209 86.4947 45.4 86.5002C45.6604 86.4859 45.9198 86.5424 46.1505 86.664C46.3812 86.7855 46.5746 86.9674 46.71 87.1902C46.9427 87.6577 47.043 88.1799 47 88.7002V88.8502H44.11C44.1001 89.2365 44.2237 89.6144 44.46 89.9202C44.581 90.0669 44.7342 90.1838 44.9075 90.2618C45.0809 90.3398 45.27 90.3769 45.46 90.3702C45.9896 90.3472 46.5052 90.1925 46.96 89.9202L47 90.5602ZM44.18 88.3202H46.3V88.2202C46.3109 87.9421 46.2301 87.668 46.07 87.4402C45.9908 87.3267 45.8842 87.2351 45.76 87.1739C45.6359 87.1127 45.4983 87.0839 45.36 87.0902C45.2031 87.0848 45.0471 87.1163 44.9046 87.1823C44.7622 87.2483 44.6372 87.347 44.54 87.4702C44.335 87.7139 44.1971 88.0069 44.14 88.3202H44.18Z" fill="white"/>
<path d="M51.2 89.5701C51.2011 89.779 51.1495 89.9847 51.0498 90.1683C50.9502 90.3519 50.8058 90.5073 50.63 90.6201C50.2805 90.86 49.8638 90.9825 49.44 90.9701C48.8732 90.9644 48.3129 90.8489 47.79 90.6301V89.8901C48.2692 90.2122 48.8327 90.3861 49.41 90.3901C49.6597 90.396 49.9048 90.3224 50.11 90.1801C50.2077 90.118 50.2883 90.0324 50.3442 89.931C50.4001 89.8297 50.4296 89.7159 50.43 89.6001C50.4404 89.4723 50.4126 89.3443 50.3503 89.2322C50.2881 89.1201 50.194 89.0289 50.08 88.9701C49.8379 88.8773 49.579 88.8364 49.32 88.8501H48.8V88.3301H49.43C49.6272 88.3367 49.8209 88.2768 49.98 88.1601C50.0615 88.0986 50.1269 88.0183 50.1704 87.926C50.214 87.8336 50.2344 87.7321 50.23 87.6301C50.23 87.2701 49.95 87.0901 49.41 87.0901C48.8652 87.104 48.3379 87.2856 47.9 87.6101V86.9001C48.3674 86.647 48.8887 86.5099 49.42 86.5001C49.7669 86.4965 50.1096 86.5753 50.42 86.7301C50.5811 86.8055 50.7168 86.9258 50.8109 87.0767C50.9049 87.2275 50.9533 87.4024 50.95 87.5801C50.9688 87.7863 50.9231 87.9933 50.8192 88.1724C50.7153 88.3515 50.5584 88.494 50.37 88.5801C50.5981 88.6306 50.8032 88.755 50.9533 88.9341C51.1034 89.1131 51.1901 89.3367 51.2 89.5701Z" fill="white"/>
<path d="M54.9401 89.8898C54.765 90.1793 54.5338 90.4309 54.2601 90.6298C53.9926 90.835 53.6671 90.9505 53.3301 90.9598C53.1143 90.9658 52.9011 90.912 52.714 90.8043C52.5269 90.6966 52.3733 90.5393 52.2701 90.3498C52.0669 89.9731 51.9734 89.5469 52.0001 89.1198C51.9794 88.477 52.1768 87.8462 52.5601 87.3298C52.7525 87.0828 53.0003 86.8844 53.2834 86.7507C53.5665 86.617 53.8771 86.5516 54.1901 86.5598L54.9701 86.6198H55.6801V89.6198C55.6655 90.0391 55.7195 90.4579 55.8401 90.8598H55.1101C55.0225 90.5426 54.9656 90.2178 54.9401 89.8898ZM54.9401 89.0598V87.2498C54.7123 87.185 54.4769 87.1513 54.2401 87.1498C54.0139 87.1413 53.7893 87.1911 53.5879 87.2944C53.3865 87.3977 53.2151 87.5511 53.0901 87.7398C52.8359 88.1097 52.7062 88.5511 52.7201 88.9998C52.712 89.2783 52.7667 89.5552 52.8801 89.8098C52.9234 89.941 53.0062 90.0557 53.1172 90.138C53.2282 90.2204 53.3619 90.2664 53.5001 90.2698C53.6628 90.2539 53.8209 90.2059 53.965 90.1287C54.1092 90.0515 54.2367 89.9465 54.3401 89.8198C54.5756 89.5966 54.7777 89.3407 54.9401 89.0598Z" fill="white"/>
<path d="M57.0001 90.9998H56.3101L60.0401 84.7798H60.7101L57.0001 90.9998Z" fill="white"/>
<path d="M60.4901 90.9998H59.8L63.53 84.7798H64.2001L60.4901 90.9998Z" fill="white"/>
<path d="M22.2701 72.4402H21.5801L25.3101 66.2202H26.0001L22.2701 72.4402Z" fill="white"/>
<path d="M25.72 72.4402H25L28.72 66.2202H29.39L25.72 72.4402Z" fill="white"/>
<path d="M30.46 39.1499V29.2699H32.1V31.4299C32.5405 30.6939 33.1466 30.0708 33.87 29.6099C34.5339 29.201 35.3003 28.9895 36.08 28.9999C36.6867 29.0014 37.2898 29.0924 37.87 29.2699V32.8399H36.29V30.5799C36.0716 30.5428 35.8512 30.5194 35.63 30.5099C34.9621 30.5306 34.3236 30.7896 33.83 31.2399C33.1281 31.8538 32.5421 32.5888 32.1 33.4099V39.1499H30.46Z" fill="#00CDFF"/>
<path d="M45.14 39.42C44.4998 39.4462 43.8619 39.3266 43.2747 39.0702C42.6874 38.8138 42.1661 38.4273 41.75 37.94C40.8786 36.8967 40.4229 35.5685 40.47 34.21C40.42 32.851 40.8761 31.5219 41.75 30.48C42.1817 30.0131 42.7052 29.6406 43.2877 29.3858C43.8703 29.131 44.4992 28.9995 45.135 28.9995C45.7708 28.9995 46.3998 29.131 46.9823 29.3858C47.5649 29.6406 48.0884 30.0131 48.52 30.48C49.3912 31.5229 49.8438 32.8522 49.79 34.21C49.8409 35.5674 49.3886 36.8957 48.52 37.94C48.1055 38.4266 47.5859 38.8126 47.0004 39.069C46.4148 39.3254 45.7787 39.4454 45.14 39.42ZM45.14 38.05C45.5432 38.0643 45.9439 37.9809 46.3079 37.8067C46.6718 37.6326 46.9882 37.373 47.23 37.05C47.7921 36.2138 48.0627 35.2156 48 34.21C48.0569 33.213 47.7827 32.2251 47.22 31.4C46.9724 31.0803 46.6548 30.8215 46.2917 30.6434C45.9285 30.4654 45.5295 30.3728 45.125 30.3728C44.7206 30.3728 44.3215 30.4654 43.9584 30.6434C43.5953 30.8215 43.2777 31.0803 43.03 31.4C42.4674 32.2251 42.1932 33.213 42.25 34.21C42.1925 35.1966 42.4556 36.1753 43 37C43.2417 37.3387 43.5639 37.612 43.9374 37.7952C44.311 37.9785 44.7242 38.0661 45.14 38.05Z" fill="#00CDFF"/>
<path d="M54.34 31.4899C54.7856 30.7339 55.4064 30.096 56.15 29.6299C56.728 29.2488 57.3983 29.0312 58.09 28.9999C58.5164 29.0095 58.9358 29.1099 59.3204 29.2944C59.7049 29.4789 60.0457 29.7433 60.32 30.0699C61.0519 30.9841 61.4093 32.1422 61.32 33.3099C61.3392 34.3704 61.1133 35.421 60.66 36.3799C60.2622 37.2269 59.6568 37.9596 58.9 38.5099C58.1023 39.051 57.1532 39.3241 56.1899 39.2899C55.7152 39.2807 55.2413 39.2473 54.77 39.1899H54.3499H52.7V24.8799H54.34V31.4899ZM54.34 33.4899V37.7299C54.8751 37.8738 55.4259 37.951 55.9799 37.9599C56.4608 37.9661 56.9369 37.8642 57.3731 37.6616C57.8093 37.4591 58.1944 37.1612 58.5 36.7899C59.2143 35.878 59.57 34.7361 59.5 33.5799C59.5822 32.7923 59.4067 31.9993 59 31.3199C58.8668 31.1018 58.6825 30.9195 58.4629 30.7887C58.2433 30.658 57.9952 30.5829 57.74 30.5699C57.1026 30.6239 56.5045 30.8999 56.0499 31.3499C55.3556 31.9387 54.7759 32.6507 54.34 33.4499V33.4899Z" fill="#00CDFF"/>
<path d="M68.49 39.4202C67.8498 39.4456 67.2122 39.3257 66.6251 39.0694C66.0379 38.813 65.5165 38.427 65.1 37.9402C64.2314 36.8959 63.7791 35.5676 63.83 34.2102C63.7762 32.8524 64.2288 31.5231 65.1 30.4802C65.5325 30.0131 66.0569 29.6404 66.6403 29.3855C67.2236 29.1306 67.8534 28.999 68.49 28.999C69.1266 28.999 69.7563 29.1306 70.3397 29.3855C70.9231 29.6404 71.4475 30.0131 71.88 30.4802C72.7469 31.5254 73.199 32.8531 73.15 34.2102C73.1952 35.5667 72.7436 36.8931 71.88 37.9402C71.4634 38.427 70.942 38.813 70.3549 39.0694C69.7677 39.3257 69.1301 39.4456 68.49 39.4202ZM68.49 38.0502C68.8947 38.0653 69.2971 37.9823 69.6628 37.8081C70.0285 37.634 70.3466 37.3739 70.59 37.0502C71.1431 36.2174 71.4131 35.2285 71.36 34.2302C71.4146 33.2348 71.1443 32.2487 70.59 31.4202C70.3413 31.1003 70.0228 30.8415 69.6589 30.6635C69.2949 30.4854 68.8951 30.3929 68.49 30.3929C68.0848 30.3929 67.685 30.4854 67.3211 30.6635C66.9571 30.8415 66.6387 31.1003 66.39 31.4202C65.8356 32.2487 65.5654 33.2348 65.62 34.2302C65.5776 35.2117 65.8471 36.1814 66.39 37.0002C66.6279 37.3331 66.9436 37.6029 67.3096 37.7859C67.6757 37.9689 68.0809 38.0596 68.49 38.0502Z" fill="#00CDFF"/>
<path d="M37.93 57.8699C36.9169 58.2232 35.8529 58.409 34.78 58.4199C33.8548 58.435 32.9428 58.2001 32.14 57.7399C31.3837 57.2962 30.7644 56.6527 30.35 55.8799C29.9049 55.0652 29.6809 54.1481 29.7 53.2199C29.6796 52.5319 29.7984 51.8469 30.0493 51.2059C30.3002 50.5649 30.678 49.9813 31.16 49.4899C31.6138 49.0115 32.1617 48.6322 32.7692 48.3757C33.3767 48.1193 34.0307 47.9914 34.69 47.9999C35.7936 48.0142 36.8877 48.2067 37.93 48.5699V50.1599C36.9685 49.6781 35.9147 49.4087 34.84 49.3699C34.2469 49.3686 33.6639 49.5238 33.15 49.8199C32.5993 50.1366 32.1673 50.6247 31.92 51.2099C31.6339 51.8169 31.4837 52.4789 31.48 53.1499C31.4888 54.0665 31.7824 54.9576 32.32 55.6999C32.6198 56.1056 33.017 56.4292 33.4749 56.6407C33.9329 56.8521 34.4368 56.9448 34.94 56.9099C35.2945 56.9118 35.6488 56.8884 36 56.8399C36.6565 56.7019 37.3016 56.5147 37.93 56.2799V57.8699Z" fill="#FF0000"/>
<path d="M44.8899 58.42C44.2498 58.4454 43.6122 58.3255 43.025 58.0692C42.4379 57.8128 41.9164 57.4268 41.4999 56.94C40.676 55.8711 40.2292 54.5595 40.2292 53.21C40.2292 51.8605 40.676 50.5489 41.4999 49.48C41.9315 49.0131 42.4551 48.6406 43.0376 48.3858C43.6201 48.131 44.2491 47.9995 44.8849 47.9995C45.5207 47.9995 46.1497 48.131 46.7322 48.3858C47.3147 48.6406 47.8383 49.0131 48.2699 49.48C49.1003 50.5461 49.5512 51.8587 49.5512 53.21C49.5512 54.5613 49.1003 55.8739 48.2699 56.94C47.8559 57.4271 47.3363 57.8136 46.7507 58.07C46.165 58.3264 45.5287 58.4461 44.8899 58.42ZM44.8899 57.05C45.3011 57.0637 45.7093 56.975 46.0776 56.7917C46.446 56.6084 46.7629 56.3363 46.9999 56C47.5612 55.1706 47.8352 54.18 47.7799 53.18C47.8301 52.1931 47.5562 51.2168 46.9999 50.4C46.7605 50.0745 46.4445 49.813 46.08 49.6385C45.7155 49.4641 45.3136 49.3822 44.9099 49.4C44.5049 49.3832 44.1019 49.4655 43.736 49.6397C43.37 49.814 43.0521 50.075 42.8099 50.4C42.2367 51.2214 41.9518 52.2095 41.9999 53.21C41.9541 54.201 42.2314 55.1801 42.7899 56C43.0278 56.3329 43.3436 56.6027 43.7096 56.7857C44.0756 56.9687 44.4808 57.0594 44.8899 57.05Z" fill="#FF0000"/>
<path d="M59.0501 55.9299C58.6072 56.6881 57.9859 57.3266 57.2401 57.7899C56.6434 58.1785 55.9518 58.3964 55.2401 58.4199C54.8145 58.4135 54.3955 58.3144 54.0121 58.1296C53.6287 57.9449 53.2902 57.6788 53.0201 57.3499C52.2881 56.4357 51.9307 55.2776 52.0201 54.1099C52.0142 53.0324 52.2572 51.9681 52.7301 50.9999C53.1332 50.1563 53.7376 49.4248 54.4901 48.8699C55.2917 48.3293 56.2438 48.0563 57.2101 48.0899C57.6815 48.0989 58.1521 48.1323 58.6201 48.1899H59.0501V43.8799H60.6901V58.1499H59.0501V55.9299ZM59.0501 53.9299V49.7299C58.5184 49.586 57.9708 49.5087 57.4201 49.4999C56.9353 49.4933 56.4552 49.596 56.0155 49.8003C55.5758 50.0045 55.1877 50.3052 54.8801 50.6799C54.1655 51.5878 53.8096 52.7267 53.8801 53.8799C53.825 54.6593 54.0175 55.4363 54.4301 56.0999C54.5632 56.318 54.7476 56.5003 54.9671 56.631C55.1867 56.7617 55.4349 56.8368 55.6901 56.8499C56.33 56.7948 56.931 56.5191 57.3901 56.0699C58.0636 55.4855 58.626 54.7843 59.0501 53.9999V53.9299Z" fill="#FF0000"/>
<path d="M66.3799 58.1499V49.6399H63.6399V48.2699H67.9999V56.7799H70.7499V58.1499H66.3799ZM66.1199 44.7099C66.1075 44.5507 66.1359 44.3909 66.2024 44.2457C66.2689 44.1005 66.3713 43.9746 66.4999 43.8799C66.6973 43.7056 66.9515 43.6094 67.2149 43.6094C67.4782 43.6094 67.7325 43.7056 67.9299 43.8799C68.0484 43.9823 68.1435 44.1089 68.2086 44.2513C68.2738 44.3936 68.3075 44.5484 68.3075 44.7049C68.3075 44.8615 68.2738 45.0162 68.2086 45.1586C68.1435 45.301 68.0484 45.4276 67.9299 45.5299C67.7325 45.7043 67.4782 45.8005 67.2149 45.8005C66.9515 45.8005 66.6973 45.7043 66.4999 45.5299C66.3728 45.4362 66.2713 45.3119 66.2049 45.1686C66.1385 45.0253 66.1092 44.8675 66.1199 44.7099Z" fill="#FF0000"/>
<path d="M74.26 58.1502V48.2702H75.9V50.4302C76.3311 49.7175 76.9151 49.1095 77.61 48.6502C78.1968 48.2387 78.8934 48.0123 79.61 48.0002C80.1737 47.994 80.7267 48.154 81.2 48.4602C81.6577 48.7466 82.009 49.1751 82.2 49.6802C82.4511 50.6592 82.5489 51.6712 82.49 52.6802V58.2002H80.85V52.4302C80.8771 51.8002 80.8301 51.1692 80.71 50.5502C80.6219 50.2559 80.4477 49.9947 80.21 49.8002C79.983 49.6172 79.7015 49.5151 79.41 49.5102C78.7116 49.5629 78.052 49.8522 77.54 50.3302C76.8653 50.9043 76.3083 51.6039 75.9 52.3902V58.1502H74.26Z" fill="#FF0000"/>
<path d="M92.4801 55.9302C92.0429 56.6927 91.4203 57.3324 90.6701 57.7902C90.092 58.1712 89.4217 58.3889 88.7301 58.4202C88.3037 58.4106 87.8842 58.3102 87.4996 58.1257C87.1151 57.9412 86.7743 57.6768 86.5001 57.3502C85.7681 56.436 85.4107 55.2779 85.5001 54.1102C85.4777 53.0354 85.7072 51.9704 86.1701 51.0002C86.5696 50.1572 87.1707 49.4257 87.9201 48.8702C88.7217 48.3296 89.6738 48.0566 90.6401 48.0902C91.1115 48.0992 91.5821 48.1326 92.0501 48.1902H92.4701H94.1201V55.1902C94.1201 56.8502 94.1201 57.8602 94.0601 58.1902C94.0182 58.5682 93.948 58.9426 93.8501 59.3102C93.7323 59.746 93.5293 60.1541 93.253 60.5111C92.9767 60.8681 92.6324 61.1669 92.24 61.3902C91.3273 61.9105 90.2904 62.1732 89.2401 62.1502C87.9716 62.1313 86.7251 61.8163 85.6001 61.2302V59.6802C86.1349 60.033 86.713 60.3153 87.3201 60.5202C87.9592 60.7622 88.6366 60.8875 89.3201 60.8902C89.8038 60.8935 90.2843 60.8123 90.74 60.6502C91.1261 60.516 91.4754 60.2934 91.7601 60.0002C92.0373 59.7051 92.2337 59.3434 92.3301 58.9502C92.4426 58.4313 92.4929 57.9009 92.4801 57.3702V55.9302ZM92.4801 53.9302V49.7302C91.9485 49.5857 91.4009 49.5084 90.8501 49.5002C90.3655 49.4951 89.8859 49.5984 89.4464 49.8025C89.0069 50.0067 88.6187 50.3066 88.31 50.6802C87.5997 51.5903 87.2443 52.7275 87.31 53.8802C87.255 54.6596 87.4475 55.4366 87.8601 56.1002C87.9941 56.3196 88.18 56.5028 88.4015 56.6336C88.6229 56.7644 88.8731 56.8387 89.13 56.8502C89.77 56.7951 90.371 56.5194 90.8301 56.0702C91.5003 55.4853 92.0593 54.784 92.4801 54.0002V53.9302Z" fill="#FF0000"/>
</svg>
