<svg width="73" height="73" viewBox="0 0 73 73" fill="none" xmlns="http://www.w3.org/2000/svg">
<path d="M39.1816 70.025C69.5241 72.9159 78.7005 38.0155 56.6706 35.9166C44.4694 34.7541 38.9179 28.3831 34.1162 16.8771L34.0533 16.7264C30.6927 8.67186 24.5853 -5.96612 11.8051 8.71044C-3.74097 26.5632 1.48653 66.4335 39.1816 70.025Z" fill="#A8EBFC" fill-opacity="0.37"/>
<path d="M50.1126 33.2902C50.2601 33.7072 50.5502 34.0587 50.9317 34.2824C51.3132 34.5062 51.7615 34.588 52.1975 34.5132C52.6334 34.4384 53.0289 34.2119 53.3139 33.8737C53.599 33.5355 53.7554 33.1075 53.7554 32.6652C53.7554 32.2229 53.599 31.7948 53.3139 31.4566C53.0289 31.1185 52.6334 30.892 52.1975 30.8172C51.7615 30.7424 51.3132 30.8241 50.9317 31.0479C50.5502 31.2717 50.2601 31.6232 50.1126 32.0402H48.7501V28.2902H50.1126C50.2601 28.7072 50.5502 29.0587 50.9317 29.2824C51.3132 29.5062 51.7615 29.588 52.1975 29.5132C52.6334 29.4384 53.0289 29.2119 53.3139 28.8737C53.599 28.5355 53.7554 28.1075 53.7554 27.6652C53.7554 27.2229 53.599 26.7948 53.3139 26.4566C53.0289 26.1185 52.6334 25.892 52.1975 25.8172C51.7615 25.7424 51.3132 25.8241 50.9317 26.0479C50.5502 26.2717 50.2601 26.6232 50.1126 27.0402H48.7501V23.9152C48.7501 23.7494 48.6843 23.5904 48.5671 23.4732C48.4499 23.356 48.2909 23.2902 48.1251 23.2902H44.3751V22.4902L45.8251 22.0089C45.9485 21.9659 46.0556 21.8857 46.1317 21.7794C46.2078 21.6731 46.2492 21.5459 46.2501 21.4152V20.6777C46.6671 20.5302 47.0186 20.2401 47.2424 19.8586C47.4662 19.4771 47.5479 19.0288 47.4731 18.5928C47.3983 18.1569 47.1718 17.7615 46.8337 17.4764C46.4955 17.1913 46.0674 17.0349 45.6251 17.0349C45.1828 17.0349 44.7548 17.1913 44.4166 17.4764C44.0784 17.7615 43.8519 18.1569 43.7771 18.5928C43.7023 19.0288 43.7841 19.4771 44.0079 19.8586C44.2317 20.2401 44.5831 20.5302 45.0001 20.6777V20.9652L43.5501 21.4464C43.4267 21.4895 43.3196 21.5697 43.2435 21.6759C43.1674 21.7822 43.1261 21.9095 43.1251 22.0402V23.2902H40.0001V20.6777C40.4171 20.5302 40.7686 20.2401 40.9924 19.8586C41.2162 19.4771 41.2979 19.0288 41.2231 18.5928C41.1483 18.1569 40.9218 17.7615 40.5837 17.4764C40.2455 17.1913 39.8174 17.0349 39.3751 17.0349C38.9328 17.0349 38.5048 17.1913 38.1666 17.4764C37.8284 17.7615 37.6019 18.1569 37.5271 18.5928C37.4523 19.0288 37.5341 19.4771 37.7579 19.8586C37.9817 20.2401 38.3331 20.5302 38.7501 20.6777V23.2902H35.6251V22.0402C35.6242 21.9095 35.5828 21.7822 35.5067 21.6759C35.4306 21.5697 35.3235 21.4895 35.2001 21.4464L33.7501 20.9652V20.6777C34.1671 20.5302 34.5186 20.2401 34.7424 19.8586C34.9662 19.4771 35.0479 19.0288 34.9731 18.5928C34.8983 18.1569 34.6718 17.7615 34.3337 17.4764C33.9955 17.1913 33.5674 17.0349 33.1251 17.0349C32.6828 17.0349 32.2548 17.1913 31.9166 17.4764C31.5784 17.7615 31.3519 18.1569 31.2771 18.5928C31.2023 19.0288 31.2841 19.4771 31.5079 19.8586C31.7317 20.2401 32.0831 20.5302 32.5001 20.6777V21.4152C32.5011 21.5459 32.5424 21.6731 32.6185 21.7794C32.6946 21.8857 32.8017 21.9659 32.9251 22.0089L34.3751 22.4902V23.2902H30.6251C30.4594 23.2902 30.3004 23.356 30.1832 23.4732C30.066 23.5904 30.0001 23.7494 30.0001 23.9152V30.1652H29.3751V20.7902C29.3751 20.6244 29.3093 20.4654 29.1921 20.3482C29.0749 20.231 28.9159 20.1652 28.7501 20.1652C26.4302 20.1677 24.2061 21.0903 22.5657 22.7307C20.9253 24.3711 20.0026 26.5953 20.0001 28.9152V33.0339L16.4314 36.5964C16.3162 36.7156 16.2514 36.8745 16.2501 37.0402V38.9152C16.2501 39.0809 16.316 39.2399 16.4332 39.3571C16.5504 39.4743 16.7094 39.5402 16.8751 39.5402H20.0001V49.5402C20.0001 49.7059 20.066 49.8649 20.1832 49.9821C20.3004 50.0993 20.4594 50.1652 20.6251 50.1652H24.3751C24.5101 50.1639 24.6413 50.1202 24.7501 50.0402L26.2501 48.9214V53.9152C26.2501 54.0809 26.316 54.2399 26.4332 54.3571C26.5504 54.4743 26.7094 54.5402 26.8751 54.5402H30.0001C30.097 54.5395 30.1925 54.5166 30.2792 54.4733C30.3659 54.4299 30.4414 54.3673 30.5001 54.2902L36.1251 46.7902C36.2069 46.6823 36.2509 46.5505 36.2501 46.4152V42.0402H38.1251V53.9152C38.1251 54.0809 38.191 54.2399 38.3082 54.3571C38.4254 54.4743 38.5844 54.5402 38.7501 54.5402H53.7501V53.2902H39.3751V42.0402H40.6251V51.4152C40.6251 51.5809 40.691 51.7399 40.8082 51.8571C40.9254 51.9743 41.0844 52.0402 41.2501 52.0402H50.6251V50.7902H41.8751V42.0402H43.1251V48.9152C43.1251 49.0809 43.191 49.2399 43.3082 49.3571C43.4254 49.4743 43.5844 49.5402 43.7501 49.5402H53.7501V48.2902H44.3751V42.0402H45.6251V46.4152C45.6251 46.5809 45.691 46.7399 45.8082 46.8571C45.9254 46.9743 46.0844 47.0402 46.2501 47.0402H50.6251V45.7902H46.8751V42.0402H48.1251C48.2909 42.0402 48.4499 41.9743 48.5671 41.8571C48.6843 41.7399 48.7501 41.5809 48.7501 41.4152V38.2902H50.1126C50.2601 38.7072 50.5502 39.0587 50.9317 39.2824C51.3132 39.5062 51.7615 39.588 52.1975 39.5132C52.6334 39.4384 53.0289 39.2119 53.3139 38.8737C53.599 38.5355 53.7554 38.1075 53.7554 37.6652C53.7554 37.2229 53.599 36.7948 53.3139 36.4566C53.0289 36.1185 52.6334 35.892 52.1975 35.8172C51.7615 35.7424 51.3132 35.8241 50.9317 36.0479C50.5502 36.2717 50.2601 36.6232 50.1126 37.0402H48.7501V33.2902H50.1126ZM51.8751 32.0402C51.9987 32.0402 52.1196 32.0768 52.2224 32.1455C52.3251 32.2142 52.4052 32.3118 52.4525 32.426C52.4999 32.5402 52.5122 32.6659 52.4881 32.7871C52.464 32.9083 52.4045 33.0197 52.3171 33.1071C52.2297 33.1945 52.1183 33.2541 51.9971 33.2782C51.8758 33.3023 51.7501 33.2899 51.6359 33.2426C51.5217 33.1953 51.4241 33.1152 51.3555 33.0124C51.2868 32.9096 51.2501 32.7888 51.2501 32.6652C51.2501 32.4994 51.316 32.3404 51.4332 32.2232C51.5504 32.106 51.7094 32.0402 51.8751 32.0402ZM51.8751 27.0402C51.9987 27.0402 52.1196 27.0768 52.2224 27.1455C52.3251 27.2142 52.4052 27.3118 52.4525 27.426C52.4999 27.5402 52.5122 27.6659 52.4881 27.7871C52.464 27.9083 52.4045 28.0197 52.3171 28.1071C52.2297 28.1945 52.1183 28.2541 51.9971 28.2782C51.8758 28.3023 51.7501 28.2899 51.6359 28.2426C51.5217 28.1953 51.4241 28.1152 51.3555 28.0124C51.2868 27.9096 51.2501 27.7888 51.2501 27.6652C51.2501 27.4994 51.316 27.3404 51.4332 27.2232C51.5504 27.106 51.7094 27.0402 51.8751 27.0402ZM45.6251 18.2902C45.7487 18.2902 45.8696 18.3268 45.9724 18.3955C46.0751 18.4642 46.1552 18.5618 46.2025 18.676C46.2499 18.7902 46.2622 18.9159 46.2381 19.0371C46.214 19.1583 46.1545 19.2697 46.0671 19.3571C45.9797 19.4445 45.8683 19.5041 45.7471 19.5282C45.6258 19.5523 45.5001 19.5399 45.3859 19.4926C45.2717 19.4453 45.1741 19.3652 45.1055 19.2624C45.0368 19.1596 45.0001 19.0388 45.0001 18.9152C45.0001 18.7494 45.066 18.5904 45.1832 18.4732C45.3004 18.356 45.4594 18.2902 45.6251 18.2902ZM33.1251 19.5402C33.0015 19.5402 32.8807 19.5035 32.7779 19.4348C32.6751 19.3662 32.595 19.2686 32.5477 19.1544C32.5004 19.0402 32.488 18.9145 32.5121 18.7932C32.5362 18.672 32.5958 18.5606 32.6832 18.4732C32.7706 18.3858 32.882 18.3263 33.0032 18.3022C33.1244 18.2781 33.2501 18.2904 33.3643 18.3378C33.4785 18.3851 33.5761 18.4652 33.6448 18.5679C33.7135 18.6707 33.7501 18.7916 33.7501 18.9152C33.7501 19.0809 33.6843 19.2399 33.5671 19.3571C33.4499 19.4743 33.2909 19.5402 33.1251 19.5402ZM39.3751 18.2902C39.4987 18.2902 39.6196 18.3268 39.7224 18.3955C39.8251 18.4642 39.9052 18.5618 39.9525 18.676C39.9999 18.7902 40.0122 18.9159 39.9881 19.0371C39.964 19.1583 39.9045 19.2697 39.8171 19.3571C39.7297 19.4445 39.6183 19.5041 39.4971 19.5282C39.3758 19.5523 39.2501 19.5399 39.1359 19.4926C39.0217 19.4453 38.9241 19.3652 38.8555 19.2624C38.7868 19.1596 38.7501 19.0388 38.7501 18.9152C38.7501 18.7494 38.816 18.5904 38.9332 18.4732C39.0504 18.356 39.2094 18.2902 39.3751 18.2902ZM35.0001 46.2089L29.6876 53.2902H27.5001V47.9964L31.0001 45.3902C31.0777 45.332 31.1407 45.2565 31.1841 45.1697C31.2275 45.0829 31.2501 44.9872 31.2501 44.8902V42.0402H35.0001V46.2089ZM36.8751 40.7902H30.6251C30.4594 40.7902 30.3004 40.856 30.1832 40.9732C30.066 41.0904 30.0001 41.2494 30.0001 41.4152V44.5777L24.1689 48.9152H21.2501V38.9152C21.2501 38.7494 21.1843 38.5904 21.0671 38.4732C20.9499 38.356 20.7909 38.2902 20.6251 38.2902H17.5001V37.2964L21.0689 33.7339C21.184 33.6148 21.2489 33.4559 21.2501 33.2902V28.9152C21.2524 27.0348 21.96 25.2237 23.2329 23.8397C24.5058 22.4557 26.2515 21.5995 28.1251 21.4402V30.7902C28.1251 30.9559 28.191 31.1149 28.3082 31.2321C28.4254 31.3493 28.5844 31.4152 28.7501 31.4152H36.8751V40.7902ZM37.5001 30.1652H33.7501V27.0402H45.0001V38.2902H38.1251V30.7902C38.1251 30.6244 38.0593 30.4654 37.9421 30.3482C37.8249 30.231 37.6659 30.1652 37.5001 30.1652ZM47.5001 40.7902H38.1251V39.5402H45.6251C45.7909 39.5402 45.9499 39.4743 46.0671 39.3571C46.1843 39.2399 46.2501 39.0809 46.2501 38.9152V26.4152C46.2501 26.2494 46.1843 26.0904 46.0671 25.9732C45.9499 25.856 45.7909 25.7902 45.6251 25.7902H33.1251C32.9594 25.7902 32.8004 25.856 32.6832 25.9732C32.566 26.0904 32.5001 26.2494 32.5001 26.4152V30.1652H31.2501V24.5402H47.5001V40.7902ZM51.8751 37.0402C51.9987 37.0402 52.1196 37.0768 52.2224 37.1455C52.3251 37.2142 52.4052 37.3118 52.4525 37.426C52.4999 37.5402 52.5122 37.6659 52.4881 37.7871C52.464 37.9083 52.4045 38.0197 52.3171 38.1071C52.2297 38.1945 52.1183 38.2541 51.9971 38.2782C51.8758 38.3023 51.7501 38.2899 51.6359 38.2426C51.5217 38.1953 51.4241 38.1152 51.3555 38.0124C51.2868 37.9096 51.2501 37.7888 51.2501 37.6652C51.2501 37.4994 51.316 37.3404 51.4332 37.2232C51.5504 37.106 51.7094 37.0402 51.8751 37.0402Z" fill="black"/>
</svg>
