<svg width="91" height="90" viewBox="0 0 91 90" fill="none" xmlns="http://www.w3.org/2000/svg">
<path d="M66.3586 70.8033C93.1021 56.1811 81.1279 22.139 61.711 32.7553C50.957 38.6352 42.7878 36.4734 32.3598 29.6397L32.2232 29.5502C24.9239 24.766 11.6584 16.0713 9.30734 35.3899C6.44752 58.8893 33.1345 88.9687 66.3586 70.8033Z" fill="#A8EBFC" fill-opacity="0.37"/>
<g clip-path="url(#clip0)">
<path d="M61.8295 28.0298H58.495C58.1714 28.0298 57.9091 28.2921 57.9091 28.6157C57.9091 28.9394 58.1714 29.2017 58.495 29.2017H61.8295C63.483 29.2017 64.8281 30.5503 64.8281 32.208V54.5862C64.8281 56.2439 63.4829 57.5925 61.8295 57.5925H30.1705C28.517 57.5927 27.1719 56.244 27.1719 54.5863V50.4382C27.1719 50.1146 26.9095 49.8523 26.5859 49.8523C26.2623 49.8523 26 50.1146 26 50.4382V54.5863C26 56.8902 27.8709 58.7645 30.1705 58.7645H42.0661L40.8863 62.6174H38.2877C37.9641 62.6174 37.7017 62.8797 37.7017 63.2034C37.7017 63.5271 37.9641 63.7893 38.2877 63.7893H53.7122C54.0358 63.7893 54.2981 63.5271 54.2981 63.2034C54.2981 62.8797 54.0358 62.6174 53.7122 62.6174H51.1136L49.9338 58.7646H61.8293C64.129 58.7646 65.9998 56.8903 65.9998 54.5864V32.2081C66 29.9042 64.1291 28.0298 61.8295 28.0298ZM42.1119 62.6174L43.2917 58.7646H48.7084L49.8881 62.6174H42.1119Z" fill="black"/>
<path d="M26.5859 48.2987C26.9095 48.2987 27.1719 48.0364 27.1719 47.7128V32.208C27.1719 30.5503 28.517 29.2017 30.1705 29.2017H31.872C32.1956 29.2017 32.458 28.9394 32.458 28.6157C32.458 28.2921 32.1956 28.0298 31.872 28.0298H30.1705C27.8709 28.0297 26 29.9041 26 32.208V47.7128C26 48.0363 26.2623 48.2987 26.5859 48.2987Z" fill="black"/>
<path d="M63.6622 32.1109C63.6622 31.0879 62.8311 30.2556 61.8095 30.2556H59.7241C59.4005 30.2556 59.1382 30.5179 59.1382 30.8416C59.1382 31.1652 59.4005 31.4275 59.7241 31.4275H61.8095C62.1849 31.4275 62.4903 31.7341 62.4903 32.1109V43.6002C62.4903 43.9239 62.7526 44.1862 63.0762 44.1862C63.3998 44.1862 63.6622 43.9239 63.6622 43.6002V32.1109Z" fill="black"/>
<path d="M63.6621 52.2626V46.3587C63.6621 46.0351 63.3998 45.7728 63.0762 45.7728C62.7526 45.7728 62.4903 46.0351 62.4903 46.3587V52.2626C62.4903 52.6395 62.1849 52.9462 61.8095 52.9462H30.1904C29.815 52.9462 29.5096 52.6395 29.5096 52.2626V32.1109C29.5096 31.7341 29.815 31.4275 30.1904 31.4275H31.2939C31.6175 31.4275 31.8799 31.1652 31.8799 30.8416C31.8799 30.5179 31.6175 30.2556 31.2939 30.2556H30.1904C29.1689 30.2556 28.3378 31.0879 28.3378 32.1109V52.2626C28.3378 53.2858 29.1689 54.118 30.1904 54.118H61.8095C62.831 54.118 63.6621 53.2858 63.6621 52.2626Z" fill="black"/>
<path d="M31.0043 55.2717C30.6807 55.2717 30.4183 55.534 30.4183 55.8577C30.4183 56.1813 30.6807 56.4436 31.0043 56.4436H33.3979C33.7215 56.4436 33.9839 56.1813 33.9839 55.8577C33.9839 55.534 33.7215 55.2717 33.3979 55.2717H31.0043Z" fill="black"/>
<path d="M35.6918 55.2717C35.3682 55.2717 35.1058 55.534 35.1058 55.8577C35.1058 56.1813 35.3682 56.4436 35.6918 56.4436H38.0854C38.409 56.4436 38.6714 56.1813 38.6714 55.8577C38.6714 55.534 38.409 55.2717 38.0854 55.2717H35.6918Z" fill="black"/>
<path d="M46.0338 50.6522C48.414 50.6522 50.7529 50.0223 52.7977 48.8305C54.7816 47.6742 56.4477 46.0186 57.6159 44.0427C57.7806 43.7641 57.6883 43.4048 57.4098 43.2401C57.1311 43.0755 56.7719 43.1677 56.6072 43.4463C55.8922 44.6556 54.9729 45.7336 53.8989 46.6309C53.4171 46.4141 52.917 46.2188 52.4009 46.0456C53.651 43.7508 54.3683 40.8689 54.4495 37.8069H58.2909C58.2369 38.955 58.0241 40.0818 57.6562 41.1645C57.552 41.4709 57.716 41.8038 58.0224 41.9079C58.0849 41.9291 58.1484 41.9391 58.211 41.9391C58.455 41.9391 58.6828 41.7855 58.7657 41.5416C59.2374 40.1536 59.4766 38.6999 59.4766 37.2209C59.4765 29.8146 53.4461 23.7893 46.0338 23.7893C43.8906 23.7893 41.8421 24.2784 39.945 25.2429C38.2766 26.0912 36.7819 27.2999 35.5969 28.7552C35.4119 28.6969 35.2151 28.6655 35.011 28.6655C33.9337 28.6655 33.0573 29.5414 33.0573 30.6181C33.0573 31.1617 33.2808 31.6542 33.6407 32.0085C32.9439 33.658 32.5909 35.4091 32.5909 37.2207C32.5909 44.6269 38.6213 50.6522 46.0338 50.6522ZM33.7767 37.8067H37.618C37.6992 40.8688 38.4165 43.7506 39.6666 46.0455C39.1524 46.2181 38.6541 46.4126 38.1739 46.6284C35.6197 44.4949 33.9441 41.3446 33.7767 37.8067ZM39.2623 47.4403C39.5965 47.3078 39.9392 47.1858 40.2897 47.0745C40.6882 47.6667 41.1174 48.1902 41.5719 48.6415C40.7561 48.3223 39.9827 47.9183 39.2623 47.4403ZM45.4478 49.4401C43.9998 49.2409 42.6277 48.3059 41.4877 46.7425C42.7399 46.444 44.0713 46.2722 45.4478 46.2342V49.4401ZM45.4478 45.062C43.8333 45.1042 42.2734 45.3212 40.8171 45.7027C39.5838 43.5445 38.873 40.7733 38.7903 37.8067H45.4479V39.4132C44.6559 39.6625 44.08 40.4034 44.08 41.2761C44.08 42.1488 44.6559 42.8896 45.4479 43.1389V45.062H45.4478ZM46.6197 49.4401V46.2342C47.9962 46.2722 49.3276 46.444 50.5798 46.7425C49.4397 48.3059 48.0677 49.2409 46.6197 49.4401ZM52.8107 47.4425C52.6135 47.5734 52.4124 47.6986 52.2076 47.818C51.6572 48.1388 51.0834 48.4149 50.4922 48.6449C50.9479 48.1928 51.3783 47.6681 51.7777 47.0744C52.1302 47.1864 52.4748 47.3092 52.8107 47.4425ZM53.4726 33.8452C53.0414 33.8452 52.6907 33.495 52.6907 33.0645C52.6907 32.6341 53.0415 32.2838 53.4726 32.2838C53.9037 32.2838 54.2545 32.6341 54.2545 33.0645C54.2545 33.495 53.9037 33.8452 53.4726 33.8452ZM58.2907 36.6349H54.4494C54.433 36.0252 54.3912 35.4185 54.3245 34.8216C54.9762 34.5047 55.4264 33.8362 55.4264 33.0645C55.4264 32.0126 54.5898 31.1523 53.5465 31.1134C53.2345 30.132 52.8494 29.2201 52.4012 28.396C52.9152 28.2234 53.4135 28.029 53.8936 27.8132C56.4477 29.9467 58.1233 33.0969 58.2907 36.6349ZM52.8051 27.0012C52.4709 27.1337 52.1283 27.2556 51.7778 27.367C51.4466 26.8759 51.0897 26.4264 50.7098 26.0239C50.6367 25.9464 50.5629 25.8709 50.4884 25.7972C51.3069 26.1168 52.0827 26.5218 52.8051 27.0012ZM46.6197 25.0024C48.0758 25.2076 49.4541 26.1699 50.5765 27.6998C49.3252 27.9978 47.9949 28.1693 46.6197 28.2073V25.0024ZM46.6197 29.3795C48.2338 29.3373 49.7933 29.1204 51.2493 28.7392C51.703 29.5325 52.0971 30.4329 52.4152 31.4232C51.8762 31.7712 51.5188 32.3769 51.5188 33.0645C51.5188 34.0363 52.233 34.8446 53.1644 34.9927C53.2238 35.5335 53.2615 36.0827 53.2771 36.6348H46.6197V29.3795ZM46.6197 37.8067H53.2772C53.1944 40.7732 52.4837 43.5444 51.2504 45.7027C49.7941 45.3213 48.2342 45.1042 46.6197 45.062V43.1389C47.4116 42.8896 47.9875 42.1488 47.9875 41.2761C47.9875 40.4034 47.4116 39.6626 46.6197 39.4132V37.8067ZM46.0338 40.4954C46.4649 40.4954 46.8156 40.8456 46.8156 41.2761C46.8156 41.7066 46.4648 42.0567 46.0338 42.0567C45.6026 42.0567 45.2518 41.7066 45.2518 41.2761C45.2518 40.8456 45.6026 40.4954 46.0338 40.4954ZM45.4478 25.0017V28.2073C44.0692 28.1692 42.7359 27.997 41.482 27.6977C42.6017 26.1649 43.9794 25.2048 45.4478 25.0017ZM40.4761 26.2876C40.843 26.101 41.2162 25.934 41.5952 25.7865C41.1295 26.2439 40.6927 26.7732 40.291 27.3675C39.9384 27.2556 39.5937 27.1327 39.2577 26.9994C39.6501 26.7386 40.057 26.5006 40.4761 26.2876ZM35.0109 29.8374C35.4421 29.8374 35.7929 30.1876 35.7929 30.6181C35.7929 31.0485 35.4421 31.3988 35.0109 31.3988C34.5798 31.3988 34.2291 31.0485 34.2291 30.6181C34.2291 30.1876 34.5798 29.8374 35.0109 29.8374ZM34.687 32.5438C34.7924 32.5615 34.9006 32.5707 35.0109 32.5707C36.0883 32.5707 36.9648 31.6948 36.9648 30.6181C36.9648 30.171 36.8136 29.7586 36.5597 29.4291C37.0446 28.842 37.5849 28.2997 38.1697 27.8113C38.6512 28.028 39.151 28.2231 39.6666 28.3962C39.0954 29.4448 38.6215 30.6463 38.271 31.9731C38.1884 32.2859 38.3751 32.6065 38.6879 32.6891C38.738 32.7024 38.7884 32.7088 38.8379 32.7088C39.0974 32.7088 39.3346 32.535 39.4041 32.2723C39.7555 30.9413 40.2355 29.7514 40.812 28.7377C42.2698 29.1199 43.8313 29.3374 45.4477 29.3796V36.6349H38.7902C38.8075 36.0262 38.8515 35.4206 38.9216 34.8276C38.9597 34.5063 38.7301 34.2149 38.4087 34.1768C38.088 34.1396 37.796 34.3685 37.7579 34.6898C37.6823 35.3281 37.6354 35.9801 37.6179 36.6349H33.7763C33.8422 35.2181 34.1476 33.8464 34.687 32.5438Z" fill="black"/>
<path d="M34.5251 47.1243H32.014C31.6904 47.1243 31.4281 47.3865 31.4281 47.7102C31.4281 48.0339 31.6904 48.2961 32.014 48.2961H34.5251C34.8486 48.2961 35.111 48.0339 35.111 47.7102C35.111 47.3865 34.8486 47.1243 34.5251 47.1243Z" fill="black"/>
<path d="M31.4281 50.4446C31.4281 50.7683 31.6904 51.0305 32.014 51.0305H36.0851C36.4087 51.0305 36.6711 50.7683 36.6711 50.4446C36.6711 50.1209 36.4087 49.8586 36.0851 49.8586H32.014C31.6904 49.8586 31.4281 50.1209 31.4281 50.4446Z" fill="black"/>
</g>
<defs>
<clipPath id="clip0">
<rect width="40" height="40" fill="white" transform="translate(26 23.7893)"/>
</clipPath>
</defs>
</svg>
