<svg width="71" height="71" viewBox="0 0 71 71" fill="none" xmlns="http://www.w3.org/2000/svg">
<path d="M43.5191 68.1544C73.9298 66.1023 77.3437 30.1776 55.2642 31.6675C43.0356 32.4926 36.5272 27.1028 29.9287 16.5244L29.8423 16.3859C25.2238 8.98049 16.8305 -4.47768 6.59086 12.0718C-5.86476 32.2029 5.73917 70.7037 43.5191 68.1544Z" fill="#A8EBFC" fill-opacity="0.37"/>
<g clip-path="url(#clip0)">
<path d="M16.1742 31.006C16.1742 30.7675 16.1858 30.5268 16.2088 30.2907L15.0401 30.177C15.0135 30.4508 15 30.7298 15 31.0061C15 34.3625 16.9814 37.3998 20.0481 38.7438L20.5194 37.6684C17.8798 36.5115 16.1742 33.8964 16.1742 31.006Z" fill="black"/>
<path d="M23.3032 23.7403L23.7197 23.734L23.8513 23.3387C25.3199 18.9274 29.4231 15.9635 34.0614 15.9635C37.1127 15.9635 40.0331 17.2719 42.0739 19.5533L42.3094 19.8166C42.8327 19.676 43.3851 19.5694 43.9244 19.576C45.3011 19.576 46.6045 20.1045 47.5946 21.0641L48.4118 20.221C47.2015 19.0479 45.6078 18.4018 43.9244 18.4018C43.5202 18.4018 43.1148 18.4403 42.7152 18.5165C40.4656 16.1435 37.3314 14.7893 34.0614 14.7893C29.053 14.7893 24.6073 17.9044 22.8727 22.5827C19.2491 22.8162 16.1506 25.3775 15.256 28.9353L16.3947 29.2216C17.1938 26.0441 20.0347 23.7901 23.3032 23.7403Z" fill="black"/>
<path d="M50.3804 24.7557C50.3566 23.4797 49.9645 22.2545 49.2428 21.2051L48.2754 21.8704C48.8852 22.7571 49.2074 23.7976 49.2074 24.8794C49.2074 25.0495 49.1887 25.3839 49.1824 25.5544L49.5853 25.7021C52.1216 26.6327 53.8258 29.0798 53.8258 31.7913C53.8258 34.5343 52.0955 36.9905 49.5201 37.9033L49.9124 39.0101C52.9555 37.9316 55 35.0306 55 31.7913C55 28.7306 53.1602 25.9549 50.3804 24.7557Z" fill="black"/>
<path d="M41.065 34.437L43.8047 32.4018H46.302C46.5678 33.5224 47.5762 34.3588 48.7769 34.3588C50.1797 34.3588 51.3209 33.2175 51.3209 31.8147C51.3209 30.412 50.1797 29.2707 48.7769 29.2707C47.5762 29.2707 46.5678 30.1071 46.302 31.2277H43.4164L40.6767 33.2629H38.7182V32.2291L41.6145 29.5677V26.8532C42.735 26.5874 43.5714 25.579 43.5714 24.3783C43.5714 22.9756 42.4302 21.8343 41.0274 21.8343C39.6246 21.8343 38.4834 22.9756 38.4834 24.3783C38.4834 25.579 39.3197 26.5874 40.4403 26.8532V29.052L37.544 31.7134V35.658C36.7934 35.7776 36.1175 36.1228 35.5871 36.6215V22.9394C36.7076 22.6735 37.544 21.6651 37.544 20.4644C37.544 19.0617 36.4028 17.9204 35 17.9204C33.5972 17.9204 32.456 19.0617 32.456 20.4644C32.456 21.6651 33.2924 22.6735 34.4129 22.9394V26.4326L30.5773 23.3162V20.9341H29.4031V23.875L34.4129 27.9455V36.6215C33.8825 36.1228 33.2066 35.7776 32.456 35.6579V28.6363L30.1179 26.7658H28.4729C28.2071 25.6453 27.1987 24.8089 25.998 24.8089C24.5953 24.8089 23.454 25.9502 23.454 27.3529C23.454 28.7556 24.5953 29.8969 25.998 29.8969C27.1987 29.8969 28.2071 29.0605 28.4729 27.94H29.706L31.2818 29.2006V33.2629H29.1598L26.7331 31.5408H23.4632C23.1973 30.4202 22.1889 29.5838 20.9882 29.5838C19.5855 29.5838 18.4442 30.7251 18.4442 32.1278C18.4442 33.5306 19.5855 34.6719 20.9882 34.6719C22.1889 34.6719 23.1973 33.8355 23.4632 32.7149H26.3589L28.7855 34.437H31.2818V35.6112H24.2368V37.9595H21.8884V53.2237H25.6066V52.0496H23.0626V39.1337H24.2368V50.8754H34.4129H35.5871H45.7632V39.1337H46.9374V44.526H48.1115V37.9595H45.7632V35.6112H38.7182V34.437H41.065ZM48.7769 30.4449C49.5322 30.4449 50.1468 31.0594 50.1468 31.8147C50.1468 32.57 49.5322 33.1846 48.7769 33.1846C48.0216 33.1846 47.407 32.57 47.407 31.8147C47.407 31.0594 48.0216 30.4449 48.7769 30.4449ZM39.6575 24.3783C39.6575 23.623 40.2721 23.0085 41.0274 23.0085C41.7827 23.0085 42.3972 23.623 42.3972 24.3783C42.3972 25.1336 41.7827 25.7482 41.0274 25.7482C40.2721 25.7482 39.6575 25.1336 39.6575 24.3783ZM25.998 28.7228C25.2427 28.7228 24.6282 28.1082 24.6282 27.3529C24.6282 26.5976 25.2427 25.983 25.998 25.983C26.7533 25.983 27.3679 26.5976 27.3679 27.3529C27.3679 28.1082 26.7533 28.7228 25.998 28.7228ZM20.9882 33.4977C20.2329 33.4977 19.6184 32.8832 19.6184 32.1278C19.6184 31.3725 20.2329 30.758 20.9882 30.758C21.7435 30.758 22.3581 31.3725 22.3581 32.1278C22.3581 32.8832 21.7435 33.4977 20.9882 33.4977ZM25.4109 49.7012V47.7443H31.8689C33.0696 47.7443 34.078 48.5807 34.3438 49.7012H25.4109ZM34.4129 47.5804C33.7472 46.9546 32.8524 46.5701 31.8689 46.5701H25.4109V36.7854H31.8689C33.2716 36.7854 34.4129 37.9267 34.4129 39.3294V47.5804ZM35 21.8343C34.2447 21.8343 33.6301 21.2197 33.6301 20.4644C33.6301 19.7091 34.2447 19.0946 35 19.0946C35.7553 19.0946 36.3698 19.7091 36.3698 20.4644C36.3698 21.2197 35.7553 21.8343 35 21.8343ZM44.589 49.7012H35.6562C35.922 48.5807 36.9304 47.7443 38.1311 47.7443H44.589V49.7012ZM44.589 36.7854V46.5701H38.1311C37.1476 46.5701 36.2527 46.9546 35.5871 47.5804V39.3294C35.5871 37.9267 36.7283 36.7854 38.1311 36.7854H44.589Z" fill="black"/>
<path d="M46.9373 52.0498H36.9855L36.7405 52.5396C36.4088 53.2031 35.7419 53.6153 34.9999 53.6153C34.2581 53.6153 33.5911 53.2031 33.2594 52.5396L33.0144 52.0498H26.7808V53.224H32.2944C32.8503 54.1941 33.871 54.7895 34.9999 54.7895C36.1289 54.7895 37.1497 54.1941 37.7054 53.224H48.1115V45.7004H46.9373V52.0498Z" fill="black"/>
<path d="M27.1722 39.6033H32.6517V40.7774H27.1722V39.6033Z" fill="black"/>
<path d="M27.1722 41.9519H29.5206V43.1261H27.1722V41.9519Z" fill="black"/>
<path d="M37.3484 39.6033H42.8278V40.7774H37.3484V39.6033Z" fill="black"/>
<path d="M37.3484 41.9519H39.6967V43.1261H37.3484V41.9519Z" fill="black"/>
<path d="M30.6947 41.9519H31.8697V43.1261H30.6947V41.9519Z" fill="black"/>
<path d="M40.9491 41.9519H42.1241V43.1261H40.9491V41.9519Z" fill="black"/>
<path d="M29.4031 18.5857H30.5781V19.7599H29.4031V18.5857Z" fill="black"/>
</g>
<defs>
<clipPath id="clip0">
<rect width="40" height="40" fill="white" transform="translate(15 14.7893)"/>
</clipPath>
</defs>
</svg>
