<svg width="139" height="54" viewBox="0 0 139 54" fill="none" xmlns="http://www.w3.org/2000/svg">
<g clip-path="url(#clip0)">
<path d="M10.0795 17.329V5.56192H12.0156V8.13449C12.5281 7.25523 13.2351 6.50906 14.0807 5.95495C14.8671 5.47658 15.7689 5.22919 16.6857 5.24035C17.3937 5.2421 18.0976 5.35047 18.7743 5.56192V9.80189H16.8969V7.12214C16.6455 7.0721 16.3903 7.0442 16.1342 7.03876C15.3488 7.06153 14.5965 7.36525 14.0103 7.89629C13.1936 8.63572 12.5106 9.51441 11.9921 10.4927V17.329H10.0795Z" fill="#00CDFF"/>
<path d="M27.3048 17.6507C26.5537 17.681 25.8055 17.5381 25.1166 17.2328C24.4276 16.9275 23.8158 16.4677 23.327 15.888C22.306 14.6406 21.7753 13.0541 21.8368 11.4336C21.7771 9.817 22.3078 8.23495 23.327 6.9912C23.8364 6.43801 24.4523 5.99696 25.1366 5.69542C25.8209 5.39388 26.5589 5.23828 27.3048 5.23828C28.0508 5.23828 28.7888 5.39388 29.4731 5.69542C30.1574 5.99696 30.7733 6.43801 31.2826 6.9912C32.2961 8.23826 32.826 9.81799 32.7729 11.4336C32.8289 13.0533 32.2988 14.6378 31.2826 15.888C30.7939 16.4677 30.1821 16.9275 29.4931 17.2328C28.8042 17.5381 28.056 17.681 27.3048 17.6507ZM27.3048 16.019C27.7873 16.0469 28.269 15.9514 28.7057 15.7412C29.1424 15.531 29.5201 15.2129 29.8042 14.8161C30.4661 13.8297 30.7879 12.6488 30.7194 11.4575C30.7896 10.2622 30.4678 9.07694 29.8042 8.08692C29.5218 7.70076 29.1508 7.39042 28.7234 7.18286C28.296 6.9753 27.8252 6.8768 27.3518 6.89592C26.8769 6.87791 26.4047 6.97683 25.9756 7.18422C25.5465 7.39162 25.1732 7.70133 24.8877 8.08692C24.2167 9.06594 23.8826 10.2423 23.9372 11.4336C23.8601 12.6317 24.1779 13.8217 24.8407 14.8161C25.1249 15.2032 25.4979 15.514 25.9274 15.7216C26.3568 15.9291 26.8296 16.0271 27.3048 16.0071V16.019Z" fill="#00CDFF"/>
<path d="M38.1 8.20602C38.6266 7.30134 39.3589 6.53769 40.2356 5.97884C40.9174 5.55014 41.6986 5.31184 42.5002 5.28806C42.9943 5.28908 43.4826 5.39565 43.9335 5.60085C44.3843 5.80605 44.7875 6.10527 45.1169 6.47906C45.9758 7.5679 46.3952 8.94716 46.2903 10.3379C46.3127 11.5971 46.0477 12.8445 45.5159 13.9824C45.0533 14.9904 44.3469 15.8631 43.4624 16.5192C42.5257 17.1726 41.4066 17.5025 40.2708 17.4601C39.9188 17.4601 39.3673 17.4601 38.6163 17.341H38.1118H36.1757V0.333496H38.1V8.20602ZM38.1 10.588V15.6379C38.732 15.8086 39.3822 15.9005 40.0361 15.9118C40.5996 15.9177 41.1571 15.7943 41.6671 15.551C42.177 15.3077 42.6263 14.9506 42.9813 14.5064C43.8247 13.4278 44.243 12.0694 44.1547 10.6952C44.221 9.76297 43.9951 8.83333 43.5094 8.03927C43.3492 7.78149 43.1301 7.56677 42.8706 7.41333C42.6112 7.25989 42.3191 7.17228 42.0191 7.15793C41.2718 7.22422 40.5707 7.55271 40.0361 8.08692C39.2576 8.78668 38.6028 9.61647 38.1 10.5404V10.588Z" fill="#00CDFF"/>
<path d="M54.7152 17.6507C53.9641 17.681 53.2159 17.5381 52.527 17.2328C51.838 16.9275 51.2262 16.4677 50.7374 15.888C49.7165 14.6406 49.1857 13.0542 49.2472 11.4336C49.1875 9.81702 49.7182 8.23496 50.7374 6.99121C51.2458 6.43834 51.8607 5.9975 52.544 5.69609C53.2273 5.39468 53.9643 5.23914 54.7094 5.23914C55.4544 5.23914 56.1915 5.39468 56.8748 5.69609C57.5581 5.9975 58.173 6.43834 58.6813 6.99121C59.7006 8.23496 60.2312 9.81702 60.1715 11.4336C60.2331 13.0542 59.7023 14.6406 58.6813 15.888C58.1949 16.4675 57.5852 16.9273 56.8981 17.2326C56.2111 17.538 55.4647 17.6809 54.7152 17.6507ZM54.7152 16.019C55.1888 16.0392 55.66 15.9411 56.0876 15.7335C56.5151 15.5258 56.886 15.2149 57.1676 14.828C57.8295 13.8417 58.1513 12.6608 58.0829 11.4694C58.1478 10.2821 57.8262 9.1061 57.1676 8.12266C56.8757 7.7439 56.5026 7.43757 56.0767 7.2269C55.6508 7.01623 55.1832 6.90674 54.7094 6.90674C54.2356 6.90674 53.768 7.01623 53.3421 7.2269C52.9162 7.43757 52.5431 7.7439 52.2511 8.12266C51.5926 9.1061 51.2709 10.2821 51.3359 11.4694C51.2701 12.6568 51.5917 13.833 52.2511 14.8161C52.5353 15.2032 52.9083 15.514 53.3378 15.7216C53.7672 15.9291 54.24 16.0271 54.7152 16.0071V16.019Z" fill="#00CDFF"/>
<path d="M73.0554 16.9837C71.8672 17.4081 70.6188 17.6334 69.3592 17.6506C68.2755 17.6713 67.2073 17.3868 66.2732 16.8288C65.3834 16.3049 64.6527 15.5426 64.1611 14.6255C63.6429 13.6492 63.3803 12.5543 63.3984 11.4455C63.3758 10.6262 63.5158 9.81075 63.8101 9.04756C64.1044 8.28436 64.547 7.58907 65.1115 7.00307C65.6513 6.44372 66.2985 6.00287 67.013 5.70785C67.7275 5.41284 68.4941 5.26994 69.2653 5.28802C70.5564 5.30615 71.8362 5.53538 73.0554 5.96689V7.84868C71.9283 7.28504 70.6969 6.96852 69.4413 6.9197C68.7431 6.91789 68.0562 7.09835 67.4466 7.44374C66.8033 7.82993 66.2978 8.41392 66.0033 9.11114C65.6702 9.83443 65.4979 10.6233 65.4987 11.4217C65.5102 12.5112 65.8501 13.5711 66.4726 14.4587C66.8244 14.9419 67.2905 15.3273 67.8279 15.5792C68.3652 15.831 68.9565 15.9413 69.5469 15.8998C69.9633 15.8986 70.379 15.8668 70.7907 15.8046C71.5612 15.6461 72.3183 15.427 73.0554 15.1495V16.9837Z" fill="#FF0000"/>
<path d="M81.2222 17.6507C80.471 17.681 79.7229 17.5381 79.0339 17.2328C78.345 16.9275 77.7332 16.4677 77.2444 15.888C76.2234 14.6406 75.6927 13.0541 75.7542 11.4336C75.6945 9.817 76.2252 8.23495 77.2444 6.9912C77.7538 6.43801 78.3697 5.99696 79.0539 5.69542C79.7382 5.39388 80.4762 5.23828 81.2222 5.23828C81.9682 5.23828 82.7062 5.39388 83.3905 5.69542C84.0747 5.99696 84.6907 6.43801 85.2 6.9912C86.2134 8.23826 86.7433 9.81799 86.6902 11.4336C86.7462 13.0533 86.2161 14.6378 85.2 15.888C84.7113 16.4677 84.0994 16.9275 83.4105 17.2328C82.7215 17.5381 81.9734 17.681 81.2222 17.6507ZM81.2222 16.019C81.6974 16.039 82.1703 15.941 82.5997 15.7335C83.0291 15.5259 83.4021 15.2151 83.6863 14.828C84.3385 13.8376 84.6556 12.6587 84.5898 11.4694C84.6522 10.2841 84.3353 9.1101 83.6863 8.12265C83.3932 7.74372 83.0191 7.43735 82.5922 7.22667C82.1653 7.016 81.6969 6.90653 81.2222 6.90653C80.7475 6.90653 80.2791 7.016 79.8522 7.22667C79.4253 7.43735 79.0512 7.74372 78.7581 8.12265C78.1371 9.10719 77.8412 10.2669 77.9132 11.4336C77.825 12.6244 78.1216 13.8118 78.7581 14.8161C79.0423 15.2032 79.4153 15.514 79.8447 15.7216C80.2741 15.9291 80.747 16.0271 81.2222 16.0071V16.019Z" fill="#FF0000"/>
<path d="M97.8609 14.6851C97.3413 15.588 96.6122 16.3485 95.7371 16.9003C95.037 17.3632 94.2254 17.6227 93.3903 17.6507C92.8979 17.6326 92.4148 17.5098 91.9722 17.2903C91.5295 17.0708 91.1372 16.7594 90.8206 16.3763C89.9617 15.2874 89.5423 13.9082 89.6472 12.5174C89.6283 11.2535 89.8973 10.0021 90.4333 8.86106C90.8919 7.85053 91.5991 6.97687 92.4868 6.32423C93.4274 5.6804 94.5446 5.35521 95.6784 5.39525C96.2316 5.40605 96.7838 5.4458 97.3329 5.51435H97.8375V0.333496H99.7618V17.3291H97.8609V14.6851ZM97.8609 12.3031V7.30085C97.237 7.12949 96.5946 7.03748 95.9483 7.02692C95.379 7.0165 94.8149 7.13761 94.2986 7.38108C93.7822 7.62456 93.3272 7.98403 92.9679 8.4323C92.1294 9.51363 91.7118 10.87 91.7945 12.2435C91.7299 13.1718 91.9558 14.0972 92.4398 14.8875C92.5961 15.1473 92.8124 15.3644 93.07 15.5201C93.3277 15.6758 93.6189 15.7653 93.9183 15.7808C94.6698 15.7172 95.3755 15.3885 95.9131 14.8518C96.7068 14.1452 97.3668 13.2977 97.8609 12.3507V12.3031Z" fill="#FF0000"/>
<path d="M106.45 17.3291V7.19369H103.223V5.56201H108.421V15.6974H111.648V17.3291H106.45ZM106.133 1.31014C106.121 1.12244 106.155 0.934562 106.233 0.763868C106.311 0.593175 106.43 0.445167 106.579 0.333518C106.807 0.118372 107.107 -0.0012207 107.418 -0.0012207C107.729 -0.0012207 108.029 0.118372 108.257 0.333518C108.398 0.453131 108.511 0.602559 108.588 0.771287C108.666 0.940016 108.706 1.12395 108.706 1.31014C108.706 1.49633 108.666 1.68026 108.588 1.84899C108.511 2.01772 108.398 2.16715 108.257 2.28676C108.029 2.50191 107.729 2.6215 107.418 2.6215C107.107 2.6215 106.807 2.50191 106.579 2.28676C106.43 2.17511 106.311 2.0271 106.233 1.85641C106.155 1.68572 106.121 1.49784 106.133 1.31014Z" fill="#FF0000"/>
<path d="M115.685 17.3291V5.56201H117.621V8.13457C118.122 7.2829 118.803 6.55477 119.616 6.00268C120.308 5.52139 121.124 5.2564 121.962 5.24044C122.624 5.23312 123.273 5.42367 123.828 5.7883C124.365 6.12944 124.777 6.63982 125.001 7.24132C125.296 8.38704 125.411 9.57275 125.342 10.7548V17.3291H123.417V10.5166C123.449 9.76626 123.394 9.01475 123.253 8.27749C123.153 7.9254 122.948 7.61337 122.666 7.38424C122.401 7.16466 122.07 7.0429 121.728 7.03885C120.91 7.09668 120.139 7.44206 119.545 8.01547C118.747 8.69288 118.092 9.52751 117.621 10.4689V17.3291H115.685Z" fill="#FF0000"/>
<path d="M137.064 14.6851C136.548 15.5907 135.818 16.352 134.94 16.9003C134.262 17.3542 133.475 17.6134 132.664 17.6507C132.163 17.6393 131.671 17.5197 131.22 17.2999C130.769 17.0802 130.369 16.7653 130.047 16.3763C129.188 15.2875 128.769 13.9082 128.874 12.5175C128.855 11.2535 129.124 10.0021 129.66 8.86108C130.122 7.85309 130.829 6.98036 131.713 6.32425C132.654 5.68041 133.771 5.35523 134.905 5.39527C135.458 5.40607 136.01 5.44582 136.559 5.51437H137.064H139V13.8514C139 15.8403 139 17.0433 138.918 17.4839C138.869 17.9342 138.786 18.3801 138.671 18.8179C138.533 19.3369 138.295 19.823 137.971 20.2482C137.647 20.6734 137.243 21.0292 136.782 21.2951C135.71 21.911 134.494 22.2236 133.262 22.2003C131.774 22.1779 130.311 21.8026 128.991 21.1046V19.1394C129.621 19.559 130.298 19.899 131.009 20.1518C131.761 20.4332 132.555 20.5822 133.356 20.5924C133.927 20.5954 134.495 20.4987 135.034 20.3066C135.516 20.142 135.951 19.8599 136.301 19.4848C136.627 19.1334 136.857 18.7026 136.97 18.2343C137.102 17.6123 137.161 16.9766 137.146 16.3406L137.064 14.6851ZM137.064 12.3031V7.30087C136.44 7.12878 135.798 7.03675 135.151 7.02694C134.584 7.01656 134.021 7.13776 133.507 7.3813C132.992 7.62484 132.539 7.9843 132.183 8.43232C131.344 9.51365 130.927 10.87 131.009 12.2435C130.95 13.1714 131.176 14.095 131.655 14.8875C131.812 15.1489 132.03 15.3671 132.29 15.5228C132.55 15.6786 132.843 15.7672 133.145 15.7808C133.896 15.7153 134.601 15.3869 135.14 14.8518C135.925 14.1435 136.577 13.296 137.064 12.3507V12.3031Z" fill="#FF0000"/>
<path d="M11.2294 31.6687V27.3335H9.34021V26.6427H14.0338V27.3335H12.1211V31.6687H11.2294Z" fill="black"/>
<path d="M18.9738 31.3353C18.3954 31.6352 17.7575 31.7981 17.1081 31.8117C16.7772 31.8184 16.4491 31.749 16.1484 31.6087C15.8476 31.4685 15.582 31.261 15.3715 31.0018C14.9484 30.4885 14.7233 29.8368 14.7379 29.1677C14.7251 28.4896 14.9543 27.8297 15.3832 27.3097C15.589 27.051 15.8504 26.8436 16.1473 26.7032C16.4442 26.5628 16.7689 26.4932 17.0964 26.4998C17.4006 26.4828 17.7037 26.5489 17.9741 26.6914C18.2445 26.8339 18.4722 27.0474 18.6335 27.3097C18.9298 27.8598 19.0718 28.4818 19.0442 29.1081V29.2868H15.6296C15.6141 29.7474 15.7596 30.1988 16.0403 30.5611C16.1799 30.7394 16.3589 30.8818 16.5627 30.977C16.7665 31.0722 16.9895 31.1174 17.2137 31.109C17.8352 31.0816 18.4401 30.8974 18.9738 30.573V31.3353ZM15.7235 28.6674H18.2111V28.5483C18.2222 28.2135 18.1276 27.8839 17.9412 27.6075C17.8468 27.4738 17.7214 27.3659 17.5761 27.2932C17.4308 27.2205 17.27 27.1852 17.1081 27.1906C16.923 27.1855 16.7393 27.2249 16.5721 27.3056C16.4048 27.3863 16.2588 27.5061 16.1459 27.6551C15.9203 27.9492 15.7747 28.2983 15.7235 28.6674Z" fill="black"/>
<path d="M24.5591 28.6913C24.5919 29.445 24.3727 30.1879 23.9372 30.7993C23.7127 31.0995 23.4212 31.3413 23.0866 31.5049C22.7521 31.6685 22.3841 31.7491 22.0129 31.7402L21.0859 31.6688V33.622H20.2645V26.6427H21.0859V27.8337C21.2947 27.4915 21.5655 27.1925 21.8838 26.9524C22.1977 26.708 22.5796 26.5704 22.9751 26.5594C23.2282 26.5522 23.4784 26.6163 23.6979 26.7445C23.9174 26.8728 24.0977 27.0601 24.2189 27.2859C24.4549 27.7147 24.5725 28.2003 24.5591 28.6913ZM23.6674 28.8104C23.6768 28.4786 23.6126 28.1489 23.4796 27.8457C23.4288 27.6893 23.3317 27.5528 23.2014 27.4547C23.0712 27.3566 22.9142 27.3018 22.7521 27.2978C22.3689 27.3355 22.0153 27.5235 21.7665 27.8218C21.4942 28.1046 21.2577 28.4207 21.0624 28.7627V30.9184C21.3337 30.9957 21.6138 31.0357 21.8955 31.0375C22.1623 31.0418 22.4256 30.9761 22.6599 30.8467C22.8943 30.7173 23.0918 30.5287 23.2332 30.2991C23.5262 29.8604 23.6779 29.3403 23.6674 28.8104Z" fill="black"/>
<path d="M30.0153 28.6913C30.037 29.4491 29.8054 30.1921 29.3582 30.7993C29.1389 31.1023 28.8501 31.3463 28.5168 31.5103C28.1835 31.6742 27.8158 31.7532 27.4456 31.7402L26.5186 31.6688V33.622H25.6973V26.6427H26.5186V27.8337C26.7241 27.489 26.9954 27.1893 27.3165 26.9524C27.6252 26.7067 28.0039 26.5688 28.3961 26.5594C28.6492 26.5522 28.8994 26.6163 29.1189 26.7445C29.3384 26.8728 29.5187 27.0601 29.6399 27.2859C29.8876 27.7114 30.0174 28.197 30.0153 28.6913ZM29.1118 28.8104C29.1198 28.4799 29.0598 28.1513 28.9358 27.8457C28.8836 27.6902 28.786 27.5546 28.6561 27.4568C28.5262 27.3589 28.37 27.3035 28.2083 27.2978C27.8216 27.335 27.4641 27.5228 27.2109 27.8218C26.9428 28.1053 26.7103 28.4213 26.5186 28.7627V30.9184C26.7859 30.9956 27.0622 31.0357 27.34 31.0375C27.6083 31.0416 27.8732 30.9758 28.1094 30.8466C28.3456 30.7173 28.5453 30.5288 28.6894 30.2991C28.9735 29.8568 29.1206 29.3383 29.1118 28.8104Z" fill="black"/>
<path d="M34.4977 27.8337L32.0336 31.6687H31.2004V26.6427H32.0336V29.7274V30.4301L34.4977 26.6427H35.319V31.6687H34.4977V27.8337Z" fill="black"/>
<path d="M38.2408 31.6687V27.3335H36.3634V26.6427H41.057V27.3335H39.1913V31.6687H38.2408Z" fill="black"/>
<path d="M44.1547 31.8117C43.8227 31.8225 43.4926 31.7562 43.1896 31.6179C42.8866 31.4797 42.6187 31.273 42.4064 31.0137C41.9834 30.4744 41.7705 29.7963 41.8079 29.1081C41.7781 28.4299 41.9953 27.7643 42.4181 27.2382C42.6383 26.9848 42.9092 26.7818 43.2126 26.6427C43.5161 26.5037 43.8452 26.4318 44.1782 26.4318C44.5111 26.4318 44.8403 26.5037 45.1437 26.6427C45.4472 26.7818 45.718 26.9848 45.9383 27.2382C46.3382 27.7737 46.534 28.4377 46.4898 29.1081C46.5167 29.7823 46.2997 30.4431 45.8796 30.9661C45.6762 31.2329 45.4145 31.4482 45.1152 31.5949C44.8159 31.7416 44.4871 31.8158 44.1547 31.8117ZM44.1547 31.109C44.3889 31.1256 44.623 31.0753 44.8304 30.9637C45.0378 30.8521 45.2102 30.6838 45.3281 30.4777C45.5362 30.0538 45.6255 29.58 45.5862 29.1081C45.6028 28.6424 45.4932 28.1811 45.2694 27.7742C45.1499 27.5823 44.9844 27.4242 44.7885 27.3147C44.5926 27.2052 44.3725 27.1478 44.1488 27.1478C43.9252 27.1478 43.7051 27.2052 43.5092 27.3147C43.3133 27.4242 43.1478 27.5823 43.0283 27.7742C42.8126 28.1826 42.6997 28.6388 42.6997 29.1021C42.6997 29.5655 42.8126 30.0217 43.0283 30.4301C43.1282 30.6441 43.2888 30.823 43.4895 30.944C43.6901 31.0649 43.9217 31.1223 44.1547 31.109Z" fill="black"/>
<path d="M51.817 28.6912C51.8386 29.449 51.607 30.192 51.1599 30.7992C50.9405 31.1022 50.6517 31.3462 50.3184 31.5102C49.9851 31.6741 49.6174 31.7531 49.2473 31.7401L48.3203 31.6687V33.6219H47.4989V26.6426H48.3203V27.8336C48.5258 27.4888 48.797 27.1892 49.1182 26.9523C49.4277 26.708 49.8058 26.5704 50.1977 26.5593C50.4526 26.5513 50.7047 26.6149 50.9263 26.7431C51.1478 26.8713 51.3302 27.0591 51.4532 27.2858C51.6975 27.7122 51.8232 28.1979 51.817 28.6912ZM50.9252 28.8103C50.9294 28.4789 50.8655 28.1504 50.7375 27.8455C50.6867 27.6892 50.5895 27.5527 50.4593 27.4546C50.329 27.3565 50.1721 27.3017 50.01 27.2977C49.626 27.3329 49.2715 27.5214 49.0243 27.8217C48.7486 28.1015 48.5118 28.418 48.3203 28.7626V30.9183C48.5877 30.9947 48.8639 31.0347 49.1416 31.0374C49.41 31.0415 49.6748 30.9757 49.911 30.8465C50.1472 30.7172 50.3469 30.5287 50.491 30.299C50.7793 29.858 50.9305 29.3394 50.9252 28.8103Z" fill="black"/>
<path d="M56.2876 27.8337L53.8352 31.6687H53.0138V26.6427H53.8352V29.7274V30.4301L56.2993 26.6427H57.1207V31.6687H56.2993L56.2876 27.8337Z" fill="black"/>
<path d="M60.723 29.6678L59.2446 31.6687H58.1533L59.8195 29.5249C59.4748 29.4004 59.1732 29.1769 58.9512 28.8817C58.7197 28.5833 58.5955 28.2135 58.5992 27.8337C58.5894 27.6505 58.6277 27.468 58.7102 27.3048C58.7927 27.1416 58.9163 27.0035 59.0686 26.9047C59.3799 26.7161 59.739 26.625 60.1011 26.6427H62.5418V31.6687H61.7087V29.6678H60.723ZM61.7087 28.977V27.3334H60.5353C59.8665 27.3334 59.5262 27.5478 59.5262 27.9885C59.5416 28.1986 59.6116 28.4008 59.7291 28.5744C59.8466 28.7481 60.0074 28.887 60.195 28.977H61.7087Z" fill="black"/>
<path d="M12.8838 38.3979H10.4549V42.7332H9.63354V37.7072H13.7169V42.7332H12.8838V38.3979Z" fill="black"/>
<path d="M19.3492 39.7556C19.3709 40.5134 19.1393 41.2564 18.6921 41.8637C18.4717 42.1683 18.1809 42.4134 17.8454 42.5774C17.5099 42.7415 17.1399 42.8195 16.7678 42.8046L15.8525 42.7331V44.6863H15.0194V37.7071H15.8525V38.8981C16.0538 38.5538 16.3211 38.2541 16.6387 38.0167C16.9526 37.7723 17.3345 37.6347 17.7299 37.6237C17.9831 37.6166 18.2333 37.6807 18.4528 37.8089C18.6723 37.9371 18.8526 38.1244 18.9737 38.3502C19.2215 38.7757 19.3513 39.2613 19.3492 39.7556ZM18.4457 39.8747C18.4551 39.5429 18.391 39.2132 18.258 38.91C18.2087 38.7527 18.1119 38.6152 17.9814 38.5168C17.8508 38.4185 17.693 38.3644 17.5305 38.3621C17.1479 38.4023 16.7952 38.5898 16.5448 38.8862C16.2767 39.1696 16.0442 39.4856 15.8525 39.8271V41.9828C16.1197 42.06 16.3961 42.1 16.6739 42.1019C16.9467 42.118 17.219 42.0617 17.4639 41.9385C17.7087 41.8153 17.9177 41.6294 18.0702 41.3992C18.3541 40.9278 18.4854 40.378 18.4457 39.8271V39.8747Z" fill="black"/>
<path d="M22.5761 42.8761C22.2457 42.8869 21.9174 42.8205 21.6163 42.6822C21.3152 42.5438 21.0494 42.3372 20.8394 42.0781C20.4512 41.5365 20.2421 40.884 20.2421 40.2142C20.2421 39.5444 20.4512 38.8919 20.8394 38.3503C21.0597 38.0968 21.3305 37.8938 21.634 37.7548C21.9374 37.6157 22.2666 37.5438 22.5995 37.5438C22.9325 37.5438 23.2616 37.6157 23.5651 37.7548C23.8685 37.8938 24.1394 38.0968 24.3596 38.3503C24.7716 38.8816 24.9837 39.5445 24.958 40.2202C24.984 40.8922 24.7717 41.5514 24.3596 42.0781C24.1448 42.3438 23.8714 42.5544 23.5616 42.693C23.2518 42.8316 22.9142 42.8943 22.5761 42.8761ZM22.5761 42.1734C22.8102 42.19 23.0443 42.1397 23.2517 42.0281C23.4591 41.9166 23.6316 41.7482 23.7494 41.5422C23.9751 41.1404 24.0849 40.6823 24.0663 40.2202C24.0828 39.7545 23.9732 39.2931 23.7494 38.8862C23.6305 38.6917 23.4646 38.5313 23.2675 38.42C23.0704 38.3087 22.8485 38.2503 22.623 38.2503C22.3974 38.2503 22.1756 38.3087 21.9785 38.42C21.7814 38.5313 21.6155 38.6917 21.4965 38.8862C21.2886 39.2971 21.1801 39.7523 21.1801 40.2142C21.1801 40.6761 21.2886 41.1313 21.4965 41.5422C21.6023 41.7403 21.758 41.9064 21.9476 42.0236C22.1372 42.1407 22.3541 42.2048 22.5761 42.2091V42.1734Z" fill="black"/>
<path d="M26.9763 42.7332H26.0728V37.7072H29.722V38.3979H26.9763V42.7332Z" fill="black"/>
<path d="M35.0609 39.7556C35.0826 40.5134 34.851 41.2564 34.4038 41.8637C34.1833 42.1683 33.8926 42.4134 33.5571 42.5774C33.2216 42.7415 32.8515 42.8195 32.4794 42.8046L31.5642 42.7331V44.6863H30.7311V37.7071H31.5642V38.8981C31.7655 38.5538 32.0328 38.2541 32.3504 38.0167C32.6642 37.7723 33.0461 37.6347 33.4416 37.6237C33.6948 37.6166 33.945 37.6807 34.1645 37.8089C34.384 37.9371 34.5643 38.1244 34.6854 38.3502C34.9332 38.7757 35.0629 39.2613 35.0609 39.7556ZM34.1574 39.8747C34.1668 39.5429 34.1026 39.2132 33.9696 38.91C33.9204 38.7527 33.8236 38.6152 33.693 38.5168C33.5625 38.4185 33.4047 38.3644 33.2421 38.3621C32.8596 38.4023 32.5068 38.5898 32.2565 38.8862C31.9884 39.1696 31.7558 39.4856 31.5642 39.8271V41.9828C31.8314 42.06 32.1077 42.1 32.3856 42.1019C32.6506 42.1097 32.9133 42.0494 33.1492 41.9266C33.3852 41.8037 33.5867 41.6223 33.735 41.3992C34.0353 40.9333 34.1832 40.3832 34.1574 39.8271V39.8747Z" fill="black"/>
<path d="M39.4964 41.6016C39.2949 41.9424 39.0275 42.2381 38.7102 42.4711C38.397 42.7184 38.0155 42.86 37.619 42.876C37.3721 42.8865 37.1268 42.8303 36.9083 42.7131C36.6898 42.596 36.5058 42.422 36.3752 42.2091C36.1154 41.7625 35.9852 41.2506 35.9997 40.7322C35.9739 39.9682 36.2104 39.2189 36.6685 38.6122C36.8886 38.3146 37.1765 38.0757 37.5076 37.9159C37.8388 37.7562 38.2031 37.6804 38.5694 37.6952L39.4964 37.7666H40.3647V41.3396C40.3484 41.839 40.4118 42.3377 40.5525 42.8165H39.6842C39.5962 42.416 39.5334 42.0102 39.4964 41.6016ZM39.4964 40.6012V38.4455C39.2277 38.3771 38.952 38.3411 38.675 38.3383C38.4125 38.3278 38.1517 38.3858 37.9175 38.5067C37.6833 38.6277 37.4836 38.8075 37.3374 39.0291C37.0356 39.4814 36.8835 40.0195 36.9032 40.5655C36.8961 40.8971 36.9602 41.2262 37.091 41.5302C37.1416 41.6833 37.2374 41.817 37.3655 41.9129C37.4936 42.0088 37.6476 42.0623 37.8067 42.0661C37.9989 42.0502 38.186 41.9957 38.3572 41.9057C38.5285 41.8158 38.6804 41.6922 38.8041 41.5421C39.0788 41.2644 39.3121 40.9474 39.4964 40.6012Z" fill="black"/>
<path d="M42.5002 42.7332H41.7727V37.7072H42.7114L44.2955 41.2802L45.8913 37.7072H46.7714V42.7332H45.9383V39.0411L45.7505 39.6604L44.6827 42.0424H43.8261L42.7466 39.6604L42.5354 39.0411V39.6604L42.5002 42.7332Z" fill="black"/>
<path d="M48.7545 42.7332H48.0387V37.7072H48.9305L50.5263 41.2802L52.1104 37.7072H52.9904V42.7332H52.1573V39.0411L51.9696 39.6604L50.9018 42.0424H50.0452L48.9657 39.6604L48.7545 39.0411V39.6604V42.7332Z" fill="black"/>
<path d="M57.5666 38.8982L55.1142 42.7332H54.2928V37.7072H55.1142V40.7918V41.4945L57.5783 37.7072H58.3997V42.7332H57.5783L57.5666 38.8982Z" fill="black"/>
<path d="M63.4688 42.5902C62.9636 42.7721 62.4324 42.8686 61.8965 42.8761C61.5512 42.8861 61.2078 42.8224 60.8884 42.689C60.569 42.5556 60.2808 42.3556 60.0425 42.1019C59.5849 41.5875 59.3315 40.9191 59.3315 40.2261C59.3315 39.533 59.5849 38.8646 60.0425 38.3503C60.2685 38.0959 60.5458 37.8941 60.8557 37.7584C61.1655 37.6228 61.5005 37.5565 61.8378 37.5642C62.3892 37.5703 62.936 37.6668 63.4571 37.85V38.6361C62.9778 38.3948 62.4544 38.2569 61.9199 38.2312C61.6793 38.2237 61.4404 38.2737 61.2223 38.3771C61.0042 38.4806 60.8131 38.6346 60.6644 38.8267C60.3751 39.2139 60.2185 39.6865 60.2185 40.1725C60.2185 40.6585 60.3751 41.1311 60.6644 41.5183C60.8226 41.703 61.0197 41.8492 61.2411 41.9461C61.4625 42.043 61.7025 42.0881 61.9434 42.0781C62.4537 42.0513 62.9567 41.9428 63.4336 41.7565L63.4688 42.5902Z" fill="black"/>
<path d="M66.1089 42.7332V38.3979H64.2197V37.7072H68.9133V38.3979H67.0007V42.7332H66.1089Z" fill="black"/>
<path d="M71.7881 42.8761C71.4561 42.8869 71.126 42.8207 70.823 42.6824C70.52 42.5441 70.2521 42.3374 70.0397 42.0781C69.6277 41.5514 69.4154 40.8922 69.4413 40.2202C69.4115 39.5419 69.6287 38.8763 70.0515 38.3503C70.2717 38.0968 70.5425 37.8938 70.846 37.7548C71.1495 37.6157 71.4786 37.5438 71.8116 37.5438C72.1445 37.5438 72.4737 37.6157 72.7771 37.7548C73.0806 37.8938 73.3514 38.0968 73.5716 38.3503C73.9925 38.8774 74.2094 39.5423 74.1818 40.2202C74.2087 40.8943 73.9917 41.5552 73.5716 42.0781C73.3581 42.3452 73.0849 42.5569 72.7748 42.6957C72.4647 42.8344 72.1264 42.8963 71.7881 42.8761ZM71.7881 42.1734C72.0223 42.19 72.2563 42.1397 72.4637 42.0281C72.6712 41.9166 72.8436 41.7482 72.9615 41.5422C73.1612 41.1324 73.2503 40.6762 73.2196 40.2202C73.2361 39.7545 73.1266 39.2931 72.9028 38.8862C72.7832 38.6944 72.6178 38.5363 72.4219 38.4268C72.2259 38.3173 72.0059 38.2598 71.7822 38.2598C71.5586 38.2598 71.3385 38.3173 71.1426 38.4268C70.9467 38.5363 70.7812 38.6944 70.6616 38.8862C70.4459 39.2946 70.3331 39.7508 70.3331 40.2142C70.3331 40.6776 70.4459 41.1338 70.6616 41.5422C70.7633 41.754 70.9247 41.9304 71.1252 42.0491C71.3257 42.1678 71.5564 42.2235 71.7881 42.2091V42.1734Z" fill="black"/>
<path d="M75.2731 42.7331V37.7071H77.3265C77.7223 37.6761 78.1202 37.7205 78.4999 37.8381C78.6905 37.92 78.8509 38.0607 78.9583 38.2402C79.0657 38.4198 79.1147 38.6291 79.0983 38.8386C79.083 39.0963 78.9968 39.3444 78.8495 39.5549C78.7023 39.7655 78.4999 39.9299 78.2652 40.0296C78.5514 40.119 78.8048 40.2932 78.9927 40.5298C79.1706 40.779 79.2652 41.0795 79.2626 41.3873C79.2628 41.6177 79.202 41.8439 79.0866 42.0423C78.9687 42.2442 78.7981 42.409 78.5938 42.5187C78.2694 42.6488 77.9211 42.7057 77.5729 42.6855L75.2731 42.7331ZM78.2065 38.9338C78.2186 38.837 78.1986 38.7389 78.1498 38.6548C78.1009 38.5707 78.026 38.5055 77.9367 38.4693C77.7299 38.3944 77.5105 38.362 77.2913 38.3741H76.1179V39.8271H77.5377C77.9719 39.6127 78.2065 39.3269 78.2065 38.9338ZM78.3591 41.3158C78.3591 40.7561 77.9601 40.4702 77.1857 40.4702H76.1062V42.1019H77.4438C77.6702 42.1133 77.8937 42.0461 78.0775 41.9113C78.1769 41.8396 78.2555 41.742 78.305 41.6289C78.3546 41.5158 78.3732 41.3912 78.3591 41.2682V41.3158Z" fill="black"/>
<path d="M14.4093 53.7975H13.3767L12.1212 51.1773V53.7975H11.2294V51.1773L9.97387 53.7975H8.94128L10.279 51.0701L9.02342 48.7595H9.92693L11.2294 51.1415V48.7595H12.1212V51.1415L13.4236 48.7595H14.3272L13.0716 51.0701L14.4093 53.7975Z" fill="black"/>
<path d="M19.2436 53.4641C18.6596 53.7601 18.0188 53.9227 17.3662 53.9405C17.0373 53.9453 16.7115 53.8751 16.4129 53.7349C16.1143 53.5947 15.8506 53.3882 15.6413 53.1306C15.2281 52.6067 15.0029 51.9556 15.0029 51.2845C15.0029 50.6134 15.2281 49.9624 15.6413 49.4385C15.8471 49.1798 16.1085 48.9723 16.4054 48.832C16.7023 48.6916 17.027 48.622 17.3545 48.6286C17.6586 48.6116 17.9618 48.6777 18.2322 48.8202C18.5025 48.9626 18.7303 49.1762 18.8916 49.4385C19.1676 49.9944 19.2892 50.6161 19.2436 51.2369V51.4155H15.8643C15.8507 51.8759 15.996 52.3266 16.2749 52.6899C16.4133 52.8696 16.592 53.0131 16.7961 53.1085C17.0002 53.2038 17.2239 53.2481 17.4483 53.2378C18.0818 53.2163 18.6996 53.0319 19.2436 52.7018V53.4641ZM15.9347 50.7962H18.4222V50.6652C18.4317 50.3343 18.3371 50.009 18.1524 49.7362C18.0561 49.6017 17.9287 49.4932 17.7813 49.4205C17.634 49.3478 17.4712 49.3131 17.3075 49.3194C17.1244 49.3161 16.943 49.3565 16.778 49.4371C16.6129 49.5178 16.4688 49.6365 16.3571 49.7839C16.1189 50.0742 15.9609 50.4236 15.8995 50.7962H15.9347Z" fill="black"/>
<path d="M24.5005 53.7975H23.6791V49.4622H22.1889V50.0101C22.1997 50.9209 22.1211 51.8306 21.9542 52.7256C21.8841 53.0774 21.6912 53.3917 21.4109 53.6105C21.1306 53.8294 20.7818 53.9381 20.4288 53.9166C20.2472 53.918 20.0661 53.898 19.889 53.857V53.0948C20.0622 53.1569 20.2453 53.1852 20.4288 53.1782C20.816 53.1782 21.0742 52.9042 21.215 52.3326C21.3048 51.7415 21.348 51.1441 21.344 50.5461V48.7953H24.4653L24.5005 53.7975Z" fill="black"/>
<path d="M29.8042 53.4641C29.2196 53.7587 28.5791 53.9212 27.9267 53.9405C27.5978 53.9453 27.272 53.8751 26.9734 53.7349C26.6749 53.5947 26.4112 53.3882 26.2019 53.1306C25.7886 52.6067 25.5635 51.9556 25.5635 51.2845C25.5635 50.6134 25.7886 49.9624 26.2019 49.4385C26.4076 49.1798 26.669 48.9723 26.9659 48.832C27.2629 48.6916 27.5875 48.622 27.915 48.6286C28.2192 48.6116 28.5223 48.6777 28.7927 48.8202C29.0631 48.9626 29.2908 49.1762 29.4522 49.4385C29.7281 49.9944 29.8498 50.6161 29.8042 51.2369V51.4155H26.4365C26.423 51.8759 26.5683 52.3266 26.8472 52.6899C26.9856 52.8696 27.1643 53.0131 27.3684 53.1085C27.5725 53.2038 27.7962 53.2481 28.0206 53.2378C28.6501 53.2143 29.2636 53.03 29.8042 52.7018V53.4641ZM26.4952 50.7962H28.9828V50.6652C28.9922 50.3343 28.8977 50.009 28.7129 49.7362C28.6167 49.6017 28.4892 49.4932 28.3419 49.4205C28.1945 49.3478 28.0318 49.3131 27.8681 49.3194C27.6849 49.3161 27.5036 49.3565 27.3385 49.4371C27.1735 49.5178 27.0293 49.6365 26.9176 49.7839C26.6836 50.0755 26.5298 50.4248 26.4717 50.7962H26.4952Z" fill="black"/>
<path d="M34.7559 52.273C34.7506 52.5123 34.6867 52.7465 34.57 52.9544C34.4532 53.1624 34.2872 53.3375 34.0871 53.464C33.6737 53.7521 33.1802 53.8982 32.679 53.8809C32.0192 53.8714 31.3667 53.7382 30.7546 53.4879V52.5946C31.3169 52.9783 31.978 53.1854 32.6555 53.1901C32.9446 53.1954 33.228 53.1078 33.4652 52.94C33.5818 52.8703 33.6788 52.7711 33.7466 52.6522C33.8145 52.5333 33.8509 52.3985 33.8524 52.2611C33.8668 52.1071 33.8339 51.9524 33.7583 51.818C33.6827 51.6837 33.568 51.5764 33.43 51.5108C33.1525 51.3903 32.8512 51.3373 32.5499 51.356H31.9398V50.7366H32.679C32.9088 50.7462 33.1354 50.6792 33.3244 50.5461C33.4188 50.4697 33.4937 50.3714 33.5427 50.2595C33.5917 50.1475 33.6134 50.0252 33.606 49.9029C33.606 49.4742 33.2892 49.2598 32.6438 49.2598C32.0091 49.2818 31.3957 49.4977 30.8837 49.8791V49.0335C31.4344 48.7396 32.0452 48.5806 32.6673 48.569C33.0748 48.5594 33.4782 48.6536 33.8407 48.843C34.0305 48.9314 34.1906 49.0745 34.3012 49.2545C34.4117 49.4344 34.4678 49.6433 34.4626 49.8553C34.472 50.0989 34.413 50.3401 34.2925 50.551C34.172 50.7619 33.995 50.9336 33.782 51.0463C34.0583 51.1064 34.3059 51.2611 34.4832 51.4844C34.6605 51.7078 34.7568 51.9862 34.7559 52.273Z" fill="black"/>
<path d="M39.1913 52.6661C38.9934 53.0095 38.7253 53.306 38.4051 53.5355C38.0913 53.78 37.7094 53.9175 37.3139 53.9285C37.0621 53.9355 36.8133 53.8726 36.5941 53.7467C36.375 53.6208 36.1938 53.4366 36.0701 53.2139C35.8033 52.7694 35.665 52.2576 35.6711 51.7371C35.642 50.9746 35.8742 50.2254 36.3282 49.6171C36.5483 49.3195 36.8362 49.0806 37.1674 48.9208C37.4985 48.7611 37.8628 48.6853 38.2291 48.7C38.3465 48.7 38.6516 48.7 39.1561 48.7H39.9892V52.2731C39.9729 52.7724 40.0363 53.2711 40.177 53.7499H39.3087C39.2502 53.391 39.211 53.0292 39.1913 52.6661ZM39.1913 51.6656V49.5099C38.9269 49.4384 38.6552 49.3984 38.3817 49.3908C38.1165 49.3818 37.8533 49.4416 37.6172 49.5646C37.3811 49.6876 37.1798 49.8696 37.0323 50.0935C36.7305 50.5459 36.5785 51.084 36.5981 51.6299C36.5897 51.9578 36.6538 52.2834 36.7859 52.5827C36.8351 52.74 36.9319 52.8775 37.0625 52.9759C37.193 53.0742 37.3508 53.1283 37.5134 53.1306C37.8959 53.0904 38.2487 52.9029 38.499 52.6065C38.7772 52.3319 39.0108 52.0143 39.1913 51.6656Z" fill="black"/>
<path d="M41.6085 54.0119H40.7988L45.1756 46.6039H45.9618L41.6085 54.0119Z" fill="black"/>
<path d="M45.6567 54.0119H44.847L49.2121 46.6039H49.9982L45.6567 54.0119Z" fill="black"/>
<path d="M0.80964 31.8831H0L4.37675 24.4751H5.16292L0.80964 31.8831Z" fill="black"/>
<path d="M4.85781 31.8831H3.9895L8.36625 24.4751H9.15242L4.85781 31.8831Z" fill="black"/>
</g>
<defs>
<clipPath id="clip0">
<rect width="139" height="54" fill="white"/>
</clipPath>
</defs>
</svg>
