<svg width="25" height="25" viewBox="0 0 25 25" fill="none" xmlns="http://www.w3.org/2000/svg">
<path d="M3.43068 21.1359H21.5466C23.0154 21.1343 24.2058 19.944 24.2074 18.4751V6.18226C24.2058 4.71353 23.0154 3.52308 21.5466 3.52148H3.43068C1.96194 3.52308 0.77149 4.71353 0.769897 6.18226V18.4751C0.77149 19.944 1.96194 21.1343 3.43068 21.1359ZM3.43068 20.3433C3.02183 20.3438 2.62413 20.2094 2.29949 19.9606L7.71729 14.4192C7.81778 14.3182 7.85617 14.171 7.81813 14.0339C7.7801 13.8966 7.67147 13.7904 7.53348 13.7556C7.39531 13.7205 7.24918 13.7623 7.15046 13.8653L1.78326 19.3551C1.63819 19.0846 1.56229 18.7822 1.56247 18.4751V7.05586L10.7724 14.8544C11.764 15.6984 13.2218 15.6981 14.2127 14.8528L23.4148 7.04826V18.4751C23.4152 18.7835 23.3388 19.0867 23.1926 19.3579L17.7932 13.8642C17.6395 13.7096 17.3899 13.708 17.2342 13.8607C17.0787 14.0139 17.0758 14.2635 17.228 14.4197L22.6755 19.9624C22.3512 20.2099 21.9546 20.3438 21.5466 20.3433H3.43068ZM3.43068 4.31406H21.5466C22.5133 4.31547 23.3196 5.05285 23.407 6.01579L13.7002 14.2485C13.0044 14.8418 11.9807 14.8422 11.2846 14.2493L1.5699 6.0234C1.65305 5.05745 2.46101 4.31547 3.43068 4.31406Z" fill="black"/>
</svg>
