<svg width="25" height="25" viewBox="0 0 25 25" fill="none" xmlns="http://www.w3.org/2000/svg">
<g clip-path="url(#clip0)">
<path d="M15.8131 7.36582C15.8131 6.71056 15.6188 6.07 15.2547 5.52517C14.8907 4.98034 14.3732 4.55569 13.7678 4.30493C13.1625 4.05417 12.4963 3.98856 11.8536 4.1164C11.211 4.24423 10.6206 4.55977 10.1573 5.02312C9.69393 5.48646 9.37839 6.0768 9.25055 6.71947C9.12271 7.36215 9.18833 8.0283 9.43909 8.63369C9.68984 9.23907 10.1145 9.75651 10.6593 10.1206C11.2042 10.4846 11.8447 10.6789 12.5 10.6789C13.3783 10.6779 14.2204 10.3285 14.8415 9.70739C15.4626 9.08629 15.812 8.24419 15.8131 7.36582ZM12.5 9.99531C11.9799 9.99535 11.4714 9.84115 11.0389 9.55221C10.6064 9.26327 10.2694 8.85258 10.0703 8.37206C9.87125 7.89153 9.81915 7.36278 9.92061 6.85265C10.0221 6.34252 10.2725 5.87394 10.6403 5.50616C11.0081 5.13838 11.4767 4.88792 11.9868 4.78646C12.4969 4.685 13.0257 4.73709 13.5062 4.93615C13.9867 5.13521 14.3974 5.47229 14.6864 5.90477C14.9753 6.33725 15.1295 6.8457 15.1295 7.36582C15.1287 8.06298 14.8515 8.73139 14.3585 9.22435C13.8655 9.71732 13.1971 9.99459 12.5 9.99531Z" fill="black"/>
<path d="M14.3891 18.2809C15.1252 16.8228 15.7296 15.3019 16.1951 13.7362C17.5968 12.9234 18.6914 11.6711 19.3093 10.1732C19.9273 8.67536 20.0341 7.01555 19.6132 5.45084C19.1924 3.88614 18.2673 2.50386 16.9814 1.51808C15.6954 0.532306 14.1203 -0.00195312 12.5 -0.00195312C10.8797 -0.00195312 9.30458 0.532306 8.01863 1.51808C6.73268 2.50386 5.80764 3.88614 5.38679 5.45084C4.96593 7.01555 5.07275 8.67536 5.69068 10.1732C6.30861 11.6711 7.40319 12.9234 8.80488 13.7362C9.27039 15.3019 9.87481 16.8228 10.6109 18.2809C6.93359 18.5487 3.17383 19.67 3.17383 21.6061C3.17383 23.8102 7.97891 24.9997 12.5 24.9997C17.0211 24.9997 21.8262 23.8102 21.8262 21.6061C21.8262 19.67 18.0664 18.5487 14.3891 18.2809ZM9.2625 13.2095C7.96672 12.4918 6.94609 11.364 6.361 10.0032C5.7759 8.64246 5.65951 7.12585 6.03011 5.69173C6.40071 4.25761 7.2373 2.98727 8.40841 2.08032C9.57952 1.17337 11.0188 0.681235 12.5 0.681235C13.9812 0.681235 15.4205 1.17337 16.5916 2.08032C17.7627 2.98727 18.5993 4.25761 18.9699 5.69173C19.3405 7.12585 19.2241 8.64246 18.639 10.0032C18.0539 11.364 17.0333 12.4918 15.7375 13.2095C15.6976 13.2316 15.6626 13.2615 15.6345 13.2974C15.6063 13.3333 15.5856 13.3744 15.5736 13.4184C14.8064 16.2335 13.1658 19.2044 12.5 20.3452C11.8342 19.2048 10.1941 16.2354 9.42637 13.4177C9.41427 13.3738 9.39354 13.3328 9.3654 13.2971C9.33727 13.2613 9.30228 13.2315 9.2625 13.2095ZM12.5 24.3161C7.40684 24.3161 3.85742 22.888 3.85742 21.6061C3.85742 20.5173 6.56113 19.2054 10.9459 18.9425C11.6156 20.236 12.1633 21.1171 12.2104 21.1921C12.2417 21.2404 12.2846 21.2801 12.3352 21.3076C12.3857 21.3351 12.4424 21.3495 12.5 21.3495C12.5576 21.3495 12.6143 21.3351 12.6648 21.3076C12.7154 21.2801 12.7583 21.2404 12.7896 21.1921C12.8367 21.1171 13.3844 20.236 14.0541 18.9425C18.4389 19.2054 21.1426 20.5173 21.1426 21.6061C21.1426 22.888 17.5932 24.3161 12.5 24.3161Z" fill="black"/>
</g>
<defs>
<clipPath id="clip0">
<rect width="25" height="25" fill="white"/>
</clipPath>
</defs>
</svg>
