<svg width="44" height="44" viewBox="0 0 44 44" fill="none" xmlns="http://www.w3.org/2000/svg">
<path d="M35.5781 31.582H34.5197C34.4028 30.627 33.5871 29.8848 32.6011 29.8848H29.3556V29.2888C29.3556 28.5247 28.7341 27.9031 27.97 27.9031H25.4968V27.2526H33.4801C34.5463 27.2526 35.4137 26.3851 35.4137 25.319V23.8329H35.979C37.0452 23.8329 37.9126 22.9654 37.9126 21.8993V12.5469C37.9126 11.4807 37.0452 10.6133 35.979 10.6133H35.4137V9.04037C35.4137 7.97423 34.5463 7.10677 33.4801 7.10677H30.5078C30.1518 7.10677 29.8633 7.39527 29.8633 7.7513C29.8633 8.10726 30.1518 8.39584 30.5078 8.39584H33.4801C33.8356 8.39584 34.1247 8.68493 34.1247 9.04037V25.319C34.1247 25.6744 33.8356 25.9635 33.4801 25.9635H10.5199C10.1644 25.9635 9.87534 25.6744 9.87534 25.319V9.04037C9.87534 8.68493 10.1644 8.39584 10.5199 8.39584H26.8984C27.2544 8.39584 27.5429 8.10726 27.5429 7.7513C27.5429 7.39527 27.2544 7.10677 26.8984 7.10677H22.6445V5.60055C23.8996 5.30776 24.8377 4.1806 24.8377 2.83766C24.8377 1.27299 23.5647 0 22 0C20.4353 0 19.1623 1.27299 19.1623 2.83766C19.1623 4.1806 20.1004 5.30776 21.3555 5.60055V7.10677H10.5199C9.45373 7.10677 8.58627 7.97423 8.58627 9.04037V10.6133H7.93573C6.86959 10.6133 6.00213 11.4807 6.00213 12.5469V21.8993C6.00213 22.9654 6.86959 23.8329 7.93573 23.8329H8.58627V25.319C8.58627 26.3851 9.45373 27.2526 10.5199 27.2526H18.5031V27.9031H15.7802C15.016 27.9031 14.3944 28.5247 14.3944 29.2888V29.8848H11.3989C10.4128 29.8848 9.59724 30.627 9.48028 31.582H8.42188C6.45537 31.582 4.85547 33.1819 4.85547 35.1484V36.0078C4.85547 37.1091 5.35752 38.0953 6.14453 38.7501V42.4961C6.14453 43.3253 6.81923 44 7.64844 44H36.3516C37.1808 44 37.8555 43.3253 37.8555 42.4961V38.7501C38.6425 38.0953 39.1445 37.1091 39.1445 36.0078V35.1484C39.1445 33.1819 37.5446 31.582 35.5781 31.582ZM35.4137 11.9023H35.979C36.3345 11.9023 36.6236 12.1914 36.6236 12.5469V21.8993C36.6236 22.2547 36.3345 22.5438 35.979 22.5438H35.4137V11.9023ZM20.4514 2.83766C20.4514 1.98378 21.1461 1.28906 22 1.28906C22.8538 1.28906 23.5486 1.98378 23.5486 2.83766C23.5486 3.69153 22.8539 4.38625 22 4.38625C21.1461 4.38616 20.4514 3.69145 20.4514 2.83766ZM8.58627 22.5438H7.93573C7.58029 22.5438 7.2912 22.2547 7.2912 21.8993V12.5469C7.2912 12.1914 7.58029 11.9023 7.93573 11.9023H8.58627V22.5438ZM9.46541 42.7109H7.64844C7.53199 42.7109 7.43359 42.6125 7.43359 42.4961V39.4338C7.74761 39.5245 8.07898 39.5742 8.42188 39.5742H9.46541V42.7109ZM9.46541 38.2852H8.42188C7.16616 38.2852 6.14453 37.2635 6.14453 36.0078V35.1484C6.14453 33.8927 7.16616 32.8711 8.42188 32.8711H9.46541V38.2852ZM19.7923 27.2526H24.2078V27.9031H19.7923V27.2526ZM22.9023 42.7109H21.0977V41.3259H22.9023V42.7109ZM29.0361 42.7109H24.1914V40.9392C24.1914 40.4416 23.7866 40.0368 23.2891 40.0368H20.7109C20.2134 40.0368 19.8086 40.4416 19.8086 40.9392V42.7109H14.9639V35.8635C14.9639 35.7471 15.0623 35.6487 15.1787 35.6487H28.8213C28.9377 35.6487 29.0361 35.7471 29.0361 35.8635V42.7109ZM36.5664 42.4961C36.5664 42.6125 36.468 42.7109 36.3516 42.7109H34.5346V39.5742H35.5781C35.921 39.5742 36.2524 39.5245 36.5664 39.4338V42.4961ZM37.8555 36.0078C37.8555 37.2635 36.8338 38.2852 35.5781 38.2852H34.5346V36.8672C34.5346 36.5111 34.2461 36.2227 33.8901 36.2227C33.534 36.2227 33.2455 36.5111 33.2455 36.8672V42.7109H30.3252V35.8635C30.3252 35.0343 29.6505 34.3596 28.8213 34.3596H15.1787C14.3495 34.3596 13.6748 35.0343 13.6748 35.8635V42.7109H10.7545V31.8184C10.7545 31.4629 11.0436 31.1738 11.399 31.1738H18.9062C19.2622 31.1738 19.5507 30.8853 19.5507 30.5293C19.5507 30.1733 19.2622 29.8848 18.9062 29.8848H15.6836V29.2888C15.6836 29.2373 15.7287 29.1922 15.7803 29.1922H27.97C28.0215 29.1922 28.0665 29.2373 28.0665 29.2888V29.8848H22.6875C22.3315 29.8848 22.043 30.1733 22.043 30.5293C22.043 30.8853 22.3315 31.1738 22.6875 31.1738H32.601C32.9564 31.1738 33.2455 31.4629 33.2455 31.8184V33.5156C33.2455 33.8717 33.534 34.1602 33.8901 34.1602C34.2461 34.1602 34.5346 33.8717 34.5346 33.5156V32.8711H35.5781C36.8338 32.8711 37.8555 33.8927 37.8555 35.1484V36.0078Z" fill="black"/>
<path d="M27.2663 12.1072H16.7338C13.9233 12.1072 11.6367 14.3935 11.6367 17.204C11.6367 20.0145 13.9233 22.3009 16.7338 22.3009H27.2663C30.0768 22.3009 32.3633 20.0145 32.3633 17.204C32.3633 14.3935 30.0768 12.1072 27.2663 12.1072ZM27.2663 21.0118H16.7338C14.634 21.0118 12.9258 19.3036 12.9258 17.204C12.9258 15.1043 14.634 13.3962 16.7338 13.3962H27.2663C29.366 13.3962 31.0742 15.1044 31.0742 17.204C31.0742 19.3036 29.366 21.0118 27.2663 21.0118Z" fill="black"/>
<path d="M16.2892 14.8213C14.9791 14.8213 13.9133 15.8902 13.9133 17.204C13.9133 18.5178 14.9791 19.5867 16.2892 19.5867C17.5992 19.5867 18.665 18.5178 18.665 17.204C18.665 15.8902 17.5992 14.8213 16.2892 14.8213ZM16.2892 18.2975C15.6899 18.2975 15.2024 17.8069 15.2024 17.2039C15.2024 16.6009 15.69 16.1103 16.2892 16.1103C16.8885 16.1103 17.3759 16.6009 17.3759 17.2039C17.3758 17.8069 16.8884 18.2975 16.2892 18.2975Z" fill="black"/>
<path d="M27.744 14.8213C26.4339 14.8214 25.368 15.8902 25.368 17.204C25.368 18.5178 26.4338 19.5867 27.744 19.5867C29.0539 19.5867 30.1197 18.5178 30.1197 17.204C30.1197 15.8902 29.054 14.8213 27.744 14.8213ZM27.744 18.2977C27.1447 18.2977 26.6572 17.8071 26.6572 17.2041C26.6571 16.6011 27.1447 16.1104 27.744 16.1104C28.3433 16.1104 28.8307 16.6011 28.8307 17.2041C28.8307 17.8071 28.3433 18.2977 27.744 18.2977Z" fill="black"/>
<path d="M18.3906 36.4238H16.4141C16.058 36.4238 15.7695 36.7123 15.7695 37.0684C15.7695 37.4244 16.058 37.7129 16.4141 37.7129H18.3906C18.7467 37.7129 19.0352 37.4244 19.0352 37.0684C19.0352 36.7123 18.7467 36.4238 18.3906 36.4238Z" fill="black"/>
<path d="M17.5312 37.9512H16.4141C16.058 37.9512 15.7695 38.2397 15.7695 38.5957C15.7695 38.9517 16.058 39.2402 16.4141 39.2402H17.5312C17.8873 39.2402 18.1758 38.9517 18.1758 38.5957C18.1758 38.2397 17.8873 37.9512 17.5312 37.9512Z" fill="black"/>
<path d="M18.3906 39.4785H16.4141C16.058 39.4785 15.7695 39.767 15.7695 40.123C15.7695 40.4791 16.058 40.7676 16.4141 40.7676H18.3906C18.7467 40.7676 19.0352 40.4791 19.0352 40.123C19.0352 39.767 18.7467 39.4785 18.3906 39.4785Z" fill="black"/>
<path d="M17.2734 41.0059H16.4141C16.058 41.0059 15.7695 41.2944 15.7695 41.6504C15.7695 42.0064 16.058 42.2949 16.4141 42.2949H17.2734C17.6295 42.2949 17.918 42.0064 17.918 41.6504C17.918 41.2944 17.6295 41.0059 17.2734 41.0059Z" fill="black"/>
<path d="M27.2678 40.3477H25.8114C25.4554 40.3477 25.1669 40.6361 25.1669 40.9922C25.1669 41.3482 25.4554 41.6367 25.8114 41.6367H27.2678C27.6238 41.6367 27.9123 41.3482 27.9123 40.9922C27.9123 40.6361 27.6238 40.3477 27.2678 40.3477Z" fill="black"/>
<path d="M26.5395 36.3945C25.6544 36.3945 24.9344 37.1145 24.9344 37.9996C24.9344 38.8847 25.6544 39.6046 26.5395 39.6046C27.4246 39.6046 28.1446 38.8847 28.1446 37.9996C28.1446 37.1145 27.4246 36.3945 26.5395 36.3945ZM26.5395 38.3155C26.3653 38.3155 26.2235 38.1738 26.2235 37.9995C26.2235 37.8253 26.3652 37.6835 26.5395 37.6835C26.7137 37.6835 26.8555 37.8252 26.8555 37.9995C26.8555 38.1738 26.7138 38.3155 26.5395 38.3155Z" fill="black"/>
<path d="M23.2891 36.3945H20.7109C20.2134 36.3945 19.8086 36.7993 19.8086 37.2969V38.7022C19.8086 39.1998 20.2134 39.6046 20.7109 39.6046H23.2891C23.7866 39.6046 24.1914 39.1998 24.1914 38.7022V37.2969C24.1914 36.7993 23.7866 36.3945 23.2891 36.3945ZM22.9023 38.3155H21.0977V37.6836H22.9023V38.3155Z" fill="black"/>
</svg>
