<svg width="44" height="44" viewBox="0 0 44 44" fill="none" xmlns="http://www.w3.org/2000/svg">
<g clip-path="url(#clip0)">
<path d="M20.2168 29.7918C19.6361 29.7962 18.9264 29.5686 18.4816 29.156L12.0813 23.2183C10.8033 21.9403 11.5264 20.3397 11.9561 19.8764C12.8426 18.9207 14.3418 18.8643 15.2976 19.7512L19.6982 23.8336L27.5829 12.4452C28.3255 11.3733 29.8015 11.1051 30.8731 11.847C31.9453 12.5892 32.2135 14.0649 31.4716 15.1371C31.4716 15.1371 22.0443 28.7535 22.0339 28.7686C21.5861 29.4152 20.9661 29.7861 20.2168 29.7918ZM12.901 20.7533C12.4868 21.1672 12.5294 21.8758 12.9578 22.2733L19.3581 28.211C19.5864 28.4225 19.8976 28.5259 20.2064 28.4917C20.5166 28.4578 20.7965 28.2913 20.9741 28.0348L30.4115 14.4033C30.7492 13.9159 30.627 13.2445 30.1396 12.9071C29.6518 12.5694 28.9804 12.6913 28.6427 13.179L20.335 25.1791C20.2286 25.3325 20.0607 25.4325 19.8747 25.453C19.6891 25.4728 19.5038 25.4117 19.3665 25.2845C19.3665 25.2845 14.4271 20.7022 14.4211 20.6962C14.2237 20.5133 13.4754 20.1786 12.901 20.7533Z" fill="black"/>
<path d="M22.0645 44C21.8926 44 21.7201 43.9617 21.5647 43.8889C14.1737 40.4269 8.54514 34.8305 4.83539 27.2553C1.76984 20.9953 0.921204 15.073 0.69864 12.8171C0.601288 11.8278 1.14914 10.9047 2.0629 10.5203C5.71491 8.98383 8.18695 5.57486 8.51459 1.62408C8.59113 0.698242 9.34543 0 10.2686 0H33.8604C34.7698 0 35.5399 0.706299 35.6131 1.60831C35.935 5.56177 38.4037 8.97476 42.0557 10.5159C42.9755 10.9043 43.5277 11.8292 43.4304 12.8178C43.2075 15.0736 42.3589 20.9963 39.2933 27.256C35.5836 34.8309 29.955 40.4269 22.564 43.8889C22.4086 43.9617 22.2361 44 22.0645 44ZM10.2686 1.28906C10.0219 1.28906 9.8201 1.47906 9.79929 1.73083C9.4317 6.16199 6.65888 9.9852 2.56274 11.7086C2.17334 11.8725 1.9397 12.2669 1.98166 12.6909C2.19717 14.8769 3.01996 20.6169 5.9932 26.6883C9.56229 33.9769 14.9693 39.3637 22.0645 42.6995C29.1591 39.3641 34.5664 33.9772 38.1355 26.6893C41.1091 20.618 41.9319 14.8776 42.1474 12.6916C42.1893 12.2679 41.951 11.8711 41.5549 11.7036C37.4584 9.97513 34.6893 6.14688 34.3284 1.71271C34.3089 1.47504 34.1035 1.28906 33.8604 1.28906H10.2686Z" fill="black"/>
<path d="M35.4849 26.6957C35.1713 26.5272 35.0407 26.1469 35.2015 25.8296C35.9656 24.3237 36.6208 22.7641 37.1741 21.1692C37.6504 19.7952 38.0519 18.3954 38.3795 16.9787C38.6192 15.9428 38.82 14.8974 38.9737 13.845C38.9761 13.8289 38.9784 13.8128 38.9808 13.7964C35.3355 11.7906 32.6912 8.33832 31.7066 4.29858H12.4224C12.0417 5.86057 11.4156 7.33997 10.5606 8.69785C10.371 8.99896 9.97317 9.08926 9.67171 8.89993C9.3706 8.71027 9.27996 8.31213 9.46963 8.01102C10.2679 6.74377 10.8473 5.35971 11.1927 3.8981C11.3163 3.37476 11.7789 3.00952 12.3176 3.00952H31.811C32.3498 3.00952 32.8124 3.37509 32.9363 3.8981C33.8235 7.65686 36.2815 10.8684 39.6793 12.7094C40.1003 12.937 40.3376 13.4106 40.2698 13.887C40.1033 15.0633 39.8824 16.2321 39.6132 17.3889C39.2745 18.8435 38.8576 20.2803 38.3631 21.6898C37.8025 23.2874 37.1153 24.9014 36.3513 26.4127C36.3513 26.4127 36.359 26.3973 36.3513 26.4127C36.2375 26.6366 35.8521 26.8931 35.4849 26.6957Z" fill="black"/>
<path d="M22.0644 40.645C21.8801 40.645 21.6962 40.601 21.5283 40.5134C15.4184 37.318 10.7116 32.4118 7.53798 25.9316C5.24486 21.2487 4.27169 16.797 3.85878 13.8869C3.79131 13.4105 4.02865 12.9369 4.44927 12.7093C5.6393 12.0648 6.72158 11.2504 7.66689 10.2893C7.91631 10.0352 8.32451 10.0318 8.5783 10.2816C8.83208 10.531 8.83544 10.9392 8.58602 11.193C7.57323 12.2225 6.4171 13.098 5.14818 13.7963C5.48555 16.1307 6.38991 20.6558 8.69579 25.3646C11.7352 31.5716 16.2328 36.2726 22.0644 39.3388C26.8863 36.8033 30.8136 33.1339 33.7375 28.4315C33.9255 28.129 34.323 28.0364 34.6254 28.2244C34.9275 28.4123 35.0202 28.8098 34.8322 29.1123C31.7727 34.0325 27.6574 37.8685 22.6005 40.5134C22.4327 40.601 22.2484 40.645 22.0644 40.645Z" fill="black"/>
</g>
<defs>
<clipPath id="clip0">
<rect width="44" height="44" fill="white"/>
</clipPath>
</defs>
</svg>
