<svg width="44" height="44" viewBox="0 0 44 44" fill="none" xmlns="http://www.w3.org/2000/svg">
<g clip-path="url(#clip0)">
<path d="M9.22557 14.7788C8.86956 14.7788 8.58093 15.0674 8.58093 15.4234V15.9568C8.58093 16.3128 8.86956 16.6014 9.22557 16.6014C9.58158 16.6014 9.8702 16.3128 9.8702 15.9568V15.4234C9.8702 15.0674 9.58158 14.7788 9.22557 14.7788Z" fill="black"/>
<path d="M9.22557 27.3984C8.86956 27.3984 8.58093 27.6871 8.58093 28.0431V28.5764C8.58093 28.9324 8.86956 29.221 9.22557 29.221C9.58158 29.221 9.8702 28.9324 9.8702 28.5764V28.0431C9.8702 27.6871 9.58158 27.3984 9.22557 27.3984Z" fill="black"/>
<path d="M16.1169 10.2275H15.3255C14.9695 10.2275 14.6808 10.5162 14.6808 10.8722C14.6808 11.2282 14.9695 11.5168 15.3255 11.5168H16.1169C17.173 11.5168 18.0322 12.376 18.0322 13.4321V15.9567C18.0322 16.3127 18.3208 16.6013 18.6768 16.6013C19.0328 16.6013 19.3214 16.3127 19.3214 15.9567V13.4321C19.3214 11.6651 17.8839 10.2275 16.1169 10.2275Z" fill="black"/>
<path d="M13.2493 17.2533C12.8204 17.2533 12.4715 16.9043 12.4715 16.4755V14.3446C12.4715 13.9886 12.1829 13.7 11.8269 13.7C11.4709 13.7 11.1823 13.9886 11.1823 14.3446V16.4755C11.1823 17.6153 12.1096 18.5425 13.2493 18.5425C13.6053 18.5425 13.8939 18.2539 13.8939 17.8979C13.8939 17.5419 13.6054 17.2533 13.2493 17.2533Z" fill="black"/>
<path d="M18.6768 27.3984C18.3208 27.3984 18.0322 27.6871 18.0322 28.0431V30.5677C18.0322 31.6238 17.173 32.483 16.1169 32.483H15.3255C14.9695 32.483 14.6808 32.7716 14.6808 33.1276C14.6808 33.4836 14.9695 33.7722 15.3255 33.7722H16.1169C17.8839 33.7722 19.3214 32.3347 19.3214 30.5677V28.0431C19.3214 27.6871 19.0328 27.3984 18.6768 27.3984Z" fill="black"/>
<path d="M13.2493 25.4573C12.1095 25.4573 11.1823 26.3846 11.1823 27.5243V29.6552C11.1823 30.0112 11.4709 30.2998 11.8269 30.2998C12.1829 30.2998 12.4715 30.0112 12.4715 29.6552V27.5243C12.4715 27.0954 12.8205 26.7465 13.2493 26.7465C13.6053 26.7465 13.8939 26.4579 13.8939 26.1019C13.8939 25.7459 13.6054 25.4573 13.2493 25.4573Z" fill="black"/>
<path d="M26.7399 16.1172C26.3838 16.1172 26.0952 16.4058 26.0952 16.7618C26.0952 17.1178 26.3838 17.4065 26.7399 17.4065H27.7328C28.0889 17.4065 28.3775 17.1178 28.3775 16.7618C28.3775 16.4058 28.0889 16.1172 27.7328 16.1172H26.7399Z" fill="black"/>
<path d="M32.9036 16.1172H30.4801C30.1241 16.1172 29.8354 16.4058 29.8354 16.7618C29.8354 17.1178 30.1241 17.4064 30.4801 17.4064H33.1706C33.3416 17.4064 33.5056 17.3385 33.6264 17.2176L37.269 13.5749C37.4535 13.6369 37.6502 13.6721 37.8553 13.6721C38.8719 13.6721 39.6991 12.845 39.6991 11.8284C39.6991 10.8117 38.8719 9.98462 37.8553 9.98462C36.8386 9.98462 36.0115 10.8117 36.0115 11.8284C36.0115 12.1668 36.1047 12.4832 36.2645 12.7561L32.9036 16.1172ZM37.8553 11.2738C38.161 11.2738 38.4098 11.5225 38.4098 11.8283C38.4098 12.134 38.161 12.3827 37.8553 12.3827C37.5495 12.3827 37.3008 12.134 37.3008 11.8283C37.3008 11.5225 37.5496 11.2738 37.8553 11.2738Z" fill="black"/>
<path d="M42.1563 21.9873C41.3666 21.9873 40.6933 22.4872 40.4311 23.1864H22.6711V21.1608H36.3248C36.4958 21.1608 36.6597 21.0929 36.7806 20.972L38.175 19.5776C38.3685 19.6467 38.5759 19.6863 38.7928 19.6863C39.8094 19.6863 40.6366 18.8592 40.6366 17.8426C40.6366 16.826 39.8094 15.9989 38.7928 15.9989C37.7761 15.9989 36.949 16.826 36.949 17.8426C36.949 18.1698 37.0356 18.4768 37.1858 18.7435L36.0578 19.8715H22.6711V17.4064H23.9927C24.3487 17.4064 24.6373 17.1178 24.6373 16.7618C24.6373 16.4057 24.3487 16.1171 23.9927 16.1171H22.6711V13.4436H28.5388C28.7098 13.4436 28.8738 13.3757 28.9946 13.2548L30.6075 11.6419C30.7938 11.7054 30.9927 11.7414 31.2002 11.7414C32.2169 11.7414 33.044 10.9143 33.044 9.89769C33.044 8.88106 32.2169 8.05395 31.2002 8.05395C30.1836 8.05395 29.3565 8.88106 29.3565 9.89769C29.3565 10.2338 29.4484 10.5483 29.6062 10.8199L28.2718 12.1543H22.6711V7.61706C22.6711 5.20612 20.7096 3.24463 18.2987 3.24463C16.6261 3.24463 15.1366 4.17969 14.401 5.63184C13.935 5.46698 13.4413 5.38138 12.9441 5.38138C10.7045 5.38138 8.85436 7.07788 8.6094 9.25314H8.25012C5.92883 9.25314 4.04031 11.1417 4.04031 13.4629C4.04031 14.2872 4.28072 15.0814 4.72044 15.7569C3.57102 16.0815 2.52723 16.7205 1.70545 17.6163C0.605699 18.8152 0 20.372 0 21.9999C0 23.6278 0.605699 25.1845 1.70545 26.3833C2.52723 27.2791 3.57102 27.9181 4.72044 28.2427C4.28072 28.9183 4.04031 29.7124 4.04031 30.5366C4.04031 32.8579 5.92883 34.7465 8.25012 34.7465H8.6094C8.85444 36.9217 10.7045 38.6182 12.9441 38.6182C13.4413 38.6182 13.935 38.5327 14.401 38.3678C15.1367 39.82 16.6261 40.755 18.2987 40.755C20.7096 40.755 22.6711 38.7935 22.6711 36.3825V31.8451H28.2718L29.6062 33.1795C29.4484 33.4512 29.3565 33.7656 29.3565 34.1017C29.3565 35.1184 30.1836 35.9455 31.2002 35.9455C32.2169 35.9455 33.044 35.1184 33.044 34.1017C33.044 33.0851 32.2169 32.258 31.2002 32.258C30.9927 32.258 30.7938 32.294 30.6075 32.3575L28.9946 30.7447C28.8738 30.6237 28.7098 30.5558 28.5388 30.5558H22.6711V27.8825H24.9533C25.3093 27.8825 25.5979 27.5938 25.5979 27.2378C25.5979 26.8818 25.3093 26.5932 24.9533 26.5932H22.6711V24.4757H40.431C40.6933 25.1749 41.3665 25.6749 42.1563 25.6749C43.1729 25.6749 44 24.8478 44 23.8311C44 22.8145 43.1729 21.9873 42.1563 21.9873ZM38.7928 17.2882C39.0985 17.2882 39.3473 17.537 39.3473 17.8427C39.3473 18.1484 39.0985 18.3971 38.7928 18.3971C38.487 18.3971 38.2383 18.1484 38.2383 17.8427C38.2383 17.537 38.4871 17.2882 38.7928 17.2882ZM31.2002 9.34339C31.506 9.34339 31.7547 9.59213 31.7547 9.89786C31.7547 10.2036 31.506 10.4523 31.2002 10.4523C30.8945 10.4523 30.6458 10.2036 30.6458 9.89786C30.6458 9.59213 30.8945 9.34339 31.2002 9.34339ZM31.7547 34.1019C31.7547 34.4076 31.506 34.6564 31.2002 34.6564C30.8945 34.6564 30.6458 34.4076 30.6458 34.1019C30.6458 33.7962 30.8945 33.5474 31.2002 33.5474C31.506 33.5474 31.7547 33.7962 31.7547 34.1019ZM21.3818 36.3827C21.3818 38.0827 19.9987 39.4659 18.2987 39.4659C16.9478 39.4659 15.7664 38.6012 15.3591 37.3143C15.3007 37.1299 15.1627 36.9815 14.983 36.9099C14.8032 36.8383 14.6011 36.8513 14.4319 36.9451C13.9789 37.1962 13.4644 37.329 12.9441 37.329C11.2491 37.329 9.87021 35.9501 9.87021 34.2552V31.3202C9.87021 30.9642 9.58159 30.6755 9.22558 30.6755C8.86957 30.6755 8.58095 30.9642 8.58095 31.3202V33.4573H8.25012C6.63974 33.4573 5.32958 32.1471 5.32958 30.5367C5.32958 29.6777 5.70622 28.8658 6.36297 28.3088C6.56092 28.1408 6.63888 27.8706 6.56075 27.6231C6.48262 27.3755 6.26361 27.199 6.00507 27.1753C4.72079 27.0571 3.53122 26.4663 2.65555 25.5118C1.77446 24.5514 1.28927 23.3042 1.28927 21.9999C1.28927 20.6956 1.77446 19.4483 2.65555 18.488C3.53122 17.5335 4.72079 16.9427 6.00507 16.8245C6.26361 16.8008 6.48262 16.6242 6.56075 16.3767C6.63896 16.1292 6.56092 15.8589 6.36297 15.691C5.70622 15.1341 5.32958 14.322 5.32958 13.463C5.32958 11.8526 6.63974 10.5425 8.25012 10.5425H8.58095V12.6796C8.58095 13.0356 8.86957 13.3242 9.22558 13.3242C9.58159 13.3242 9.87021 13.0356 9.87021 12.6796V9.74461C9.87021 8.04965 11.2491 6.67073 12.9441 6.67073C13.4644 6.67073 13.9789 6.80353 14.4319 7.05468C14.601 7.14836 14.8032 7.16134 14.983 7.08983C15.1627 7.01823 15.3007 6.86988 15.3591 6.68543C15.7664 5.39848 16.9478 4.5339 18.2987 4.5339C19.9987 4.5339 21.3818 5.91703 21.3818 7.61706V36.3827ZM42.1563 24.3856C41.8505 24.3856 41.6018 24.1369 41.6018 23.8311C41.6018 23.5253 41.8505 23.2766 42.1563 23.2766C42.462 23.2766 42.7107 23.5253 42.7107 23.8311C42.7107 24.1369 42.462 24.3856 42.1563 24.3856Z" fill="black"/>
<path d="M37.8554 30.3273C37.6503 30.3273 37.4535 30.3624 37.2691 30.4246L33.6265 26.7819C33.5056 26.6609 33.3416 26.593 33.1707 26.593H27.7005C27.3445 26.593 27.0559 26.8816 27.0559 27.2377C27.0559 27.5937 27.3445 27.8823 27.7005 27.8823H32.9037L36.2647 31.2433C36.105 31.5162 36.0117 31.8326 36.0117 32.1711C36.0117 33.1877 36.8388 34.0148 37.8555 34.0148C38.8722 34.0148 39.6993 33.1877 39.6993 32.1711C39.6993 31.1545 38.872 30.3273 37.8554 30.3273ZM37.8554 32.7256C37.5495 32.7256 37.3008 32.4769 37.3008 32.1712C37.3008 31.8654 37.5495 31.6167 37.8554 31.6167C38.1611 31.6167 38.4098 31.8654 38.4098 32.1712C38.4098 32.4769 38.1611 32.7256 37.8554 32.7256Z" fill="black"/>
</g>
<defs>
<clipPath id="clip0">
<rect width="44" height="44" fill="white"/>
</clipPath>
</defs>
</svg>
