<svg width="20" height="20" viewBox="0 0 20 20" fill="none" xmlns="http://www.w3.org/2000/svg">
<g clip-path="url(#clip0)">
<path d="M4.82713 9.45117L14.0777 0.226167C14.3808 -0.0759023 14.8715 -0.0753945 15.1741 0.227729C15.4764 0.530814 15.4756 1.02179 15.1725 1.32409L6.47255 10L15.1728 18.6759C15.4759 18.9783 15.4767 19.4689 15.1744 19.7721C15.0227 19.924 14.824 20 14.6253 20C14.4271 20 14.2292 19.9245 14.0778 19.7736L4.82713 10.5489C4.68115 10.4036 4.59924 10.206 4.59924 10C4.59924 9.7941 4.68139 9.59668 4.82713 9.45117Z" fill="black"/>
</g>
<defs>
<clipPath id="clip0">
<rect width="20" height="20" fill="white" transform="matrix(-1 0 0 1 20 0)"/>
</clipPath>
</defs>
</svg>
