<svg width="33" height="33" viewBox="0 0 33 33" fill="none" xmlns="http://www.w3.org/2000/svg">
<g clip-path="url(#clip0)">
<path d="M22.6875 4.70458C22.8436 4.70458 23.0025 4.73328 23.1566 4.79345C23.8195 5.05277 24.147 5.80028 23.8879 6.46344L21.2074 13.3219C20.6497 14.7492 20.3669 16.2495 20.3669 17.7818L20.3669 23.1387C20.3669 24.5602 21.5236 25.7168 22.9451 25.7168L27.8435 25.7168C29.265 25.7168 30.4216 24.5602 30.4216 23.1387L30.4216 18.2402C30.4216 16.8187 29.265 15.6621 27.8435 15.6621L25.1365 15.6621C24.4245 15.6621 23.8474 15.0851 23.8474 14.373C23.8474 13.661 24.4245 13.084 25.1365 13.084L27.8435 13.084C30.6867 13.084 32.9998 15.397 32.9998 18.2402L32.9998 23.1387C32.9998 25.9819 30.6867 28.2949 27.8435 28.2949L22.9451 28.2949C20.1018 28.2949 17.7888 25.9819 17.7888 23.1387L17.7888 17.7818C17.7888 15.9272 18.1312 14.111 18.8062 12.3836L21.4866 5.52484C21.6855 5.01602 22.1724 4.70458 22.6875 4.70458ZM3.6975 5.52484L1.01716 12.3836C0.342161 14.111 -0.000246874 15.9272 -0.000247036 17.7818L-0.000247505 23.1387C-0.000247753 25.9819 2.31276 28.2949 5.156 28.2949L10.0544 28.2949C12.8977 28.2949 15.2107 25.9819 15.2107 23.1387L15.2107 18.2402C15.2107 15.397 12.8977 13.084 10.0544 13.084L7.34741 13.084C6.6354 13.084 6.05835 13.661 6.05835 14.373C6.05835 15.0851 6.6354 15.6621 7.34741 15.6621L10.0544 15.6621C11.4759 15.6621 12.6326 16.8187 12.6326 18.2402L12.6326 23.1387C12.6326 24.5602 11.4759 25.7168 10.0544 25.7168L5.156 25.7168C3.73451 25.7168 2.57788 24.5602 2.57788 23.1387L2.57788 17.7818C2.57788 16.2497 2.86062 14.7492 3.41829 13.3219L6.09888 6.46344C6.35795 5.80028 6.0304 5.05277 5.36749 4.79345C5.21316 4.73328 5.05454 4.70483 4.89844 4.70483C4.38332 4.70457 3.8964 5.01601 3.6975 5.52484Z" fill="black"/>
</g>
<defs>
<clipPath id="clip0">
<rect width="33" height="33" fill="white" transform="translate(32.9998 33) rotate(-180)"/>
</clipPath>
</defs>
</svg>
