<svg width="11" height="22" viewBox="0 0 11 22" fill="none" xmlns="http://www.w3.org/2000/svg">
<path d="M0 22C0.720874 19.9043 1.26102 17.7506 1.61453 15.5624L4.2235 15.2937C3.58567 17.5567 2.72093 19.7492 1.64247 21.8377L0 22ZM1.15644 7.80928C1.14344 7.5929 1.1749 7.37615 1.24886 7.17244C1.32283 6.96873 1.43773 6.78241 1.58645 6.62498C1.73518 6.46756 1.91456 6.3424 2.11351 6.25725C2.31245 6.17209 2.52671 6.12875 2.74304 6.12991C3.18754 6.12991 3.61383 6.30683 3.92814 6.62177C4.24245 6.93672 4.41903 7.36388 4.41903 7.80928C4.41903 8.25468 4.24245 8.68183 3.92814 8.99677C3.61383 9.31171 3.18754 9.48865 2.74304 9.48865C2.52648 9.49064 2.31183 9.44784 2.1125 9.36297C1.91317 9.2781 1.73345 9.15297 1.58456 8.99537C1.43567 8.83777 1.3208 8.6511 1.24714 8.44702C1.17348 8.24295 1.14261 8.02585 1.15644 7.80928Z" fill="#FF0000"/>
<path d="M5.64246 21.9439C7.93094 18.7376 9.11896 14.8736 9.02796 10.9327C9.12978 7.01463 7.93989 3.17214 5.64246 0H7.47487C9.18997 2.20558 10.9944 5.65391 10.9944 10.9607C11.093 14.915 9.85241 18.7862 7.47487 21.9439H5.64246Z" fill="#FF0000"/>
</svg>
