<svg width="25" height="25" viewBox="0 0 25 25" fill="none" xmlns="http://www.w3.org/2000/svg">
<path d="M12.5 25C11.8942 25 11.4014 24.5071 11.4014 23.9014C11.4014 23.8819 11.4019 23.8625 11.4029 23.8433L5.2543 21.2965C5.05308 21.52 4.76167 21.6606 4.43799 21.6606C3.83223 21.6606 3.33936 21.1678 3.33936 20.562C3.33936 19.9562 3.83223 19.4634 4.43799 19.4634C5.04375 19.4634 5.53662 19.9562 5.53662 20.562C5.53662 20.5815 5.53608 20.6008 5.53511 20.6201L11.6837 23.1668C11.8849 22.9434 12.1763 22.8027 12.5 22.8027C12.8237 22.8027 13.1151 22.9434 13.3163 23.1668L19.4649 20.6201C19.4639 20.6008 19.4634 20.5815 19.4634 20.562C19.4634 19.9562 19.9562 19.4634 20.562 19.4634C21.1678 19.4634 21.6606 19.9562 21.6606 20.562C21.6606 21.1678 21.1678 21.6606 20.562 21.6606C20.2383 21.6606 19.9469 21.52 19.7457 21.2965L13.5971 23.8433C13.5981 23.8626 13.5986 23.8819 13.5986 23.9014C13.5986 24.5071 13.1058 25 12.5 25ZM12.5 23.5352C12.298 23.5352 12.1338 23.6994 12.1338 23.9014C12.1338 24.1033 12.298 24.2676 12.5 24.2676C12.702 24.2676 12.8662 24.1033 12.8662 23.9014C12.8662 23.6994 12.702 23.5352 12.5 23.5352ZM20.562 20.1958C20.36 20.1958 20.1958 20.36 20.1958 20.562C20.1958 20.7639 20.36 20.9282 20.562 20.9282C20.7639 20.9282 20.9282 20.7639 20.9282 20.562C20.9282 20.36 20.7639 20.1958 20.562 20.1958ZM4.43804 20.1958C4.23608 20.1958 4.07183 20.36 4.07183 20.562C4.07183 20.7639 4.23608 20.9282 4.43804 20.9282C4.63999 20.9282 4.80425 20.7639 4.80425 20.562C4.80425 20.36 4.63994 20.1958 4.43804 20.1958ZM12.5 20.6055C8.03062 20.6055 4.39453 16.9694 4.39453 12.5C4.39453 8.03062 8.03062 4.39453 12.5 4.39453C14.0844 4.39453 15.6193 4.85176 16.9387 5.71685C17.1078 5.82773 17.155 6.05479 17.0441 6.22393C16.9333 6.39312 16.7061 6.44023 16.5371 6.32939C16.1233 6.05811 15.6862 5.83096 15.232 5.64971C15.5605 5.98345 15.8666 6.38052 16.1446 6.83706C16.3176 7.12124 16.4762 7.4229 16.6195 7.73926H18.1318C17.9501 7.52559 17.7551 7.32065 17.5472 7.12524C17.3997 6.98677 17.3925 6.75503 17.531 6.60762C17.6695 6.46011 17.9013 6.45293 18.0486 6.59145C19.6735 8.11787 20.6055 10.2714 20.6055 12.5C20.6055 16.9694 16.9694 20.6055 12.5 20.6055ZM12.8662 17.2607V19.8467C13.8568 19.7039 14.7876 18.9833 15.519 17.782C15.6209 17.6147 15.7173 17.4409 15.8081 17.2607H12.8662ZM9.19189 17.2607C9.28267 17.4408 9.37905 17.6147 9.48096 17.782C10.2124 18.9834 11.1432 19.7039 12.1338 19.8467V17.2607H9.19189ZM16.6196 17.2607C16.4762 17.5771 16.3177 17.8787 16.1446 18.1629C15.8675 18.618 15.5625 19.0141 15.2351 19.3472C16.362 18.8954 17.3528 18.1728 18.1258 17.2608H16.6196V17.2607ZM6.87417 17.2607C7.64717 18.1728 8.63799 18.8954 9.76484 19.3471C9.4375 19.0141 9.13242 18.618 8.85532 18.1629C8.68227 17.8787 8.52373 17.5771 8.38037 17.2607H6.87417V17.2607ZM16.915 16.5283H18.6728C19.3687 15.4654 19.7979 14.2126 19.8641 12.8662H17.5731C17.5374 14.17 17.3106 15.4197 16.915 16.5283ZM12.8662 16.5283H16.1338C16.5583 15.44 16.8023 14.1854 16.8405 12.8662H12.8662V16.5283ZM8.86616 16.5283H12.1338V12.8662H8.15952C8.19771 14.1854 8.44175 15.44 8.86616 16.5283ZM6.3272 16.5283H8.08501C7.68936 15.4197 7.46265 14.17 7.42686 12.8662H5.13594C5.20215 14.2126 5.63125 15.4654 6.3272 16.5283ZM17.5731 12.1338H19.8643C19.8006 10.8095 19.3921 9.55669 18.6804 8.47168H16.915C17.3106 9.58027 17.5374 10.83 17.5731 12.1338ZM12.8662 12.1338H16.8405C16.8023 10.8146 16.5583 9.56001 16.1338 8.47168H12.8662V9.32617C12.8662 9.52847 12.7023 9.69238 12.5 9.69238C12.2977 9.69238 12.1338 9.52847 12.1338 9.32617V8.47168H8.86616C8.44175 9.56001 8.19771 10.8146 8.15952 12.1338H12.1338V10.791C12.1338 10.5887 12.2977 10.4248 12.5 10.4248C12.7023 10.4248 12.8662 10.5887 12.8662 10.791V12.1338ZM5.13594 12.1338H7.42686C7.46265 10.83 7.6894 9.58027 8.08501 8.47168H6.3272C5.63125 9.53457 5.20215 10.7874 5.13594 12.1338ZM12.8662 7.73926H15.8081C15.7173 7.55918 15.6209 7.3853 15.519 7.21797C14.7876 6.0166 13.8568 5.29614 12.8662 5.15327V7.73926ZM9.19189 7.73926H12.1338V5.15327C11.1432 5.29614 10.2124 6.01665 9.48096 7.21797C9.37905 7.3853 9.28267 7.55918 9.19189 7.73926ZM6.87417 7.73926H8.38042C8.52378 7.4229 8.68232 7.12129 8.85537 6.83706C9.13247 6.38198 9.43755 5.98589 9.76489 5.65283C8.63799 6.10464 7.64717 6.82725 6.87417 7.73926ZM21.3514 19.0221C21.3047 19.0221 21.2572 19.0131 21.2114 18.9941C21.0246 18.9167 20.9358 18.7025 21.0132 18.5156L23.1668 13.3163C22.9434 13.1151 22.8027 12.8237 22.8027 12.5C22.8027 12.1763 22.9434 11.8849 23.1668 11.6837L20.6201 5.53511C20.6008 5.53613 20.5815 5.53662 20.562 5.53662C19.9562 5.53662 19.4634 5.04375 19.4634 4.43799C19.4634 3.83223 19.9562 3.33936 20.562 3.33936C21.1678 3.33936 21.6606 3.83223 21.6606 4.43799C21.6606 4.76167 21.52 5.05308 21.2965 5.2543L23.8433 11.4029C23.8626 11.4019 23.8819 11.4014 23.9014 11.4014C24.5071 11.4014 25 11.8942 25 12.5C25 13.1058 24.5071 13.5986 23.9014 13.5986C23.8819 13.5986 23.8625 13.5981 23.8433 13.5971L21.6899 18.7959C21.6315 18.9369 21.4951 19.0221 21.3514 19.0221ZM23.9014 12.1338C23.6994 12.1338 23.5352 12.298 23.5352 12.5C23.5352 12.702 23.6994 12.8662 23.9014 12.8662C24.1033 12.8662 24.2676 12.702 24.2676 12.5C24.2676 12.298 24.1033 12.1338 23.9014 12.1338ZM20.562 4.07183C20.36 4.07183 20.1958 4.23608 20.1958 4.43804C20.1958 4.63999 20.36 4.80425 20.562 4.80425C20.7639 4.80425 20.9282 4.63999 20.9282 4.43804C20.9282 4.23608 20.7639 4.07183 20.562 4.07183ZM3.64858 19.0221C3.50488 19.0221 3.36855 18.937 3.31011 18.7959L1.15669 13.5971C1.1374 13.5981 1.11812 13.5986 1.09863 13.5986C0.492871 13.5986 0 13.1058 0 12.5C0 11.8942 0.492871 11.4014 1.09863 11.4014C1.11812 11.4014 1.13745 11.4019 1.15669 11.4029L3.70347 5.2543C3.48003 5.05308 3.33936 4.76167 3.33936 4.43799C3.33936 3.83223 3.83223 3.33936 4.43799 3.33936C4.76167 3.33936 5.05308 3.48003 5.2543 3.70347L11.4029 1.15669C11.4019 1.1374 11.4014 1.11812 11.4014 1.09863C11.4014 0.492871 11.8942 0 12.5 0C13.1058 0 13.5986 0.492871 13.5986 1.09863C13.5986 1.11812 13.5981 1.13745 13.5971 1.15669L18.8031 3.31309C18.99 3.39048 19.0788 3.60469 19.0013 3.79155C18.9239 3.97842 18.7097 4.06729 18.5229 3.98975L13.3163 1.83315C13.1151 2.05654 12.8236 2.19727 12.5 2.19727C12.1763 2.19727 11.8849 2.05659 11.6837 1.83315L5.53511 4.37993C5.53613 4.39922 5.53662 4.41851 5.53662 4.43799C5.53662 5.04375 5.04375 5.53662 4.43799 5.53662C4.41851 5.53662 4.39917 5.53608 4.37993 5.53511L1.83315 11.6837C2.05659 11.8849 2.19727 12.1763 2.19727 12.5C2.19727 12.8237 2.05659 13.1151 1.83315 13.3163L3.98672 18.5156C4.06416 18.7025 3.97544 18.9167 3.78853 18.9941C3.74272 19.0131 3.69526 19.0221 3.64858 19.0221ZM1.09863 12.1338C0.89668 12.1338 0.732422 12.298 0.732422 12.5C0.732422 12.702 0.89668 12.8662 1.09863 12.8662C1.30059 12.8662 1.46484 12.702 1.46484 12.5C1.46484 12.298 1.30059 12.1338 1.09863 12.1338ZM4.43804 4.07183C4.23608 4.07183 4.07183 4.23608 4.07183 4.43804C4.07183 4.63999 4.23608 4.80425 4.43804 4.80425C4.63999 4.80425 4.80425 4.63999 4.80425 4.43804C4.80425 4.23608 4.63994 4.07183 4.43804 4.07183ZM12.5 0.732422C12.298 0.732422 12.1338 0.89668 12.1338 1.09863C12.1338 1.30059 12.298 1.46484 12.5 1.46484C12.702 1.46484 12.8662 1.30059 12.8662 1.09863C12.8662 0.89668 12.702 0.732422 12.5 0.732422Z" fill="black"/>
</svg>
