<svg width="36" height="72" viewBox="0 0 36 72" fill="none" xmlns="http://www.w3.org/2000/svg">
<path d="M0 71.9998C2.35923 65.1412 4.127 58.0925 5.28394 50.9312L13.8224 50.0518C11.735 57.4579 8.90489 64.6334 5.37539 71.4685L0 71.9998ZM3.78472 25.5573C3.74218 24.8491 3.84513 24.1397 4.0872 23.4731C4.32927 22.8064 4.7053 22.1966 5.19204 21.6814C5.67878 21.1662 6.26587 20.7566 6.91695 20.4779C7.56804 20.1992 8.26927 20.0573 8.97726 20.0611C10.432 20.0611 11.8271 20.6401 12.8558 21.6709C13.8844 22.7016 14.4623 24.0996 14.4623 25.5573C14.4623 27.0149 13.8844 28.4129 12.8558 29.4436C11.8271 30.4743 10.432 31.0534 8.97726 31.0534C8.26849 31.0599 7.566 30.9199 6.91366 30.6421C6.26132 30.3643 5.67313 29.9548 5.18585 29.439C4.69856 28.9232 4.32264 28.3123 4.08156 27.6444C3.84049 26.9765 3.73945 26.266 3.78472 25.5573Z" fill="#00CDFF"/>
<path d="M18.4666 71.8165C25.9562 61.3232 29.8442 48.6773 29.5464 35.78C29.8796 22.957 25.9855 10.3816 18.4666 0H24.4636C30.0766 7.21829 35.9822 18.5038 35.9822 35.8716C36.3046 48.813 32.2446 61.4824 24.4636 71.8165H18.4666Z" fill="#00CDFF"/>
</svg>
