<svg width="120" height="20" viewBox="0 0 120 20" fill="none" xmlns="http://www.w3.org/2000/svg">
<path d="M10 0L12.2451 6.90983H19.5106L13.6327 11.1803L15.8779 18.0902L10 13.8197L4.12215 18.0902L6.36729 11.1803L0.489435 6.90983H7.75486L10 0Z" fill="#FF0000"/>
<path d="M35 0L37.2451 6.90983H44.5106L38.6327 11.1803L40.8779 18.0902L35 13.8197L29.1221 18.0902L31.3673 11.1803L25.4894 6.90983H32.7549L35 0Z" fill="#FF0000"/>
<path d="M60 0L62.2451 6.90983H69.5106L63.6327 11.1803L65.8779 18.0902L60 13.8197L54.1221 18.0902L56.3673 11.1803L50.4894 6.90983H57.7549L60 0Z" fill="#FF0000"/>
<path d="M85 0L87.2451 6.90983H94.5106L88.6327 11.1803L90.8779 18.0902L85 13.8197L79.1221 18.0902L81.3673 11.1803L75.4894 6.90983H82.7549L85 0Z" fill="#FF0000"/>
<path d="M110 1.61804L111.77 7.06434L111.882 7.40983H112.245H117.972L113.339 10.7758L113.045 10.9894L113.157 11.3348L114.927 16.7812L110.294 13.4152L110 13.2016L109.706 13.4152L105.073 16.7812L106.843 11.3348L106.955 10.9894L106.661 10.7758L102.028 7.40983H107.755H108.118L108.23 7.06434L110 1.61804Z" stroke="#FF0000"/>
</svg>
