<svg width="10" height="10" viewBox="0 0 10 10" fill="none" xmlns="http://www.w3.org/2000/svg">
<path d="M7.16809 2.95935L3.84412 6.28328L2.83186 5.27106C2.69238 5.13157 2.46627 5.13157 2.32678 5.27106C2.1873 5.41054 2.1873 5.63665 2.32678 5.77613L3.59158 7.04093C3.66131 7.1107 3.75269 7.14554 3.84412 7.14554C3.93551 7.14554 4.02694 7.11066 4.09666 7.04093L7.67317 3.46439C7.81265 3.32491 7.81265 3.0988 7.67317 2.95931C7.53373 2.81987 7.30754 2.81987 7.16809 2.95935Z" fill="#00FF0A"/>
<path d="M5 0C2.24298 0 0 2.24298 0 5C0 7.75702 2.24298 10 5 10C7.75702 10 10 7.75702 10 5C10 2.24298 7.75702 0 5 0ZM5 9.28571C2.63687 9.28571 0.714286 7.36314 0.714286 5C0.714286 2.63687 2.63687 0.714286 5 0.714286C7.36314 0.714286 9.28571 2.63687 9.28571 5C9.28571 7.36314 7.36314 9.28571 5 9.28571Z" fill="#00FF0A"/>
</svg>
