<svg width="50" height="50" viewBox="0 0 50 50" fill="none" xmlns="http://www.w3.org/2000/svg">
<g clip-path="url(#clip0)">
<path d="M29.591 12.765C29.0958 12.765 28.6953 13.1661 28.6953 13.6607V22.0589C28.6953 22.5533 29.0958 22.9546 29.591 22.9546H48.1787C48.6741 22.9546 49.0747 22.553 49.0747 22.0589C49.0747 21.5642 48.6741 21.1632 48.1787 21.1632H30.4869V14.5567H37.3173C37.8127 14.5567 38.2133 14.1551 38.2133 13.661V7.15987C38.2133 6.66549 37.8127 6.26415 37.3173 6.26415H25.0002C24.5045 6.26415 24.1044 6.66575 24.1044 7.15987V21.1632H13.5787V17.3561H20.7452C21.2406 17.3561 21.641 16.9545 21.641 16.4604V12.5411C21.641 12.0465 21.2409 11.6454 20.7452 11.6454H17.8891V8.05559H21.5287C22.0244 8.05559 22.4245 7.65451 22.4245 7.15987V0.895719C22.4247 0.40108 22.0244 0 21.5287 0C21.0333 0 20.633 0.40108 20.633 0.895719V6.2639H16.9934C16.498 6.2639 16.0977 6.66549 16.0977 7.15962V12.5411C16.0977 13.0355 16.4977 13.4368 16.9934 13.4368H19.8493V15.5641H13.5787V12.5411C13.5787 12.0465 13.1787 11.6454 12.683 11.6454H5.85263C5.35696 11.6454 4.95691 12.0465 4.95691 12.5411V15.5644H1.82138C1.32597 15.5644 0.925659 15.9655 0.925659 16.4601C0.925659 16.9545 1.32597 17.3558 1.82138 17.3558H4.95665V21.1632H1.82138C1.32597 21.1632 0.925659 21.5642 0.925659 22.0589C0.925659 22.5533 1.32597 22.9546 1.82138 22.9546H4.95665V26.2018H1.82138C1.32597 26.2018 0.925659 26.6027 0.925659 27.0978C0.925659 27.5922 1.32597 27.9935 1.82138 27.9935H4.95665V31.8008H1.82138C1.32597 31.8008 0.925659 32.2014 0.925659 32.6966C0.925659 33.1909 1.32597 33.5925 1.82138 33.5925H4.95665V35.9438H1.82138C1.32597 35.9438 0.925659 36.3444 0.925659 36.8398C0.925659 37.3342 1.32597 37.7355 1.82138 37.7355H4.95665V42.7744C4.95665 43.2688 5.35671 43.6701 5.85237 43.6701H12.6827C13.1781 43.6701 13.5785 43.2688 13.5785 42.7744V37.7355H16.2659V42.7744C16.2659 43.2688 16.6659 43.6701 17.1616 43.6701H29.9721L31.0639 49.275C31.1444 49.6958 31.5138 50.0003 31.9425 50.0003H48.1787C48.6741 50.0003 49.0747 49.5979 49.0747 49.1045C49.0747 48.6091 48.6741 48.2086 48.1787 48.2086H32.6807L31.589 42.6029C31.5087 42.1821 31.1393 41.8785 30.7106 41.8785H18.0576V36.8398C18.0576 36.3444 17.6575 35.9438 17.1618 35.9438H13.5787V33.5925H24.6643V36.8398C24.6643 37.3342 25.0643 37.7355 25.5602 37.7355H39.5569C40.0523 37.7355 40.4526 37.3342 40.4526 36.8398V32.5846H48.1789C48.6743 32.5846 49.0749 32.183 49.0749 31.6886C49.0749 31.1935 48.6743 30.7929 48.1789 30.7929H39.5569C39.0617 30.7929 38.6612 31.1935 38.6612 31.6886V35.9438H26.456V32.6966C26.456 32.2014 26.0554 31.8008 25.5602 31.8008H13.5787V27.9935H48.1787C48.6741 27.9935 49.0747 27.5922 49.0747 27.0978C49.0747 26.6027 48.6741 26.2018 48.1787 26.2018H13.5787V22.9546H25.0002C25.4956 22.9546 25.8959 22.553 25.8959 22.0589V8.05559H36.4216V12.765H29.591ZM11.787 41.8782H6.74809V36.8395V32.6963V13.4368H11.787V32.6963V36.8395V41.8782Z" fill="#00CDFF"/>
</g>
<defs>
<clipPath id="clip0">
<rect width="50" height="50" fill="white"/>
</clipPath>
</defs>
</svg>
