<svg width="81" height="80" viewBox="0 0 81 80" fill="none" xmlns="http://www.w3.org/2000/svg">
<path d="M59.6895 62.2863C83.1133 48.7794 72.0067 19.1935 55 29C45.5809 34.4313 38.3247 32.7382 29 27L28.8779 26.9248C22.3508 22.9075 10.4888 15.6067 8.70457 32.6256C6.53418 53.3276 30.5896 79.0661 59.6895 62.2863Z" fill="#A8EBFC" fill-opacity="0.54"/>
<g clip-path="url(#clip0)">
<path d="M41.5 22.6C41.8958 22.6 42.2166 22.2567 42.2166 21.8333V18.7667C42.2166 18.3433 41.8958 18 41.5 18C41.1042 18 40.7833 18.3433 40.7833 18.7667V21.8333C40.7833 22.2567 41.1041 22.6 41.5 22.6Z" fill="black"/>
<path d="M32.6377 21.5128L34.071 24.1678C34.2667 24.5358 34.7042 24.6645 35.0483 24.4552C35.3924 24.246 35.5127 23.7779 35.317 23.4098C35.3155 23.4068 35.3139 23.404 35.3123 23.401L33.879 20.7461C33.6833 20.378 33.2458 20.2493 32.9017 20.4586C32.5576 20.6679 32.4373 21.1359 32.633 21.504C32.6345 21.507 32.6361 21.5099 32.6377 21.5128Z" fill="black"/>
<path d="M26.859 28.2421C26.8617 28.2438 26.8645 28.2455 26.8672 28.2472L29.349 29.7805C29.6905 29.9946 30.1296 29.8721 30.3297 29.5068C30.5298 29.1415 30.4153 28.6718 30.0738 28.4577C30.0711 28.456 30.0684 28.4544 30.0656 28.4527L27.5838 26.9193C27.2423 26.7052 26.8033 26.8277 26.6031 27.193C26.403 27.5583 26.5175 28.028 26.859 28.2421Z" fill="black"/>
<path d="M28.6001 36.3998C28.6001 35.9764 28.2792 35.6332 27.8835 35.6332H25.0168C24.6211 35.6332 24.3002 35.9764 24.3002 36.3998C24.3002 36.8232 24.6211 37.1665 25.0168 37.1665H27.8835C28.2792 37.1665 28.6001 36.8232 28.6001 36.3998Z" fill="black"/>
<path d="M29.3574 43.014C29.3546 43.0157 29.3518 43.0174 29.3491 43.0191L26.8673 44.5524C26.5232 44.7616 26.4028 45.2297 26.5984 45.5978C26.7939 45.9659 27.2314 46.0947 27.5755 45.8855C27.5783 45.8837 27.5811 45.882 27.5839 45.8803L30.0656 44.347C30.4097 44.1378 30.5301 43.6697 30.3346 43.3016C30.139 42.9335 29.7015 42.8048 29.3574 43.014Z" fill="black"/>
<path d="M56.1411 44.5576C56.1383 44.5559 56.1355 44.5542 56.1328 44.5525L53.651 43.0191C53.3096 42.805 52.8704 42.9274 52.6702 43.2926C52.47 43.6579 52.5845 44.1276 52.9259 44.3418C52.9287 44.3435 52.9314 44.3453 52.9342 44.347L55.416 45.8803C55.7574 46.0945 56.1965 45.972 56.3968 45.6068C56.597 45.2415 56.4825 44.7718 56.1411 44.5576Z" fill="black"/>
<path d="M57.9832 35.6332H55.1166C54.7208 35.6332 54.3999 35.9764 54.3999 36.3998C54.3999 36.8232 54.7208 37.1665 55.1166 37.1665H57.9832C58.379 37.1665 58.6999 36.8232 58.6999 36.3998C58.6999 35.9764 58.379 35.6332 57.9832 35.6332Z" fill="black"/>
<path d="M53.2934 29.8832C53.4192 29.8832 53.5428 29.8477 53.6517 29.7804L56.1335 28.2471C56.4776 28.0378 56.5979 27.5698 56.4022 27.2017C56.2066 26.8336 55.7691 26.7049 55.425 26.9142C55.4222 26.9158 55.4195 26.9175 55.4168 26.9193L52.935 28.4526C52.5922 28.6643 52.4748 29.1332 52.6727 29.4998C52.8008 29.737 53.0374 29.8832 53.2934 29.8832Z" fill="black"/>
<path d="M47.9491 24.4487C47.9494 24.4488 47.9496 24.449 47.9499 24.4491C48.2927 24.6606 48.7311 24.5348 48.9288 24.168C48.9288 24.1679 48.9289 24.1678 48.9289 24.1678L50.3622 21.5128C50.5624 21.1476 50.4479 20.6778 50.1065 20.4637C49.7651 20.2495 49.326 20.3719 49.1258 20.7372C49.1241 20.7401 49.1225 20.7431 49.1209 20.7461L47.6876 23.401C47.4894 23.7676 47.6065 24.2366 47.9491 24.4487Z" fill="black"/>
<path d="M42.9333 48.6664C43.3291 48.6664 43.65 48.3231 43.65 47.8997V39.4665H45.0833C46.6665 39.4665 47.9499 38.0935 47.9499 36.3998C47.9499 34.7062 46.6665 33.3332 45.0833 33.3332C43.5001 33.3332 42.2166 34.7062 42.2166 36.3998V37.9331H40.7833V36.3998C40.7833 34.7062 39.4999 33.3332 37.9167 33.3332C36.3335 33.3332 35.05 34.7062 35.05 36.3998C35.05 38.0935 36.3335 39.4665 37.9167 39.4665H39.35V47.8997C39.35 48.3231 39.6709 48.6664 40.0667 48.6664C40.4624 48.6664 40.7833 48.3231 40.7833 47.8997V39.4665H42.2166V47.8997C42.2166 48.3231 42.5374 48.6664 42.9333 48.6664ZM43.65 36.3998C43.65 35.553 44.2916 34.8665 45.0833 34.8665C45.8749 34.8665 46.5166 35.553 46.5166 36.3998C46.5166 37.2467 45.8749 37.9331 45.0833 37.9331H43.65V36.3998ZM39.35 37.9331H37.9167C37.125 37.9331 36.4834 37.2467 36.4834 36.3998C36.4834 35.553 37.125 34.8665 37.9167 34.8665C38.7083 34.8665 39.35 35.553 39.35 36.3998V37.9331Z" fill="black"/>
<path d="M42.0569 24.1479C35.7314 23.8228 30.3571 29.0448 30.0533 35.8116C29.8792 39.6863 31.4287 43.4207 34.2317 45.8819C34.7368 46.3052 35.0374 46.949 35.0501 47.6352V49.433C35.0539 50.4042 35.6275 51.2682 36.4834 51.5919V52.4997C36.4853 53.0673 36.6845 53.6139 37.0424 54.033C36.2971 54.8997 36.2971 56.2329 37.0424 57.0996C36.2457 58.034 36.3078 59.4824 37.1813 60.3347C37.578 60.7219 38.0963 60.9354 38.6334 60.9329C39.0191 60.9437 39.3401 60.6179 39.3501 60.2052C39.3541 60.0443 39.3093 59.8861 39.2225 59.7546C39.1998 59.7077 39.1729 59.6632 39.1422 59.6219C39.0833 59.5642 39.016 59.5171 38.943 59.4824C38.9222 59.4709 38.9014 59.4617 38.8799 59.4525C38.8074 59.4242 38.7313 59.4079 38.6542 59.4042C38.647 59.4042 38.6406 59.3996 38.6334 59.3996C38.2376 59.3996 37.9167 59.0563 37.9167 58.6329C37.9167 58.2095 38.2376 57.8663 38.6334 57.8663H41.5C41.8958 57.8663 42.2167 57.523 42.2167 57.0996C42.2167 56.6762 41.8958 56.333 41.5 56.333H38.6334C38.2376 56.333 37.9167 55.9897 37.9167 55.5663C37.9167 55.1429 38.2376 54.7996 38.6334 54.7996H41.5C41.8958 54.7996 42.2167 54.4564 42.2167 54.033C42.2167 53.6096 41.8958 53.2663 41.5 53.2663H38.6334C38.2376 53.2663 37.9167 52.923 37.9167 52.4997V51.733H41.5C41.8958 51.733 42.2167 51.3897 42.2167 50.9663C42.2167 50.543 41.8958 50.1997 41.5 50.1997H37.2001C36.8043 50.1997 36.4834 49.8564 36.4834 49.433V47.6352C36.4717 46.4889 35.9782 45.409 35.1397 44.6951C30.8587 40.9314 30.2405 34.1677 33.7588 29.5881C35.7713 26.9684 38.8227 25.5202 41.9888 25.682C47.2837 26.0189 51.443 30.6611 51.5333 36.3347C51.559 39.598 50.1874 42.6944 47.8102 44.7395C46.978 45.4729 46.5021 46.5708 46.5166 47.7241V49.433C46.5166 49.8564 46.1958 50.1997 45.8 50.1997H43.65C43.2542 50.1997 42.9333 50.543 42.9333 50.9663C42.9333 51.3897 43.2542 51.733 43.65 51.733H45.0833V52.4997C45.0833 52.923 44.7624 53.2663 44.3667 53.2663H43.65C43.2542 53.2663 42.9333 53.6096 42.9333 54.033C42.9333 54.4564 43.2542 54.7996 43.65 54.7996H44.3667C44.7624 54.7996 45.0833 55.1429 45.0833 55.5663C45.0833 55.9897 44.7624 56.333 44.3667 56.333H43.65C43.2542 56.333 42.9333 56.6762 42.9333 57.0996C42.9333 57.523 43.2542 57.8663 43.65 57.8663H44.3667C44.7624 57.8663 45.0833 58.2095 45.0833 58.6329C45.0833 59.0563 44.7624 59.3996 44.3667 59.3996H40.7834C40.3876 59.3996 40.0667 59.7429 40.0667 60.1662C40.0667 60.5896 40.3876 60.9329 40.7834 60.9329H43.5275C43.1318 62.1305 41.9034 62.7582 40.7839 62.3349C40.4412 62.2054 40.1348 61.9849 39.8933 61.6942C39.6301 61.3779 39.177 61.3498 38.8814 61.6313C38.5857 61.9129 38.5594 62.3976 38.8226 62.7139C40.1333 64.2938 42.3931 64.4381 43.87 63.036C44.4801 62.4569 44.8867 61.6722 45.0224 60.8118C46.1448 60.4365 46.7703 59.159 46.4195 57.9583C46.3264 57.6392 46.1686 57.3461 45.9577 57.0996C46.703 56.2329 46.703 54.8997 45.9577 54.033C46.3155 53.6139 46.5148 53.0673 46.5166 52.4997V51.5919C47.3726 51.2682 47.9462 50.4042 47.95 49.433V47.7241C47.9404 47.0354 48.2193 46.3781 48.7103 45.9325C51.4286 43.5946 52.9969 40.0542 52.9666 36.3232C52.863 29.8384 48.1089 24.5328 42.0569 24.1479Z" fill="black"/>
</g>
<defs>
<clipPath id="clip0">
<rect width="43" height="46" fill="white" transform="translate(20 18)"/>
</clipPath>
</defs>
</svg>
