<svg width="70" height="69" viewBox="0 0 70 69" fill="none" xmlns="http://www.w3.org/2000/svg">
<path d="M65.238 34.4152C70.6935 8.55768 38.4609 -0.273584 34.5001 18.5C32.3063 28.8978 29.5 33.9999 18.5001 33C9.41435 32.1742 -5.30419 41.372 11.4999 55C27.1326 67.6779 58.4606 66.5385 65.238 34.4152Z" fill="#A8EBFC" fill-opacity="0.54"/>
<path d="M56.6875 38.8751C57.2256 38.8768 57.7534 38.7275 58.2109 38.4441C58.6683 38.1607 59.0371 37.7546 59.2751 37.272C59.5132 36.7895 59.6111 36.2497 59.5576 35.7143C59.5041 35.1788 59.3014 34.6691 58.9726 34.2432C58.6437 33.8172 58.202 33.4921 57.6975 33.3048C57.193 33.1175 56.6461 33.0756 56.119 33.1837C55.5918 33.2919 55.1056 33.5458 54.7157 33.9166C54.3257 34.2875 54.0477 34.7603 53.9131 35.2813H51.2681C51.076 35.0653 50.8616 34.8701 50.6284 34.6991C50.8315 34.1991 50.9364 33.6647 50.9375 33.1251C50.9344 32.2306 50.6532 31.3593 50.133 30.6317C49.6127 29.9041 48.8791 29.3563 48.0337 29.0641C48.0266 28.9779 48.0122 28.8988 47.9978 28.8126H50.9375C51.0559 28.8119 51.1723 28.7821 51.2764 28.7257C51.3804 28.6692 51.469 28.588 51.5341 28.4891L52.7631 26.6563H53.9131C54.0881 27.3338 54.5041 27.9243 55.0833 28.317C55.6624 28.7098 56.3649 28.8778 57.0591 28.7896C57.7533 28.7015 58.3915 28.3631 58.854 27.8381C59.3166 27.313 59.5718 26.6373 59.5718 25.9376C59.5718 25.2378 59.3166 24.5621 58.854 24.037C58.3915 23.512 57.7533 23.1736 57.0591 23.0855C56.3649 22.9973 55.6624 23.1653 55.0833 23.5581C54.5041 23.9508 54.0881 24.5413 53.9131 25.2188H52.375C52.2566 25.2194 52.1402 25.2493 52.0361 25.3057C51.9321 25.3621 51.8435 25.4434 51.7784 25.5422L50.5494 27.3751H47.4803C47.1022 26.7201 46.5585 26.1761 45.9037 25.7977C45.249 25.4192 44.5063 25.2196 43.75 25.2188V23.4507L45.5828 22.2216C45.6817 22.1565 45.7629 22.068 45.8194 21.9639C45.8758 21.8598 45.9056 21.7434 45.9063 21.6251V20.0869C46.5838 19.912 47.1743 19.496 47.567 18.9168C47.9597 18.3376 48.1278 17.6351 48.0396 16.941C47.9514 16.2468 47.6131 15.6086 47.088 15.146C46.563 14.6834 45.8873 14.4282 45.1875 14.4282C44.4877 14.4282 43.812 14.6834 43.287 15.146C42.7619 15.6086 42.4236 16.2468 42.3354 16.941C42.2472 17.6351 42.4153 18.3376 42.808 18.9168C43.2007 19.496 43.7912 19.912 44.4688 20.0869V21.2369L42.6359 22.466C42.5371 22.5311 42.4558 22.6196 42.3994 22.7237C42.343 22.8278 42.3131 22.9442 42.3125 23.0626V25.4704C41.4725 25.7674 40.7451 26.3172 40.2303 27.0444C39.7155 27.7716 39.4385 28.6403 39.4375 29.5313V42.4688C39.4385 43.3598 39.7155 44.2285 40.2303 44.9557C40.7451 45.6829 41.4725 46.2328 42.3125 46.5297V48.9376C42.3131 49.0559 42.343 49.1723 42.3994 49.2764C42.4558 49.3805 42.5371 49.469 42.6359 49.5341L44.4688 50.7632V51.9132C43.7912 52.0881 43.2007 52.5042 42.808 53.0833C42.4153 53.6625 42.2472 54.365 42.3354 55.0591C42.4236 55.7533 42.7619 56.3915 43.287 56.8541C43.812 57.3167 44.4877 57.5719 45.1875 57.5719C45.8873 57.5719 46.563 57.3167 47.088 56.8541C47.6131 56.3915 47.9514 55.7533 48.0396 55.0591C48.1278 54.365 47.9597 53.6625 47.567 53.0833C47.1743 52.5042 46.5838 52.0881 45.9063 51.9132V50.3751C45.9056 50.2567 45.8758 50.1403 45.8194 50.0362C45.7629 49.9321 45.6817 49.8436 45.5828 49.7785L43.75 48.5494V46.7813C44.5063 46.7805 45.249 46.5809 45.9037 46.2024C46.5585 45.824 47.1022 45.28 47.4803 44.6251H50.5494L51.7784 46.4579C51.8435 46.5567 51.9321 46.638 52.0361 46.6944C52.1402 46.7508 52.2566 46.7807 52.375 46.7813H53.9131C54.0881 47.4588 54.5041 48.0493 55.0833 48.442C55.6624 48.8348 56.3649 49.0028 57.0591 48.9146C57.7533 48.8265 58.3915 48.4881 58.854 47.9631C59.3166 47.438 59.5718 46.7623 59.5718 46.0626C59.5718 45.3628 59.3166 44.6871 58.854 44.162C58.3915 43.637 57.7533 43.2986 57.0591 43.2105C56.3649 43.1223 55.6624 43.2903 55.0833 43.6831C54.5041 44.0758 54.0881 44.6663 53.9131 45.3438H52.7631L51.5341 43.511C51.469 43.4121 51.3804 43.3309 51.2764 43.2744C51.1723 43.218 51.0559 43.1882 50.9375 43.1876H47.9978C48.0375 42.9499 48.0591 42.7097 48.0625 42.4688C49.2062 42.4688 50.3031 42.0145 51.1119 41.2057C51.9207 40.3969 52.375 39.3001 52.375 38.1563C52.3739 37.6657 52.2863 37.179 52.1163 36.7188H53.9131C54.0721 37.3344 54.4306 37.8799 54.9326 38.2701C55.4346 38.6602 56.0517 38.873 56.6875 38.8751ZM56.6875 34.5626C56.9718 34.5626 57.2497 34.6469 57.4861 34.8048C57.7225 34.9628 57.9068 35.1873 58.0156 35.4499C58.1244 35.7126 58.1528 36.0016 58.0974 36.2805C58.0419 36.5593 57.905 36.8155 57.704 37.0165C57.5029 37.2176 57.2468 37.3545 56.9679 37.4099C56.6891 37.4654 56.4001 37.4369 56.1374 37.3281C55.8747 37.2193 55.6502 37.0351 55.4923 36.7987C55.3343 36.5623 55.25 36.2844 55.25 36.0001C55.2511 35.6192 55.403 35.2542 55.6723 34.9848C55.9416 34.7155 56.3066 34.5637 56.6875 34.5626ZM56.6875 24.5001C56.9718 24.5001 57.2497 24.5844 57.4861 24.7423C57.7225 24.9003 57.9068 25.1248 58.0156 25.3874C58.1244 25.6501 58.1528 25.9391 58.0974 26.218C58.0419 26.4968 57.905 26.753 57.704 26.954C57.5029 27.1551 57.2468 27.292 56.9679 27.3474C56.6891 27.4029 56.4001 27.3744 56.1374 27.2656C55.8747 27.1568 55.6502 26.9726 55.4923 26.7362C55.3343 26.4998 55.25 26.2219 55.25 25.9376C55.2511 25.5567 55.403 25.1917 55.6723 24.9223C55.9416 24.653 56.3066 24.5012 56.6875 24.5001ZM43.75 17.3126C43.75 17.0282 43.8343 16.7503 43.9923 16.5139C44.1502 16.2775 44.3747 16.0933 44.6374 15.9845C44.9001 15.8757 45.1891 15.8472 45.4679 15.9027C45.7468 15.9581 46.0029 16.0951 46.204 16.2961C46.405 16.4971 46.5419 16.7533 46.5974 17.0321C46.6528 17.311 46.6244 17.6 46.5156 17.8627C46.4068 18.1253 46.2225 18.3498 45.9861 18.5078C45.7497 18.6657 45.4718 18.7501 45.1875 18.7501C44.8066 18.7489 44.4416 18.5971 44.1723 18.3278C43.903 18.0584 43.7511 17.6935 43.75 17.3126ZM46.625 54.6876C46.625 54.9719 46.5407 55.2498 46.3827 55.4862C46.2248 55.7226 46.0003 55.9068 45.7376 56.0156C45.4749 56.1244 45.1859 56.1529 44.9071 56.0974C44.6282 56.042 44.3721 55.9051 44.171 55.704C43.97 55.503 43.8331 55.2468 43.7776 54.968C43.7222 54.6891 43.7506 54.4001 43.8594 54.1374C43.9682 53.8748 44.1525 53.6503 44.3889 53.4923C44.6253 53.3344 44.9032 53.2501 45.1875 53.2501C45.5684 53.2512 45.9334 53.403 46.2027 53.6723C46.472 53.9417 46.6239 54.3067 46.625 54.6876ZM56.6875 44.6251C56.9718 44.6251 57.2497 44.7094 57.4861 44.8673C57.7225 45.0253 57.9068 45.2498 58.0156 45.5124C58.1244 45.7751 58.1528 46.0641 58.0974 46.343C58.0419 46.6218 57.905 46.878 57.704 47.079C57.5029 47.2801 57.2468 47.417 56.9679 47.4724C56.6891 47.5279 56.4001 47.4994 56.1374 47.3906C55.8747 47.2818 55.6502 47.0976 55.4923 46.8612C55.3343 46.6248 55.25 46.3469 55.25 46.0626C55.2511 45.6817 55.403 45.3167 55.6723 45.0473C55.9416 44.778 56.3066 44.6262 56.6875 44.6251ZM48.0625 41.0313C47.9691 41.0313 47.89 41.0097 47.7966 41.0026C47.4969 40.1694 46.9475 39.449 46.2233 38.9396C45.4991 38.4303 44.6354 38.1567 43.75 38.1563V39.5938C44.3186 39.5938 44.8745 39.7624 45.3473 40.0783C45.8201 40.3942 46.1886 40.8432 46.4062 41.3686C46.6238 41.8939 46.6807 42.472 46.5698 43.0297C46.4588 43.5874 46.185 44.0997 45.7829 44.5017C45.3809 44.9038 44.8686 45.1776 44.3109 45.2886C43.7532 45.3995 43.1751 45.3426 42.6498 45.125C42.1244 44.9074 41.6754 44.5389 41.3595 44.0661C41.0436 43.5933 40.875 43.0374 40.875 42.4688V29.5313C40.875 28.9627 41.0436 28.4068 41.3595 27.934C41.6754 27.4612 42.1244 27.0928 42.6498 26.8751C43.1751 26.6575 43.7532 26.6006 44.3109 26.7115C44.8686 26.8225 45.3809 27.0963 45.7829 27.4984C46.185 27.9004 46.4588 28.4127 46.5698 28.9704C46.6807 29.5281 46.6238 30.1062 46.4062 30.6315C46.1886 31.1569 45.8201 31.6059 45.3473 31.9218C44.8745 32.2377 44.3186 32.4063 43.75 32.4063V33.8438C44.7109 33.8419 45.6437 33.519 46.4002 32.9266C47.1567 32.3341 47.6937 31.5059 47.9259 30.5735C48.5444 30.8803 49.0295 31.4023 49.2902 32.0416C49.5509 32.6808 49.5693 33.3932 49.3419 34.0451C48.9282 33.913 48.4967 33.8452 48.0625 33.8438V35.2813C48.5209 35.2791 48.9727 35.3903 49.3778 35.6047C49.9486 35.9011 50.4035 36.3802 50.6698 36.9655C50.9362 37.5508 50.9986 38.2086 50.8471 38.8336C50.6956 39.4585 50.339 40.0147 49.8342 40.4131C49.3294 40.8115 48.7056 41.0292 48.0625 41.0313Z" fill="black"/>
<path d="M33.6875 25.4703V23.0625C33.6875 22.9442 33.6584 22.8277 33.6026 22.7234C33.5468 22.6191 33.4661 22.5302 33.3677 22.4645L31.5313 21.2405V20.0855C32.2088 19.9105 32.7993 19.4945 33.192 18.9153C33.5848 18.3362 33.7528 17.6337 33.6646 16.9395C33.5764 16.2453 33.2381 15.6071 32.7131 15.1445C32.188 14.682 31.5123 14.4268 30.8125 14.4268C30.1128 14.4268 29.437 14.682 28.912 15.1445C28.3869 15.6071 28.0486 16.2453 27.9604 16.9395C27.8723 17.6337 28.0403 18.3362 28.433 18.9153C28.8258 19.4945 29.4162 19.9105 30.0938 20.0855V21.625C30.0938 21.7433 30.1229 21.8598 30.1787 21.9641C30.2345 22.0684 30.3152 22.1574 30.4136 22.223L32.25 23.4471V25.2188C31.494 25.2198 30.7516 25.4196 30.0971 25.798C29.4426 26.1765 28.8992 26.7203 28.5212 27.375H25.4471L24.2252 25.5386C24.1593 25.4399 24.07 25.359 23.9653 25.3032C23.8606 25.2474 23.7437 25.2184 23.625 25.2188H22.0855C21.9105 24.5412 21.4945 23.9508 20.9153 23.558C20.3362 23.1653 19.6337 22.9973 18.9395 23.0854C18.2453 23.1736 17.6071 23.5119 17.1445 24.037C16.682 24.562 16.4268 25.2378 16.4268 25.9375C16.4268 26.6373 16.682 27.313 17.1445 27.8381C17.6071 28.3631 18.2453 28.7014 18.9395 28.7896C19.6337 28.8778 20.3362 28.7098 20.9153 28.317C21.4945 27.9243 21.9105 27.3338 22.0855 26.6563H23.2405L24.4624 28.4927C24.5282 28.5914 24.6175 28.6723 24.7222 28.7281C24.8269 28.7839 24.9439 28.8129 25.0625 28.8125H28.0022C27.9886 28.8952 27.9735 28.9778 27.9641 29.0627C27.414 29.2492 26.9077 29.5459 26.4761 29.9347C26.0445 30.3235 25.6967 30.7961 25.4538 31.3238C25.211 31.8515 25.0783 32.4231 25.0638 33.0038C25.0493 33.5845 25.1533 34.1621 25.3694 34.7012C25.1393 34.873 24.9269 35.0673 24.7355 35.2813H22.0855C21.9105 34.6037 21.4945 34.0133 20.9153 33.6205C20.3362 33.2278 19.6337 33.0598 18.9395 33.1479C18.2453 33.2361 17.6071 33.5744 17.1445 34.0995C16.682 34.6245 16.4268 35.3003 16.4268 36C16.4268 36.6998 16.682 37.3755 17.1445 37.9006C17.6071 38.4256 18.2453 38.7639 18.9395 38.8521C19.6337 38.9403 20.3362 38.7723 20.9153 38.3795C21.4945 37.9868 21.9105 37.3963 22.0855 36.7188H23.8823C23.6473 37.3684 23.5726 38.0651 23.6645 38.7497C23.7565 39.4344 24.0124 40.0867 24.4105 40.6512C24.8087 41.2158 25.3372 41.6758 25.9513 41.9922C26.5653 42.3087 27.2467 42.4722 27.9375 42.4688C27.939 42.7097 27.9606 42.9502 28.0022 43.1875H25.0625C24.9442 43.1875 24.8277 43.2167 24.7234 43.2725C24.6191 43.3283 24.5302 43.409 24.4645 43.5074L23.2405 45.3438H22.0855C21.9105 44.6662 21.4945 44.0758 20.9153 43.683C20.3362 43.2903 19.6337 43.1223 18.9395 43.2104C18.2453 43.2986 17.6071 43.6369 17.1445 44.162C16.682 44.687 16.4268 45.3628 16.4268 46.0625C16.4268 46.7623 16.682 47.438 17.1445 47.9631C17.6071 48.4881 18.2453 48.8264 18.9395 48.9146C19.6337 49.0028 20.3362 48.8348 20.9153 48.442C21.4945 48.0493 21.9105 47.4588 22.0855 46.7813H23.625C23.7433 46.7813 23.8598 46.7521 23.9641 46.6963C24.0684 46.6405 24.1574 46.5598 24.223 46.4614L25.4471 44.625H28.5212C28.8992 45.2797 29.4426 45.8236 30.0971 46.202C30.7516 46.5805 31.494 46.7802 32.25 46.7813V48.553L30.4136 49.7749C30.3149 49.8407 30.234 49.93 30.1782 50.0347C30.1224 50.1394 30.0934 50.2564 30.0938 50.375V51.9146C29.4162 52.0895 28.8258 52.5056 28.433 53.0847C28.0403 53.6639 27.8723 54.3664 27.9604 55.0606C28.0486 55.7547 28.3869 56.3929 28.912 56.8555C29.437 57.3181 30.1128 57.5733 30.8125 57.5733C31.5123 57.5733 32.188 57.3181 32.7131 56.8555C33.2381 56.3929 33.5764 55.7547 33.6646 55.0606C33.7528 54.3664 33.5848 53.6639 33.192 53.0847C32.7993 52.5056 32.2088 52.0895 31.5313 51.9146V50.7596L33.3677 49.5377C33.4664 49.4718 33.5473 49.3825 33.6031 49.2778C33.6589 49.1731 33.6879 49.0562 33.6875 48.9375V46.5297C34.5275 46.2327 35.2549 45.6829 35.7697 44.9557C36.2846 44.2285 36.5615 43.3597 36.5625 42.4688V29.5313C36.5615 28.6403 36.2846 27.7715 35.7697 27.0444C35.2549 26.3172 34.5275 25.7673 33.6875 25.4703ZM29.375 17.3125C29.375 17.0282 29.4593 16.7503 29.6173 16.5139C29.7752 16.2775 29.9998 16.0933 30.2624 15.9844C30.5251 15.8756 30.8141 15.8472 31.093 15.9026C31.3718 15.9581 31.628 16.095 31.829 16.2961C32.03 16.4971 32.1669 16.7532 32.2224 17.0321C32.2779 17.3109 32.2494 17.6 32.1406 17.8626C32.0318 18.1253 31.8476 18.3498 31.6112 18.5078C31.3748 18.6657 31.0968 18.75 30.8125 18.75C30.4313 18.75 30.0656 18.5986 29.7961 18.329C29.5265 18.0594 29.375 17.6938 29.375 17.3125ZM19.3125 27.375C19.0282 27.375 18.7503 27.2907 18.5139 27.1328C18.2775 26.9748 18.0933 26.7503 17.9844 26.4876C17.8756 26.225 17.8472 25.9359 17.9026 25.6571C17.9581 25.3782 18.095 25.1221 18.2961 24.9211C18.4971 24.72 18.7532 24.5831 19.0321 24.5276C19.3109 24.4722 19.6 24.5006 19.8626 24.6094C20.1253 24.7183 20.3498 24.9025 20.5078 25.1389C20.6657 25.3753 20.75 25.6532 20.75 25.9375C20.75 26.3188 20.5986 26.6844 20.329 26.954C20.0594 27.2236 19.6938 27.375 19.3125 27.375ZM19.3125 37.4375C19.0282 37.4375 18.7503 37.3532 18.5139 37.1953C18.2775 37.0373 18.0933 36.8128 17.9844 36.5501C17.8756 36.2875 17.8472 35.9984 17.9026 35.7196C17.9581 35.4407 18.095 35.1846 18.2961 34.9836C18.4971 34.7825 18.7532 34.6456 19.0321 34.5901C19.3109 34.5347 19.6 34.5631 19.8626 34.6719C20.1253 34.7808 20.3498 34.965 20.5078 35.2014C20.6657 35.4378 20.75 35.7157 20.75 36C20.75 36.3813 20.5986 36.7469 20.329 37.0165C20.0594 37.2861 19.6938 37.4375 19.3125 37.4375ZM19.3125 47.5C19.0282 47.5 18.7503 47.4157 18.5139 47.2578C18.2775 47.0998 18.0933 46.8753 17.9844 46.6126C17.8756 46.35 17.8472 46.0609 17.9026 45.7821C17.9581 45.5032 18.095 45.2471 18.2961 45.0461C18.4971 44.845 18.7532 44.7081 19.0321 44.6526C19.3109 44.5972 19.6 44.6256 19.8626 44.7344C20.1253 44.8432 20.3498 45.0275 20.5078 45.2639C20.6657 45.5003 20.75 45.7782 20.75 46.0625C20.75 46.4438 20.5986 46.8094 20.329 47.079C20.0594 47.3486 19.6938 47.5 19.3125 47.5ZM32.25 54.6875C32.25 54.9718 32.1657 55.2498 32.0078 55.4862C31.8498 55.7226 31.6253 55.9068 31.3626 56.0156C31.1 56.1244 30.8109 56.1529 30.5321 56.0974C30.2532 56.0419 29.9971 55.905 29.7961 55.704C29.595 55.503 29.4581 55.2468 29.4026 54.968C29.3472 54.6891 29.3756 54.4001 29.4844 54.1374C29.5933 53.8747 29.7775 53.6502 30.0139 53.4923C30.2503 53.3343 30.5282 53.25 30.8125 53.25C31.1938 53.25 31.5594 53.4015 31.829 53.6711C32.0986 53.9406 32.25 54.3063 32.25 54.6875ZM35.125 42.4688C35.125 43.0374 34.9564 43.5933 34.6405 44.066C34.3246 44.5388 33.8756 44.9073 33.3502 45.1249C32.8249 45.3425 32.2468 45.3995 31.6891 45.2885C31.1314 45.1776 30.6192 44.9038 30.2171 44.5017C29.815 44.0996 29.5412 43.5874 29.4303 43.0297C29.3193 42.472 29.3763 41.8939 29.5939 41.3686C29.8115 40.8432 30.18 40.3942 30.6528 40.0783C31.1256 39.7624 31.6814 39.5938 32.25 39.5938V38.1563C31.3644 38.1573 30.5007 38.431 29.776 38.9401C29.0514 39.4492 28.5011 40.169 28.1999 41.0018C28.1107 41.0097 28.0331 41.0313 27.9375 41.0313C27.2934 41.0297 26.6685 40.8119 26.1629 40.4128C25.6574 40.0137 25.3005 39.4564 25.1495 38.8302C24.9986 38.2041 25.0622 37.5453 25.3303 36.9597C25.5984 36.374 26.0554 35.8953 26.628 35.6004C27.032 35.3891 27.4815 35.2796 27.9375 35.2813V33.8438C27.5033 33.8461 27.072 33.9142 26.6582 34.0457C26.5544 33.7498 26.501 33.4386 26.5 33.125C26.5023 32.5968 26.6501 32.0795 26.9272 31.6297C27.2042 31.18 27.5998 30.8153 28.0705 30.5756C28.304 31.5079 28.8418 32.3356 29.5989 32.9276C30.356 33.5196 31.289 33.842 32.25 33.8438V32.4063C31.6814 32.4063 31.1256 32.2377 30.6528 31.9218C30.18 31.6058 29.8115 31.1568 29.5939 30.6315C29.3763 30.1062 29.3193 29.5281 29.4303 28.9704C29.5412 28.4127 29.815 27.9004 30.2171 27.4983C30.6192 27.0963 31.1314 26.8225 31.6891 26.7115C32.2468 26.6006 32.8249 26.6575 33.3502 26.8751C33.8756 27.0927 34.3246 27.4612 34.6405 27.934C34.9564 28.4068 35.125 28.9627 35.125 29.5313V42.4688Z" fill="black"/>
</svg>
