<svg width="85" height="85" viewBox="0 0 85 85" fill="none" xmlns="http://www.w3.org/2000/svg">
<path d="M66.9868 59.5247C85.3144 39.8709 63.3065 9.73045 49.9999 24C42.6301 31.9031 37.401 37.4832 27.9999 32C16.7404 25.4329 6.50006 32 9.9169 46.1181C14.7882 66.2459 44.2181 83.9412 66.9868 59.5247Z" fill="#A8EBFC" fill-opacity="0.54"/>
<g clip-path="url(#clip0)">
<path d="M21.4986 64.0761L22.069 65.3599L42.5361 56.8733L46.1018 57.3013L47.3853 61.2235L45.6739 62.864C45.0321 63.4343 44.8183 64.3613 45.1749 65.2172L45.888 67L57.7258 62.3646L57.0841 60.6532C56.7989 59.7973 56.0144 59.2983 55.0874 59.2983H52.7339L51.4504 56.2316L54.5881 54.6629C55.5864 54.1635 56.0144 53.0225 55.6578 52.0241L51.5931 41.1133C51.1652 39.9722 49.9527 39.4728 48.8116 39.8294C48.8116 39.8294 48.7406 39.8294 48.7406 39.9008L45.7453 41.1843L45.3173 40.1146L46.9577 38.1893C48.0985 36.9055 48.8116 35.3368 49.0258 33.6253L51.0938 31.1294C52.4487 29.5603 52.1635 27.2071 50.5945 25.8519C50.3093 25.6381 50.0241 25.4243 49.7389 25.2815C48.9544 24.9249 48.1699 24.8535 47.3143 25.0677L47.1002 24.4256C46.7436 23.2848 45.4601 22.7141 44.3904 23.1421L29.3431 28.562C28.202 28.9899 27.6316 30.2021 28.0596 31.2718V31.3432L28.4162 32.2701C26.5619 33.126 25.706 35.2654 26.3478 37.1196C26.8471 38.5459 28.1306 39.5442 29.6283 39.758L32.9802 40.1146C34.3351 41.1133 35.9751 41.755 37.6156 41.8974L39.9688 42.1116L40.3967 43.1813C39.8974 43.4665 39.5408 43.9658 39.3984 44.6076L38.8991 47.0322L21.4986 54.0922L21.9979 55.447L31.9819 51.4538L34.4064 58.7276L21.4986 64.0761ZM55.6578 61.0811L55.8006 61.5087L46.6722 65.1458L46.4584 64.7178C46.387 64.4326 46.4584 64.1475 46.6012 63.9337L49.0258 61.6515L52.0921 60.6532H54.9447C55.3012 60.6532 55.5154 60.7956 55.6578 61.0811ZM51.1652 59.3693L48.5978 60.2252L47.6709 57.5154C48.0985 57.5865 48.455 57.5154 48.8116 57.3013L50.0241 56.7309L51.1652 59.3693ZM49.2396 40.9705C49.5961 40.8277 50.0241 40.9705 50.1669 41.3271L50.7372 42.8247L47.2429 43.9658L47.6709 45.3207L51.1652 44.1796L52.0207 46.4618L48.6692 47.6025L49.0971 48.9578L52.5201 47.8167L53.376 50.0985L50.0955 51.1682L50.5234 52.5235L53.875 51.3824L54.2315 52.3093C54.3743 52.6659 54.2315 53.0225 53.875 53.1652L48.2412 55.9464C48.0985 56.0178 47.9561 56.0178 47.8133 56.0178L42.9641 55.447L40.3253 47.5315L40.8247 44.8928C40.8961 44.679 41.0385 44.4648 41.2526 44.3934L49.2396 40.9705ZM49.1682 26.565C50.3093 27.0643 50.88 28.4192 50.3807 29.6317C50.3093 29.8455 50.1669 29.9883 50.0241 30.2021L49.1682 31.2718C49.0971 30.5586 48.9544 29.9169 48.7406 29.2037L47.8133 26.4226C48.3126 26.3512 48.7406 26.4226 49.1682 26.565ZM27.7741 36.7631C27.3465 35.5506 27.8454 34.2671 28.9865 33.6964L29.9849 36.1213C30.3414 36.9769 30.8408 37.8328 31.4111 38.5459L29.9135 38.4031C28.9152 38.3318 28.0596 37.69 27.7741 36.7631ZM37.9008 40.5426C34.9768 40.2574 32.4095 38.4031 31.3398 35.622L29.4859 30.9152C29.3431 30.5586 29.4859 30.1307 29.8424 29.9883L44.8894 24.5684C45.1035 24.497 45.2459 24.497 45.4601 24.5684C45.6025 24.6397 45.7453 24.7822 45.8166 24.9963L47.3853 29.7031C48.2412 32.3415 47.6709 35.194 45.888 37.2621L43.6772 39.8294L44.319 41.5409L41.7516 42.6106L41.0385 40.8277L37.9008 40.5426ZM33.3367 50.883L34.9768 50.2413L36.7597 55.6612L38.1146 55.2332L36.2607 49.6709L39.1132 48.5298L41.5378 55.7326L35.7613 58.1572L33.3367 50.883Z" fill="black"/>
<path d="M56.7276 35.4792V36.1924H58.1538V35.4792C58.1538 33.4826 59.7229 31.9135 61.7195 31.9135V30.4873C59.7229 30.4873 58.1538 28.9186 58.1538 26.9216V26.2084H56.7276V26.9216C56.7276 28.9186 55.1589 30.4873 53.1619 30.4873V31.9135C55.1589 31.9135 56.7276 33.4826 56.7276 35.4792ZM57.4407 29.4889C57.8686 30.2021 58.439 30.7728 59.1522 31.2004C58.439 31.6283 57.8686 32.1991 57.4407 32.9122C57.0127 32.1991 56.4424 31.6283 55.7292 31.2004C56.4424 30.7728 57.0127 30.2021 57.4407 29.4889Z" fill="black"/>
<path d="M25.3495 49.7419V50.455H26.7758V49.7419C26.7758 47.7453 28.3448 46.1762 30.3415 46.1762V44.75C28.3448 44.75 26.7758 43.1813 26.7758 41.1843V40.4711H25.3495V41.1843C25.3495 43.1813 23.7808 44.75 21.7838 44.75V46.1762C23.7808 46.1762 25.3495 47.7453 25.3495 49.7419ZM26.0626 43.7516C26.4906 44.4648 27.061 45.0355 27.7741 45.4631C27.061 45.891 26.4906 46.4618 26.0626 47.1749C25.6347 46.4618 25.0643 45.891 24.3512 45.4631C25.0643 45.0355 25.6347 44.4648 26.0626 43.7516Z" fill="black"/>
<path d="M61.0064 41.1843V40.4711H59.5801V41.1843C59.5801 43.1813 58.0114 44.75 56.0144 44.75V46.1762C58.0114 46.1762 59.5801 47.7453 59.5801 49.7419V50.455H61.0064V49.7419C61.0064 47.7453 62.5754 46.1762 64.5721 46.1762V44.75C62.5754 44.75 61.0064 43.1813 61.0064 41.1843ZM60.2932 47.1749C59.8653 46.4618 59.2949 45.891 58.5818 45.4631C59.2949 45.0355 59.8653 44.4648 60.2932 43.7516C60.7212 44.4648 61.2916 45.0355 62.0047 45.4631C61.2916 45.891 60.7212 46.4618 60.2932 47.1749Z" fill="black"/>
<path d="M42.679 35.6934L43.6773 36.6917C47.5995 32.7694 43.9625 26.7792 43.7487 26.565L42.5362 27.3495C42.6076 27.3495 45.8167 32.5556 42.679 35.6934Z" fill="black"/>
</g>
<defs>
<clipPath id="clip0">
<rect width="44" height="44" fill="white" transform="translate(21 23)"/>
</clipPath>
</defs>
</svg>
