<svg width="81" height="80" viewBox="0 0 81 80" fill="none" xmlns="http://www.w3.org/2000/svg">
<path d="M59.6895 62.3577C83.1133 48.8508 72.0067 19.2649 55 29.0714C45.5809 34.5027 38.3247 32.8096 29 27.0714L28.8779 26.9962C22.3508 22.979 10.4888 15.6781 8.70457 32.697C6.53418 53.399 30.5896 79.1375 59.6895 62.3577Z" fill="#A8EBFC" fill-opacity="0.54"/>
<g clip-path="url(#clip0)">
<path d="M50.903 41.2774L47.0101 36.3218C48.3924 34.9046 49.2272 33.0429 49.3659 31.0681H55.3939V31.7278C53.9985 32.0145 52.9965 33.242 52.9949 34.6665C52.9953 36.3226 54.3381 37.6649 55.9942 37.6646C57.6503 37.6643 58.9926 36.3214 58.9923 34.6653C58.992 33.2405 57.9893 32.0127 56.5933 31.7278V30.4683C56.5933 30.1371 56.3248 29.8686 55.9936 29.8686H49.3659C49.2486 28.2069 48.6366 26.6184 47.6087 25.3076L48.4453 24.4709H55.5042C55.8354 25.4078 56.8634 25.8988 57.8002 25.5675C58.7371 25.2363 59.2281 24.2083 58.8968 23.2715C58.5655 22.3347 57.5376 21.8436 56.6008 22.1748C56.0884 22.356 55.6854 22.7591 55.5043 23.2714H48.1971C48.038 23.2714 47.8855 23.3347 47.7731 23.4471L46.8045 24.4157C43.4716 21.2059 38.1677 21.3057 34.9578 24.6386C33.5935 26.0551 32.7711 27.9065 32.6345 29.8685H27.5967L25.6361 25.4587C26.5125 24.9974 26.8491 23.9131 26.3879 23.0367C25.9267 22.1602 24.8423 21.8237 23.9659 22.2849C23.0895 22.7461 22.7529 23.8304 23.2141 24.7069C23.4565 25.1675 23.8871 25.5001 24.394 25.6182L26.658 30.7123C26.7544 30.9288 26.9693 31.0681 27.2062 31.068H32.6344C32.7725 33.0201 33.5911 34.8619 34.9476 36.2725L29.8846 41.3355C26.6109 40.845 23.5593 43.1012 23.0688 46.3749C22.5783 49.6487 24.8345 52.7002 28.1083 53.1907C28.2071 53.2056 28.3062 53.2179 28.4057 53.2277V56.257C28.4057 56.5882 28.6742 56.8567 29.0054 56.8567H34.5134C34.8446 57.7936 35.8726 58.2845 36.8094 57.9532C37.7462 57.622 38.2372 56.594 37.906 55.6572C37.5747 54.7204 36.5467 54.2294 35.6099 54.5607C35.0975 54.7418 34.6945 55.1449 34.5134 55.6572H29.6051V53.2277C32.899 52.8993 35.3032 49.9629 34.9748 46.6689C34.7526 44.44 33.306 42.5209 31.2244 41.6935L35.8424 37.0755C38.8498 39.4435 43.0829 39.4605 46.1093 37.1169L49.4367 41.3523C44.8423 41.9932 41.6374 46.2371 42.2783 50.8314C42.9192 55.4258 47.1631 58.6307 51.7574 57.9898C56.3518 57.3489 59.5567 53.105 58.9158 48.5107C58.353 44.4752 54.9749 41.4257 50.903 41.2774ZM57.7928 34.6665C57.7928 35.6602 56.9873 36.4657 55.9936 36.4657C54.9999 36.4657 54.1944 35.6602 54.1944 34.6665C54.1944 33.6728 54.9999 32.8673 55.9936 32.8673C56.9873 32.8673 57.7928 33.6728 57.7928 34.6665ZM57.1931 23.2715C57.5243 23.2715 57.7928 23.54 57.7928 23.8712C57.7928 24.2024 57.5243 24.4709 57.1931 24.4709C56.8619 24.4709 56.5933 24.2024 56.5933 23.8712C56.5933 23.54 56.8619 23.2715 57.1931 23.2715ZM24.8072 24.4709C24.476 24.4709 24.2075 24.2024 24.2075 23.8712C24.2075 23.54 24.476 23.2715 24.8072 23.2715C25.1384 23.2715 25.407 23.54 25.407 23.8712C25.407 24.2024 25.1384 24.4709 24.8072 24.4709ZM36.2022 55.6573C36.5335 55.6573 36.802 55.9258 36.802 56.257C36.802 56.5882 36.5335 56.8568 36.2022 56.8568C35.871 56.8568 35.6025 56.5882 35.6025 56.257C35.6025 55.9258 35.871 55.6573 36.2022 55.6573ZM31.4043 51.41C29.9222 52.2755 28.0886 52.2755 26.6064 51.41V50.2597C26.6064 48.9348 27.6805 47.8607 29.0054 47.8607C30.3303 47.8607 31.4043 48.9348 31.4043 50.2597V51.41ZM27.8059 45.4618C27.8059 44.7993 28.3429 44.2623 29.0054 44.2623C29.6679 44.2623 30.2049 44.7993 30.2049 45.4618C30.2049 46.1242 29.6679 46.6612 29.0054 46.6612C28.3429 46.6612 27.8059 46.1242 27.8059 45.4618ZM32.6038 44.077C33.3791 44.9561 33.8058 46.0887 33.8033 47.261C33.8031 48.4264 33.3764 49.5514 32.6038 50.424V50.2597C32.6031 48.9485 31.8892 47.7414 30.7404 47.1092C31.6553 46.1509 31.6199 44.6323 30.6615 43.7175C29.7031 42.8027 28.1846 42.8381 27.2698 43.7964C26.3849 44.7234 26.3849 46.1822 27.2698 47.1092C26.1213 47.7415 25.4076 48.9485 25.407 50.2596V50.4239C23.6543 48.4365 23.8446 45.4046 25.8319 43.652C27.8193 41.8993 30.8512 42.0896 32.6038 44.077ZM45.1983 36.3002C42.6946 38.1178 39.3057 38.1178 36.802 36.3002V34.8464C36.802 33.7534 37.6881 32.8673 38.7811 32.8673H40.1125L39.2423 35.0431C39.1532 35.266 39.2056 35.5207 39.3755 35.6902L40.5749 36.8897C40.8091 37.1238 41.1888 37.1238 41.423 36.8897L42.6224 35.6902C42.7923 35.5206 42.8447 35.266 42.7556 35.0431L41.886 32.8673H43.2192C44.3122 32.8673 45.1983 33.7534 45.1983 34.8464V36.3002ZM41.086 26.561C41.0635 26.5985 41.0452 26.6382 41.0314 26.6797C40.7279 27.5895 39.0895 27.9343 38.0346 28.0345C38.1955 26.0246 39.1413 25.0706 41.0002 25.0706C42.7023 25.0706 43.6391 25.8754 43.9072 27.5547L41.9088 26.3552C41.6247 26.1849 41.2563 26.277 41.086 26.561ZM41.8272 27.7059L43.9707 28.9924C43.7302 30.4605 41.9207 31.6678 41.0001 31.6678C39.6625 31.44 38.5498 30.5124 38.0848 29.2377C39.1116 29.1531 40.9654 28.8418 41.8272 27.7059ZM41.4955 35.1217L41.0001 35.6177L40.5048 35.1217L41.0001 33.882L41.4955 35.1217ZM43.6168 31.6954C44.5524 30.9591 45.1281 29.8576 45.1983 28.6691C45.1983 24.7036 42.9151 23.8712 41.0001 23.8712C39.0852 23.8712 36.802 24.7036 36.802 28.6691C36.8717 29.8582 37.4475 30.9605 38.3835 31.6972C36.7937 31.8931 35.6002 33.2446 35.6025 34.8464V35.211C32.9735 32.23 33.2588 27.6822 36.2399 25.0531C39.221 22.4241 43.7688 22.7094 46.3978 25.6904C48.7967 28.4106 48.7967 32.4908 46.3978 35.211V34.8463C46.401 33.2439 45.2072 31.8913 43.6168 31.6954ZM54.7941 55.4918C52.2904 57.3094 48.9015 57.3094 46.3978 55.4918V54.038C46.3978 52.945 47.2839 52.0589 48.3769 52.0589H49.7083L48.8381 54.2347C48.749 54.4576 48.8014 54.7122 48.9713 54.8818L50.1707 56.0813C50.4049 56.3154 50.7846 56.3154 51.0188 56.0813L52.2182 54.8818C52.3881 54.7122 52.4405 54.4576 52.3514 54.2347L51.4818 52.0589H52.815C53.908 52.0589 54.7941 52.945 54.7941 54.038V55.4918ZM51.423 46.8975V46.8969L53.5665 48.1834C53.326 49.6521 51.5166 50.8594 50.596 50.8594C49.2583 50.6316 48.1456 49.704 47.6806 48.4293C48.7074 48.3447 50.5612 48.0334 51.423 46.8975ZM47.6302 47.2262C47.791 45.2165 48.7368 44.2623 50.596 44.2623C52.298 44.2623 53.2348 45.0671 53.5029 46.7464L51.5046 45.5469C51.2205 45.3765 50.8521 45.4687 50.6817 45.7527C50.6592 45.7902 50.6409 45.8299 50.6271 45.8714C50.3237 46.7812 48.6852 47.126 47.6302 47.2262ZM51.0913 54.3133L50.596 54.8093L50.1006 54.3133L50.596 53.0736L51.0913 54.3133ZM55.9936 54.4044V54.0379C55.9968 52.4354 54.803 51.0829 53.2126 50.8869C54.1482 50.1507 54.7239 49.0491 54.7941 47.8606C54.7941 43.8952 52.5109 43.0627 50.596 43.0627C48.681 43.0627 46.3978 43.8952 46.3978 47.8606C46.4675 49.0498 47.0433 50.1521 47.9793 50.8887C46.3895 51.0846 45.196 52.4361 45.1983 54.0379V54.4026C42.5754 51.4192 42.8677 46.8744 45.851 44.2516C48.8343 41.6287 53.3791 41.9209 56.002 44.9042C57.1577 46.2187 57.7944 47.9095 57.7928 49.6598C57.7924 51.408 57.1525 53.0956 55.9936 54.4044Z" fill="black"/>
</g>
<defs>
<clipPath id="clip0">
<rect width="36" height="36" fill="white" transform="translate(23 22.0714)"/>
</clipPath>
</defs>
</svg>
