<svg width="70" height="69" viewBox="0 0 70 69" fill="none" xmlns="http://www.w3.org/2000/svg">
<path d="M65.238 34.4866C70.6935 8.62909 38.4609 -0.202173 34.5001 18.5715C32.3063 28.9692 29.5 34.0714 18.5001 33.0715C9.41435 32.2456 -5.30419 41.4434 11.4999 55.0714C27.1326 67.7493 58.4606 66.6099 65.238 34.4866Z" fill="#A8EBFC" fill-opacity="0.54"/>
<g clip-path="url(#clip0)">
<path d="M37.3515 32.817C36.9628 32.7374 36.5874 33.0099 36.513 33.4257C36.2458 34.9316 35.2047 36.1459 33.8253 36.5604C32.4459 36.9749 30.966 36.5183 30.0049 35.3815C29.8352 35.1704 29.5718 35.0744 29.317 35.1306C29.0621 35.1868 28.8557 35.3865 28.7778 35.6521C28.7 35.9178 28.7629 36.2077 28.9421 36.4096C29.7386 37.3472 30.8098 37.9667 31.9793 38.166C31.4727 39.1195 30.525 39.707 29.4997 39.7032C29.1039 39.7032 28.783 40.0464 28.783 40.4698C28.783 40.8932 29.1039 41.2365 29.4997 41.2365C31.3158 41.2431 32.9363 40.018 33.5367 38.1844C35.7381 37.8437 37.497 36.05 37.9205 33.714C37.9948 33.2982 37.7401 32.8966 37.3515 32.817Z" fill="black"/>
<path d="M29.6918 29.7365C29.6918 29.3131 29.3709 28.9698 28.9751 28.9698C26.7993 28.9728 25.0362 30.8589 25.0334 33.1865C25.0334 33.6099 25.3543 33.9532 25.7501 33.9532C26.1459 33.9532 26.4668 33.6099 26.4668 33.1865C26.4668 31.7046 27.5898 30.5032 28.9751 30.5032C29.3709 30.5032 29.6918 30.1599 29.6918 29.7365Z" fill="black"/>
<path d="M45.1 23.8047H50.905C51.2729 25.7328 52.9458 27.0497 54.776 26.8519C56.6063 26.6541 57.9992 25.0059 57.9992 23.038C57.9992 21.0701 56.6063 19.4219 54.776 19.2241C52.9458 19.0263 51.2729 20.3432 50.905 22.2713H45.1C43.7704 22.2746 42.6175 23.2553 42.315 24.6403C41.0549 23.6387 39.5275 23.0961 37.9577 23.0924C37.8365 23.0924 37.7197 23.1078 37.5993 23.1139C37.0477 22.1255 36.099 21.4664 35.0306 21.3294C33.9622 21.1924 32.8948 21.593 32.1405 22.4139C31.5076 21.9535 30.7979 21.6276 30.05 21.4541V19.2047C30.05 18.3578 30.6917 17.6713 31.4833 17.6713H40.155C40.5229 19.5995 42.1958 20.9164 44.026 20.7186C45.8563 20.5208 47.2492 18.8726 47.2492 16.9047C47.2492 14.9368 45.8563 13.2885 44.026 13.0907C42.1958 12.8929 40.5229 14.2099 40.155 16.138H31.4833C29.9001 16.138 28.6166 17.511 28.6166 19.2047V21.3153C26.7783 21.3768 25.0666 22.332 23.9676 23.9097C22.684 23.4686 21.2814 23.6959 20.1775 24.5239C19.0737 25.3519 18.3959 26.6851 18.3461 28.1264C16.7142 28.7778 15.7963 30.6328 16.2104 32.4427C14.0927 35.8092 14.8219 40.3618 17.8666 42.7819V51.4813C16.0642 51.8749 14.8332 53.6646 15.0181 55.6225C15.203 57.5804 16.7437 59.0705 18.5833 59.0705C20.4228 59.0705 21.9636 57.5804 22.1485 55.6225C22.3334 53.6646 21.1023 51.8749 19.3 51.4813V43.6797C20.7567 44.3549 22.3834 44.4859 23.9182 44.0516C24.6867 45.7159 26.1532 46.8864 27.8634 47.2006C29.5736 47.5148 31.3212 46.9347 32.5647 45.6401C33.2336 45.8736 33.9273 46.0163 34.6295 46.0648C34.9742 47.5981 35.9474 48.5948 37.9333 49.4481V52.938C37.9333 54.6317 39.2167 56.0046 40.8 56.0046H47.3216C47.6895 57.9328 49.3625 59.2497 51.1927 59.0519C53.023 58.8541 54.4159 57.2059 54.4159 55.238C54.4159 53.2701 53.023 51.6218 51.1927 51.4241C49.3625 51.2263 47.6895 52.5432 47.3216 54.4713H40.8C40.0083 54.4713 39.3666 53.7848 39.3666 52.938V50.0315C39.8986 50.2914 40.3707 50.673 40.7498 51.1493C41.2533 51.7914 41.9946 52.1649 42.778 52.1713C43.1188 52.1713 43.4562 52.0978 43.7698 51.9551C44.7199 51.521 45.3363 50.5226 45.3365 49.4174C45.3369 49.1293 45.2939 48.843 45.2089 48.5695C44.9955 47.8473 44.7071 47.1529 44.3489 46.4995C45.915 45.3545 47.0081 43.6074 47.4005 41.622C48.9214 39.7061 49.1084 36.9575 47.8627 34.8263C47.8993 34.732 47.9258 34.6346 47.9544 34.538H50.905C51.2729 36.4661 52.9458 37.783 54.776 37.5852C56.6063 37.3874 57.9992 35.7392 57.9992 33.7713C57.9992 31.8034 56.6063 30.1552 54.776 29.9574C52.9458 29.7596 51.2729 31.0765 50.905 33.0047H48.0906C47.9283 31.3551 46.7687 30.0175 45.2433 29.7203C45.0303 28.3594 44.4866 27.0823 43.6666 26.0173V25.338C43.6666 24.4912 44.3083 23.8047 45.1 23.8047ZM54.4166 20.738C55.604 20.738 56.5666 21.7677 56.5666 23.038C56.5666 24.3082 55.604 25.338 54.4166 25.338C53.2292 25.338 52.2666 24.3082 52.2666 23.038C52.2666 21.7677 53.2292 20.738 54.4166 20.738ZM43.6666 14.6047C44.854 14.6047 45.8166 15.6344 45.8166 16.9047C45.8166 18.1749 44.854 19.2047 43.6666 19.2047C42.4792 19.2047 41.5166 18.1749 41.5166 16.9047C41.5166 15.6344 42.4792 14.6047 43.6666 14.6047ZM20.7333 55.238C20.7333 56.5082 19.7707 57.538 18.5833 57.538C17.3959 57.538 16.4333 56.5082 16.4333 55.238C16.4333 53.9677 17.3959 52.938 18.5833 52.938C19.1535 52.938 19.7004 53.1803 20.1036 53.6116C20.5068 54.043 20.7333 54.628 20.7333 55.238ZM50.8333 52.938C52.0207 52.938 52.9833 53.9677 52.9833 55.238C52.9833 56.5082 52.0207 57.538 50.8333 57.538C49.6459 57.538 48.6833 56.5082 48.6833 55.238C48.6833 53.9677 49.6459 52.938 50.8333 52.938ZM54.4166 31.4713C55.604 31.4713 56.5666 32.5011 56.5666 33.7713C56.5666 35.0416 55.604 36.0713 54.4166 36.0713C53.2292 36.0713 52.2666 35.0416 52.2666 33.7713C52.2666 32.5011 53.2292 31.4713 54.4166 31.4713ZM46.6945 33.3995C46.6952 33.7813 46.6036 34.1569 46.4287 34.4897C46.2144 34.8919 45.8889 35.2133 45.497 35.4097C45.1386 35.5894 44.9843 36.0459 45.1523 36.4293C45.3203 36.8128 45.747 36.9779 46.1054 36.7981C46.4032 36.6468 46.6795 36.4511 46.926 36.217C47.5387 37.745 47.2626 39.5148 46.2194 40.7472L46.2058 40.7641C44.9821 42.1798 43.0321 42.5624 41.4184 41.7033C41.2083 41.5904 41.0085 41.457 40.8215 41.3046C41.5269 40.3498 41.652 39.0446 41.1425 37.9566C41.0317 37.7051 40.8023 37.5375 40.543 37.5185C40.2838 37.4996 40.0352 37.6323 39.8935 37.8654C39.7518 38.0984 39.7391 38.3953 39.8604 38.6412C40.1955 39.3598 39.9871 40.2326 39.3709 40.6913C39.0096 40.9495 38.5627 41.0314 38.1416 40.9166C37.7204 40.8018 37.3647 40.5011 37.1629 40.0894C36.9857 39.7107 36.5552 39.5572 36.2011 39.7467C35.8471 39.9362 35.7036 40.3968 35.8808 40.7756C36.5693 42.2769 38.2435 42.9281 39.6726 42.2507C40.0033 42.5728 40.3713 42.8479 40.7677 43.0695C42.1611 43.8404 43.8004 43.9189 45.2526 43.2841C44.3633 44.8694 42.8678 45.9568 41.1626 46.258C40.7923 46.3199 40.5291 46.6766 40.5588 47.0762C40.5885 47.4759 40.9011 47.7836 41.2758 47.7822C41.3142 47.7822 41.3526 47.7789 41.3905 47.7722C41.9772 47.6704 42.5501 47.492 43.0962 47.2409C43.4101 47.8105 43.6612 48.4171 43.8444 49.0487C43.882 49.1682 43.9011 49.2936 43.901 49.4198C43.9005 49.9107 43.6265 50.3541 43.2044 50.5467C42.7209 50.7504 42.1699 50.5952 41.8427 50.1634C41.1697 49.319 40.2887 48.6935 39.3 48.3579C37.2123 47.6096 36.4233 46.9265 36.1108 46.028C36.6421 45.9713 37.1672 45.8607 37.6789 45.6976C38.0573 45.5731 38.2697 45.144 38.1533 44.7393C38.0369 44.3345 37.6359 44.1072 37.2575 44.2317C36.7427 44.4005 36.2115 44.5052 35.6744 44.5437C34.6359 44.6316 33.5926 44.4627 32.6249 44.05C32.3409 43.9471 32.0268 44.0307 31.8208 44.2639C30.8855 45.4294 29.4383 45.9695 28.0283 45.6793C26.6183 45.389 25.4617 44.3129 24.9975 42.8594V42.851L24.9939 42.8448C24.6082 41.6469 24.7373 40.328 25.3465 39.2415C25.5513 38.878 25.4419 38.4057 25.1021 38.1866C24.7623 37.9674 24.3208 38.0845 24.116 38.448C23.884 38.865 23.7022 39.3117 23.5749 39.7774C23.5498 39.7774 23.5254 39.7896 23.5032 39.7896C22.6703 39.7854 21.9974 39.0615 21.9982 38.1705V38.1467C21.9978 37.9446 21.9219 37.7511 21.7872 37.6093C21.6525 37.4676 21.4704 37.3894 21.2815 37.3923C20.8837 37.3977 20.5641 37.7448 20.5649 38.1705C20.5667 39.8428 21.7922 41.2209 23.3534 41.3061C23.3534 41.3544 23.3448 41.402 23.3448 41.4503C23.345 41.8348 23.3806 42.2185 23.4509 42.5956C21.3207 43.1536 19.0808 42.3475 17.699 40.5256C16.3173 38.7038 16.0415 36.1929 16.9909 34.078C17.2259 34.3699 17.5018 34.6213 17.8086 34.8232C18.1476 35.0419 18.5881 34.9252 18.7926 34.5625C18.997 34.1999 18.8879 33.7286 18.5489 33.5099C18.1333 33.241 17.8189 32.8249 17.6602 32.3338C17.3204 31.3056 17.7347 30.1661 18.6346 29.6535C19.5345 29.141 20.6495 29.4096 21.2572 30.2853C21.4933 30.6253 21.9423 30.6962 22.2602 30.4436C22.578 30.191 22.6442 29.7107 22.4081 29.3707C21.7953 28.4822 20.8431 27.9335 19.8124 27.8749C19.9144 27.0306 20.3424 26.2706 20.9924 25.7795C21.6425 25.2883 22.4551 25.111 23.233 25.2905C23.1316 25.5534 23.0468 25.8234 22.9793 26.0985C22.904 26.3676 22.9723 26.6591 23.1572 26.8585C23.3422 27.0578 23.6142 27.133 23.8663 27.0545C24.1184 26.9759 24.3101 26.7563 24.3661 26.4819C24.7349 24.9379 25.7892 23.6863 27.1865 23.1339C28.5838 22.5814 30.1456 22.7986 31.3643 23.715C31.2085 24.1398 31.1274 24.5918 31.125 25.0482C31.125 25.4716 31.4458 25.8149 31.8416 25.8149C32.2374 25.8149 32.5583 25.4716 32.5583 25.0482C32.5444 24.2497 32.9346 23.5054 33.5788 23.1018C34.2231 22.6981 35.0208 22.6981 35.665 23.1018C36.3092 23.5054 36.6995 24.2497 36.6856 25.0482C36.6856 25.4716 37.0064 25.8149 37.4022 25.8149C37.798 25.8149 38.1189 25.4716 38.1189 25.0482C38.1131 24.9077 38.0999 24.7677 38.0795 24.6288C40.8708 24.7078 43.2415 26.8379 43.7963 29.7655C43.3393 29.8818 42.9091 30.0965 42.5321 30.3965C42.3273 30.5608 42.22 30.8296 42.2506 31.1015C42.2812 31.3734 42.4452 31.6072 42.6806 31.7148C42.9161 31.8224 43.1873 31.7875 43.3921 31.6231C44.0179 31.1193 44.8564 31.0383 45.5565 31.4139C46.2565 31.7896 46.6972 32.5571 46.6938 33.3949L46.6945 33.3995Z" fill="black"/>
</g>
<defs>
<clipPath id="clip0">
<rect width="43" height="46" fill="white" transform="translate(15.0001 13.0715)"/>
</clipPath>
</defs>
</svg>
