<svg width="85" height="84" viewBox="0 0 85 84" fill="none" xmlns="http://www.w3.org/2000/svg">
<path d="M66.9868 58.5962C85.3144 38.9423 63.3065 8.80186 49.9999 23.0714C42.6301 30.9745 37.401 36.5546 27.9999 31.0714C16.7404 24.5043 6.50006 31.0714 9.9169 45.1895C14.7882 65.3173 44.2181 83.0126 66.9868 58.5962Z" fill="#A8EBFC" fill-opacity="0.54"/>
<g clip-path="url(#clip0)">
<path d="M71.3587 28.9481C66.5599 28.1976 62.3019 25.4538 59.6356 21.3941C59.4881 21.1678 59.2363 21.0314 58.9663 21.0314C58.6962 21.0314 58.4444 21.1678 58.297 21.3941C57.0707 23.2974 55.4606 24.9237 53.5697 26.1689C50.0729 21.4064 43.3416 21.0453 43.0119 21.0315H41.1543C41.0332 21.0376 29.0939 21.6739 28.6147 32.1121C28.5158 34.2296 28.502 35.9454 28.538 37.3722C28.0601 37.1375 27.4999 37.1406 27.0246 37.3806C25.8348 37.9802 25.8746 40.8076 26.123 43.0984C26.4774 45.2211 27.681 47.1079 29.4565 48.324C29.3361 51.0273 29.2932 53.8241 32.4848 56.8547C32.7785 57.1338 33.0437 57.4121 33.2929 57.6896V64.7008C33.2929 65.9711 34.3226 67.0008 35.5929 67.0008H48.6063C49.8765 67.0008 50.9063 65.9711 50.9063 64.7008V57.6896C51.1555 57.4121 51.4207 57.1338 51.7144 56.8547C53.0634 55.6658 54.0292 54.1033 54.4897 52.3651C55.8054 53.3158 57.1877 54.1707 58.6259 54.9235C58.8416 55.0313 59.0955 55.0313 59.3113 54.9235C62.2936 53.3536 65.0333 51.3608 67.4456 49.0071C71.2191 45.2328 71.9689 30.3718 71.9996 29.7408C72.018 29.3522 71.7425 29.0114 71.3587 28.9481ZM27.6464 42.9106C27.4517 41.089 27.5107 39.1877 27.7683 38.7338C28.0083 38.72 28.4092 39.0964 28.64 39.4184C28.7408 40.7605 28.92 42.0955 29.1767 43.4166C29.3888 44.4105 29.5033 45.4227 29.5186 46.4388V46.4465C28.5558 45.481 27.9038 44.2496 27.6464 42.9106ZM49.3707 64.7008C49.3707 65.1242 49.0274 65.4675 48.604 65.4675H35.5929C35.1695 65.4675 34.8262 65.1242 34.8262 64.7008V59.686C35.0079 59.9559 35.1812 60.2227 35.3476 60.4772C36.5658 62.3487 37.6184 63.9648 40.2803 63.9648H43.9143C46.5762 63.9648 47.6288 62.3487 48.847 60.4772C49.0134 60.2212 49.1867 59.9559 49.3684 59.686L49.3707 64.7008ZM50.6564 55.7415C49.4692 56.9093 48.4305 58.219 47.5636 59.6408C46.304 61.5766 45.673 62.4322 43.9166 62.4322H40.2826C38.5262 62.4322 37.8952 61.5766 36.6356 59.6408C35.7686 58.2192 34.7299 56.9099 33.5428 55.7423C30.7759 53.1165 30.8748 50.9399 30.9998 48.1845C31.0259 47.6141 31.0519 47.0345 31.0519 46.4396C31.0363 45.3313 30.9125 44.2271 30.6824 43.1429C30.3113 41.0967 29.849 38.5513 30.1457 32.1796C30.5605 23.1513 40.7855 22.5832 41.1873 22.5648H42.9782C43.0426 22.5648 49.1598 22.9037 52.2595 26.9701C50.492 27.9513 48.5686 28.6206 46.5739 28.9488C46.1903 29.0122 45.9149 29.3525 45.9329 29.7408C45.9628 30.3718 46.7126 45.2328 50.4862 49.0071C51.3242 49.8389 52.2102 50.621 53.1396 51.3493C52.8571 53.0609 51.9773 54.617 50.6564 55.7415ZM66.3615 47.9215C64.1535 50.0632 61.6658 51.8963 58.9663 53.371C56.2668 51.8968 53.7792 50.0642 51.571 47.9231C48.9229 45.275 47.7783 34.9081 47.5015 30.3365C52.0839 29.4545 56.1722 26.8942 58.9663 23.1567C61.7603 26.8942 65.8486 29.4545 70.431 30.3365C70.1542 34.9081 69.0096 45.275 66.3615 47.9231V47.9215Z" fill="black"/>
<path d="M58.4162 25.8753C55.9654 28.4004 52.901 30.246 49.5229 31.2312C49.1731 31.3331 48.9433 31.667 48.9732 32.0301C49.4623 38.0017 50.7833 45.2229 52.5259 46.9655C54.3488 48.7442 56.3793 50.2968 58.5734 51.5901C58.8156 51.7348 59.1178 51.7348 59.36 51.5901C61.5538 50.2968 63.584 48.7441 65.4067 46.9655C67.4184 44.9538 68.5868 36.6301 68.9602 32.0293C68.9896 31.6665 68.7599 31.333 68.4105 31.2312C65.0325 30.2455 61.9682 28.4001 59.5171 25.8753C59.2105 25.5777 58.7229 25.5777 58.4162 25.8753ZM64.3195 45.8853C62.6987 47.467 60.9028 48.8588 58.9667 50.0337C57.0298 48.8577 55.2334 47.4647 53.6123 45.8815C52.45 44.7192 51.1321 38.9171 50.5563 32.5177C53.7039 31.4995 56.5794 29.7807 58.9667 27.4907C61.3544 29.7809 64.2305 31.4997 67.3785 32.5177C66.8028 39.0083 65.5094 44.6901 64.3211 45.8815L64.3195 45.8853Z" fill="black"/>
</g>
<defs>
<clipPath id="clip0">
<rect width="46" height="46" fill="white" transform="translate(26 21)"/>
</clipPath>
</defs>
</svg>
